<svg width="13" height="13" viewBox="0 0 13 13" fill="none" xmlns="http://www.w3.org/2000/svg">
<g id="Group 61">
<path id="Vector" d="M11.9585 5.23415L11.1191 4.28366C10.9392 4.10544 10.8193 3.749 10.8193 3.51138V2.56088C10.8193 1.90742 10.2796 1.43217 9.68002 1.43217H8.6607C8.42086 1.43217 8.0611 1.31336 7.88122 1.13514L6.92186 0.30346C6.50214 -0.0529761 5.84258 -0.0529761 5.42286 0.30346L4.52347 1.13514C4.34359 1.31336 3.98383 1.43217 3.74399 1.43217H2.72467C2.06511 1.43217 1.58543 1.96683 1.58543 2.56088V3.57079C1.58543 3.80841 1.46551 4.16485 1.28563 4.34306L0.506148 5.29356C0.146388 5.7094 0.146388 6.36287 0.506148 6.77871L1.28563 7.7292C1.46551 7.90742 1.58543 8.26386 1.58543 8.50148V9.51138C1.58543 10.1648 2.12507 10.6401 2.72467 10.6401H3.74399C3.98383 10.6401 4.34359 10.7589 4.52347 10.9371L5.48282 11.7688C5.90254 12.1252 6.5621 12.1252 6.98182 11.7688L7.94118 10.9371C8.12106 10.7589 8.48082 10.6401 8.72066 10.6401H9.73998C10.3995 10.6401 10.8792 10.1054 10.8792 9.51138V8.50148C10.8792 8.26386 10.9991 7.90742 11.179 7.7292L12.0185 6.77871C12.3183 6.36287 12.3183 5.64999 11.9585 5.23415ZM8.72066 4.87772L5.84258 7.7292C5.78262 7.78861 5.6627 7.84801 5.54278 7.84801C5.42286 7.84801 5.30294 7.78861 5.24298 7.7292L3.80395 6.30346C3.62407 6.12524 3.62407 5.82821 3.80395 5.64999C3.98383 5.47178 4.28363 5.47178 4.46351 5.64999L5.60274 6.77871L8.0611 4.22425C8.24098 4.04603 8.54078 4.04603 8.72066 4.22425C8.90054 4.40247 8.90054 4.6995 8.72066 4.87772Z" fill="white"/>
</g>
</svg>
