<svg width="79" height="71" viewBox="0 0 79 71" fill="none" xmlns="http://www.w3.org/2000/svg">
<g id="Isolation_Mode" clip-path="url(#clip0_2759_1241)">
<path id="Vector" d="M40.914 7.22803H20.5136H0.111328L3.93773 48.7017L20.5136 53.3989L37.0896 48.7017L40.914 7.22803Z" fill="#E44D26"/>
<path id="Vector_2" d="M20.5137 10.6064V49.8867L33.9381 46.0816L37.2098 10.6064H20.5137Z" fill="#F16529"/>
<path id="Vector_3" d="M33.3494 15.6914H7.67969L9.11289 31.2278L9.14198 31.127H26.6856L26.1077 37.6957L20.5184 39.3112L14.836 37.6724L14.4927 33.6966H9.3398L10.0729 41.6423L20.5145 44.6018L30.9562 41.6423L32.3933 26.0497H13.7849L13.3039 20.8502H32.8723L33.3494 15.6914Z" fill="white"/>
<path id="Vector_4" d="M20.5145 15.6914H7.67969L9.11289 31.2259L9.14392 31.125H20.5145V26.0477H13.7849L13.3058 20.8502H20.5145V15.6914ZM14.4927 33.6966H9.3398L10.0729 41.6423L20.5145 44.6018V39.3092L14.836 37.6724L14.4927 33.6966Z" fill="#EBEBEB"/>
<g id="Clip path group">
<mask id="mask0_2759_1241" style="mask-type:luminance" maskUnits="userSpaceOnUse" x="8" y="0" width="71" height="71">
<g id="clippath">
<path id="Vector_5" d="M78.961 0.0678711H8.96094V70.068H78.961V0.0678711Z" fill="white"/>
</g>
</mask>
<g mask="url(#mask0_2759_1241)">
<g id="Group">
<g id="Clip path group_2">
<mask id="mask1_2759_1241" style="mask-type:luminance" maskUnits="userSpaceOnUse" x="8" y="0" width="71" height="71">
<g id="clippath-1">
<path id="Vector_6" d="M78.961 0.0678711H8.96094V70.068H78.961V0.0678711Z" fill="white"/>
</g>
</mask>
<g mask="url(#mask1_2759_1241)">
<g id="Group_2">
<path id="Vector_7" d="M60.2023 58.6933L43.9638 63.0666L27.7215 58.6933L23.9746 18.0923H63.9511L60.2023 58.6933Z" fill="#1F62AE"/>
<path id="Vector_8" d="M43.9629 21.3818V59.5799L43.9978 59.5896L57.141 56.0522L60.1742 21.3818H43.9629Z" fill="#3C9BD5"/>
<g id="Clip path group_3">
<mask id="mask2_2759_1241" style="mask-type:luminance" maskUnits="userSpaceOnUse" x="8" y="0" width="71" height="71">
<g id="clippath-2">
<path id="Vector_9" d="M78.961 0.0678711H8.96094V70.068H78.961V0.0678711Z" fill="white"/>
</g>
</mask>
<g mask="url(#mask2_2759_1241)">
<g id="Group_3">
<path id="Vector_10" d="M43.9469 31.5345L32.3242 36.3752L32.7082 41.1675L43.9469 36.3636L55.9032 31.2514L56.3978 26.3486L43.9469 31.5345Z" fill="white"/>
</g>
</g>
</g>
<g id="Clip path group_4">
<mask id="mask3_2759_1241" style="mask-type:luminance" maskUnits="userSpaceOnUse" x="32" y="31" width="12" height="11">
<g id="clippath-3">
<path id="Vector_11" d="M32.3242 36.3749L32.7082 41.169L43.9469 36.3632V31.5342L32.3242 36.3749Z" fill="white"/>
</g>
</mask>
<g mask="url(#mask3_2759_1241)">
<g id="Group_4">
<path id="Vector_12" d="M43.9489 31.5342H32.3242V41.169H43.9489V31.5342Z" fill="url(#paint0_linear_2759_1241)"/>
</g>
</g>
</g>
<g id="Clip path group_5">
<mask id="mask4_2759_1241" style="mask-type:luminance" maskUnits="userSpaceOnUse" x="43" y="26" width="14" height="11">
<g id="clippath-4">
<path id="Vector_13" d="M43.9473 31.5345V36.3636L55.9036 31.2514L56.3981 26.3486L43.9473 31.5345Z" fill="white"/>
</g>
</mask>
<g mask="url(#mask4_2759_1241)">
<g id="Group_5">
<path id="Vector_14" d="M56.3981 26.3486H43.9473V36.3636H56.3981V26.3486Z" fill="url(#paint1_linear_2759_1241)"/>
</g>
</g>
</g>
<g id="Clip path group_6">
<mask id="mask5_2759_1241" style="mask-type:luminance" maskUnits="userSpaceOnUse" x="32" y="36" width="24" height="19">
<g id="clippath-5">
<path id="Vector_15" d="M32.3398 36.375L32.7258 41.1692L49.9708 41.2215L49.5848 47.6137L43.9102 49.2098L38.4567 47.8348L38.125 43.8688H33.0574L33.7187 51.5255L43.9664 54.5548L54.1579 51.5798L55.4806 36.375H32.3398Z" fill="white"/>
</g>
</mask>
<g mask="url(#mask5_2759_1241)">
<g id="Group_6">
<path id="Vector_16" d="M55.4786 36.375H32.3398V54.5548H55.4786V36.375Z" fill="url(#paint2_linear_2759_1241)"/>
</g>
</g>
</g>
<g id="Clip path group_7">
<mask id="mask6_2759_1241" style="mask-type:luminance" maskUnits="userSpaceOnUse" x="8" y="0" width="71" height="71">
<g id="clippath-6">
<path id="Vector_17" d="M78.961 0.0678711H8.96094V70.068H78.961V0.0678711Z" fill="white"/>
</g>
</mask>
<g mask="url(#mask6_2759_1241)">
<g id="Group_7">
<g id="Group_8" opacity="0.05">
<g id="Clip path group_8">
<mask id="mask7_2759_1241" style="mask-type:luminance" maskUnits="userSpaceOnUse" x="32" y="36" width="12" height="19">
<g id="clippath-7">
<path id="Vector_18" d="M43.9489 36.375H32.3242V54.5548H43.9489V36.375Z" fill="white"/>
</g>
</mask>
<g mask="url(#mask7_2759_1241)">
<g id="Group_9">
<path id="Vector_19" d="M43.9469 36.375H32.3242L32.7082 41.1672L43.9469 41.2041V36.375Z" fill="#231F20"/>
<path id="Vector_20" d="M43.9462 49.1961L43.8919 49.2117L38.4364 47.8347L38.1067 43.8687H33.0391L33.7004 51.5253L43.9462 54.5547V49.1961Z" fill="#231F20"/>
</g>
</g>
</g>
</g>
</g>
</g>
</g>
<g id="Clip path group_9">
<mask id="mask8_2759_1241" style="mask-type:luminance" maskUnits="userSpaceOnUse" x="31" y="26" width="26" height="6">
<g id="clippath-8">
<path id="Vector_21" d="M31.2773 26.3486L31.8824 31.2514H55.9036L56.3982 26.3486H31.2773Z" fill="white"/>
</g>
</mask>
<g mask="url(#mask8_2759_1241)">
<g id="Group_10">
<path id="Vector_22" d="M56.3982 26.3486H31.2773V31.2514H56.3982V26.3486Z" fill="url(#paint3_linear_2759_1241)"/>
</g>
</g>
</g>
<g id="Clip path group_10">
<mask id="mask9_2759_1241" style="mask-type:luminance" maskUnits="userSpaceOnUse" x="8" y="0" width="71" height="71">
<g id="clippath-9">
<path id="Vector_23" d="M78.961 0.0678711H8.96094V70.068H78.961V0.0678711Z" fill="white"/>
</g>
</mask>
<g mask="url(#mask9_2759_1241)">
<g id="Group_11">
<g id="Group_12" opacity="0.05">
<g id="Clip path group_11">
<mask id="mask10_2759_1241" style="mask-type:luminance" maskUnits="userSpaceOnUse" x="31" y="26" width="13" height="6">
<g id="clippath-10">
<path id="Vector_24" d="M43.9493 26.3486H31.2773V31.2514H43.9493V26.3486Z" fill="white"/>
</g>
</mask>
<g mask="url(#mask10_2759_1241)">
<g id="Group_13">
<path id="Vector_25" d="M43.9473 26.3486H31.2773L31.8824 31.2514H43.9473V26.3486Z" fill="#231F20"/>
</g>
</g>
</g>
</g>
</g>
</g>
</g>
</g>
</g>
</g>
</g>
</g>
</g>
</g>
<defs>
<linearGradient id="paint0_linear_2759_1241" x1="38.1367" y1="42.9445" x2="38.1367" y2="33.3357" gradientUnits="userSpaceOnUse">
<stop stop-color="#D0D2D3"/>
<stop offset="0.387" stop-color="#D0D2D3"/>
<stop offset="1" stop-color="#D0D2D3"/>
</linearGradient>
<linearGradient id="paint1_linear_2759_1241" x1="50.1712" y1="29.1903" x2="50.1712" y2="19.2028" gradientUnits="userSpaceOnUse">
<stop stop-color="#D0D2D3"/>
<stop offset="0.387" stop-color="#D0D2D3"/>
<stop offset="1" stop-color="#D0D2D3"/>
</linearGradient>
<linearGradient id="paint2_linear_2759_1241" x1="25.4794" y1="45.4097" x2="48.5584" y2="45.4097" gradientUnits="userSpaceOnUse">
<stop stop-color="#E7E6E5"/>
<stop offset="1" stop-color="white"/>
</linearGradient>
<linearGradient id="paint3_linear_2759_1241" x1="36.4774" y1="28.7692" x2="61.6318" y2="28.7692" gradientUnits="userSpaceOnUse">
<stop stop-color="#E7E6E5"/>
<stop offset="1" stop-color="white"/>
</linearGradient>
<clipPath id="clip0_2759_1241">
<rect width="78.8495" height="70.0001" fill="white" transform="translate(0.111328 0.0678711)"/>
</clipPath>
</defs>
</svg>
