<?xml version="1.0" encoding="UTF-8"?><svg id="Layer_2" xmlns="http://www.w3.org/2000/svg" viewBox="0 0 180.363 50"><defs><style>.cls-1{fill:#ca3132;}.cls-1,.cls-2,.cls-3,.cls-4{stroke-width:0px;}.cls-1,.cls-4{fill-rule:evenodd;}.cls-2{fill:#565656;}.cls-3{fill:none;}.cls-4{fill:#3174b9;}</style></defs><g id="katman_1"><rect class="cls-3" width="180.363" height="50"/><path class="cls-4" d="M23.924,34.529c.062-.02.107.057.06.102-.284.278-.487.775,1.337.985,3.142.359,4.751.308,8.204-.344.015-.003.03,0,.043.008.133.081.934.561,2.03,1,.051.02.051.092,0,.113-7.616,3.175-17.081-.136-11.675-1.864ZM23,30.184c.061-.022.11.054.065.1-.357.367-.83,1.127,1.123,1.329,3.357.347,6.008.376,10.586-.503.019-.004.04.002.054.016.113.108.645.591,1.44.91.054.022.051.1-.005.116-9.219,2.628-19.352.226-13.263-1.968Z"/><path class="cls-1" d="M31.302,22.704c1.447,1.665.425,3.204-.165,3.86-.047.053.017.13.077.093,1.128-.7,4.043-2.847,2.217-5.419-2.054-2.887-3.637-4.344,4.574-9.18.062-.036.021-.131-.048-.111-2.307.674-12.435,4.098-6.655,10.758Z"/><path class="cls-4" d="M41.591,37.652s1.123.926-1.237,1.643c-4.489,1.36-18.688,1.77-22.633.054-1.417-.617,1.241-1.472,2.078-1.653.506-.109.886-.144,1.116-.153.067-.003.082-.096.018-.118-2.042-.719-9.71,2.338-4.14,3.242,15.859,2.571,28.91-1.158,24.797-3.014h0ZM24.97,25.576s-7.222,1.716-2.557,2.339c1.97.263,5.895.203,9.554-.104,2.287-.192,4.58-.551,5.532-.709.07-.012.1.085.037.115-.374.179-.931.464-1.386.773-.006.004-.012.007-.018.008-7.338,1.926-21.49,1.027-17.413-.944,3.449-1.668,6.253-1.478,6.253-1.478h0ZM37.917,32.837c.006-.013.015-.023.028-.03,7.43-3.87,3.987-7.586,1.583-7.084-.297.062-.512.12-.651.162-.061.018-.105-.056-.061-.101.107-.109.273-.244.497-.323,4.73-1.662,8.374,4.851-1.346,7.502-.054.015-.097-.045-.067-.092.007-.011.013-.022.019-.034Z"/><path class="cls-1" d="M33.431,3.704s4.128,4.131-3.916,10.48c-6.271,4.953-1.741,7.835-.133,11.042.03.061-.045.119-.095.073-3.649-3.313-6.265-6.24-4.449-8.967,2.721-4.086,10.26-6.067,8.594-12.628h0Z"/><path class="cls-4" d="M25.703,43.317c6.972.446,17.586-.219,18.365-3.386.015-.061-.06-.103-.103-.057-.372.399-1.644,1.329-5.77,2.105-5.945,1.119-13.243,1.022-17.747.336-.071-.011-.099.088-.034.116.568.242,2.006.675,5.289.886Z"/><path class="cls-4" d="M23.924,34.529c.062-.02.107.057.06.102-.284.278-.487.775,1.337.985,3.142.359,4.751.308,8.204-.344.015-.003.03,0,.043.008.133.081.934.561,2.03,1,.051.02.051.092,0,.113-7.616,3.175-17.081-.136-11.675-1.864ZM23,30.184c.061-.022.11.054.065.1-.357.367-.83,1.127,1.123,1.329,3.357.347,6.008.376,10.586-.503.019-.004.04.002.054.016.113.108.645.591,1.44.91.054.022.051.1-.005.116-9.219,2.628-19.352.226-13.263-1.968Z"/><path class="cls-1" d="M31.302,22.704c1.447,1.665.425,3.204-.165,3.86-.047.053.017.13.077.093,1.128-.7,4.043-2.847,2.217-5.419-2.054-2.887-3.637-4.344,4.574-9.18.062-.036.021-.131-.048-.111-2.307.674-12.435,4.098-6.655,10.758Z"/><path class="cls-4" d="M41.591,37.652s1.123.926-1.237,1.643c-4.489,1.36-18.688,1.77-22.633.054-1.417-.617,1.241-1.472,2.078-1.653.506-.109.886-.144,1.116-.153.067-.003.082-.096.018-.118-2.042-.719-9.71,2.338-4.14,3.242,15.859,2.571,28.91-1.158,24.797-3.014h0ZM24.97,25.576s-7.222,1.716-2.557,2.339c1.97.263,5.895.203,9.554-.104,2.287-.192,4.58-.551,5.532-.709.07-.012.1.085.037.115-.374.179-.931.464-1.386.773-.006.004-.012.007-.018.008-7.338,1.926-21.49,1.027-17.413-.944,3.449-1.668,6.253-1.478,6.253-1.478h0ZM37.917,32.837c.006-.013.015-.023.028-.03,7.43-3.87,3.987-7.586,1.583-7.084-.297.062-.512.12-.651.162-.061.018-.105-.056-.061-.101.107-.109.273-.244.497-.323,4.73-1.662,8.374,4.851-1.346,7.502-.054.015-.097-.045-.067-.092.007-.011.013-.022.019-.034Z"/><path class="cls-1" d="M33.431,3.704s4.128,4.131-3.916,10.48c-6.271,4.953-1.741,7.835-.133,11.042.03.061-.045.119-.095.073-3.649-3.313-6.265-6.24-4.449-8.967,2.721-4.086,10.26-6.067,8.594-12.628h0Z"/><path class="cls-4" d="M25.703,43.317c6.972.446,17.586-.219,18.365-3.386.015-.061-.06-.103-.103-.057-.372.399-1.644,1.329-5.77,2.105-5.945,1.119-13.243,1.022-17.747.336-.071-.011-.099.088-.034.116.568.242,2.006.675,5.289.886Z"/><path class="cls-2" d="M65.309,21.135v8.82c0,1.225-.354,2.176-1.062,2.854s-1.656,1.017-2.844,1.017c-1.2,0-2.169-.348-2.907-1.044s-1.106-1.668-1.106-2.916h2.52c.012.54.141.96.387,1.26.246.301.604.45,1.071.45.456,0,.804-.144,1.044-.432s.36-.685.36-1.188v-8.82h2.538Z"/><path class="cls-2" d="M73.787,31.306h-5.004l-.828,2.394h-2.646l4.519-12.582h2.934l4.519,12.582h-2.664l-.828-2.394ZM73.102,29.289l-1.817-5.256-1.818,5.256h3.636Z"/><path class="cls-2" d="M88.097,21.135l-4.608,12.564h-3.06l-4.608-12.564h2.7l3.456,9.99,3.438-9.99h2.683Z"/><path class="cls-2" d="M95.153,31.306h-5.004l-.828,2.394h-2.646l4.519-12.582h2.934l4.519,12.582h-2.664l-.828-2.394ZM94.468,29.289l-1.817-5.256-1.818,5.256h3.636Z"/></g></svg>