<?xml version="1.0" encoding="UTF-8"?><svg id="Layer_2" xmlns="http://www.w3.org/2000/svg" viewBox="0 0 180.363 50"><defs><style>.cls-1{fill:#565656;}.cls-1,.cls-2,.cls-3,.cls-4{stroke-width:0px;}.cls-2{fill:none;}.cls-3{fill:#000;}.cls-4{fill:#f7df1e;}</style></defs><g id="katman_1"><rect class="cls-2" width="180.363" height="50"/><path class="cls-4" d="M12.54,10.892h28.411v28.411H12.54V10.892Z"/><path class="cls-3" d="M20.082,34.634l2.174-1.316c.42.744.801,1.373,1.716,1.373.877,0,1.431-.343,1.431-1.678v-9.078h2.67v9.116c0,2.765-1.621,4.024-3.986,4.024-2.136,0-3.376-1.106-4.005-2.441M29.523,34.348l2.174-1.259c.572.935,1.316,1.621,2.632,1.621,1.106,0,1.812-.553,1.812-1.316,0-.915-.725-1.24-1.945-1.773l-.667-.286c-1.926-.82-3.204-1.85-3.204-4.024,0-2.003,1.526-3.528,3.91-3.528,1.697,0,2.918.591,3.795,2.136l-2.079,1.335c-.458-.82-.953-1.144-1.716-1.144-.782,0-1.278.496-1.278,1.144,0,.801.496,1.125,1.64,1.621l.667.286c2.27.973,3.547,1.964,3.547,4.195,0,2.403-1.888,3.719-4.424,3.719-2.479,0-4.081-1.182-4.863-2.727"/><path class="cls-1" d="M64.347,18.525v8.82c0,1.225-.354,2.176-1.062,2.854s-1.656,1.017-2.844,1.017c-1.2,0-2.169-.348-2.907-1.044s-1.106-1.668-1.106-2.916h2.52c.012.54.141.96.387,1.26.246.301.604.45,1.071.45.456,0,.804-.144,1.044-.432s.36-.685.36-1.188v-8.82h2.538Z"/><path class="cls-1" d="M67.236,23.385c.401-.78.947-1.38,1.638-1.8s1.461-.63,2.313-.63c.743,0,1.395.15,1.952.45.559.3,1.005.678,1.342,1.134v-1.422h2.538v9.972h-2.538v-1.458c-.324.468-.771.855-1.342,1.161-.569.306-1.227.459-1.971.459-.84,0-1.604-.216-2.295-.648-.69-.432-1.236-1.041-1.638-1.827-.402-.785-.604-1.688-.604-2.709,0-1.008.201-1.901.604-2.682ZM74.121,24.529c-.24-.438-.564-.774-.972-1.009-.408-.233-.847-.351-1.314-.351s-.899.114-1.296.342c-.396.229-.717.562-.963.999-.246.438-.369.957-.369,1.557s.123,1.125.369,1.575.569.795.972,1.035.831.36,1.287.36c.468,0,.906-.117,1.314-.352.407-.233.731-.569.972-1.008.24-.438.36-.963.36-1.575s-.12-1.137-.36-1.574Z"/><path class="cls-1" d="M83.643,28.767l2.52-7.649h2.682l-3.689,9.972h-3.061l-3.672-9.972h2.7l2.521,7.649Z"/><path class="cls-1" d="M90.222,23.385c.401-.78.947-1.38,1.638-1.8s1.461-.63,2.313-.63c.743,0,1.395.15,1.952.45.559.3,1.005.678,1.342,1.134v-1.422h2.538v9.972h-2.538v-1.458c-.324.468-.771.855-1.342,1.161-.569.306-1.227.459-1.971.459-.84,0-1.604-.216-2.295-.648-.69-.432-1.236-1.041-1.638-1.827-.402-.785-.604-1.688-.604-2.709,0-1.008.201-1.901.604-2.682ZM97.107,24.529c-.24-.438-.564-.774-.972-1.009-.408-.233-.847-.351-1.314-.351s-.899.114-1.296.342c-.396.229-.717.562-.963.999-.246.438-.369.957-.369,1.557s.123,1.125.369,1.575.569.795.972,1.035.831.36,1.287.36c.468,0,.906-.117,1.314-.352.407-.233.731-.569.972-1.008.24-.438.36-.963.36-1.575s-.12-1.137-.36-1.574Z"/><path class="cls-1" d="M104.441,30.765c-.702-.3-1.257-.731-1.665-1.296-.408-.563-.618-1.229-.63-1.998h2.7c.036.517.219.925.549,1.225s.783.449,1.359.449c.588,0,1.05-.141,1.386-.423.336-.281.504-.65.504-1.106,0-.372-.114-.678-.342-.918-.229-.24-.514-.43-.855-.567s-.812-.291-1.413-.459c-.815-.24-1.479-.477-1.988-.711-.511-.234-.948-.588-1.314-1.062-.366-.474-.549-1.106-.549-1.898,0-.744.186-1.392.558-1.944.372-.552.895-.975,1.566-1.269s1.439-.441,2.304-.441c1.296,0,2.35.315,3.159.945s1.257,1.509,1.341,2.637h-2.771c-.024-.432-.207-.789-.55-1.071-.342-.281-.795-.423-1.358-.423-.492,0-.885.126-1.179.378-.295.252-.441.618-.441,1.099,0,.336.11.615.333.837.222.222.498.402.828.54s.795.297,1.395.477c.816.24,1.482.48,1.998.72.516.24.96.601,1.332,1.08.372.48.559,1.11.559,1.891,0,.672-.175,1.296-.522,1.872-.348.575-.858,1.035-1.53,1.377s-1.47.513-2.394.513c-.876,0-1.665-.149-2.367-.45Z"/><path class="cls-1" d="M113.414,23.394c.42-.773,1.002-1.374,1.746-1.8s1.596-.639,2.557-.639c1.235,0,2.259.309,3.068.927.811.618,1.354,1.485,1.629,2.601h-2.718c-.144-.432-.387-.771-.729-1.017-.343-.246-.766-.369-1.27-.369-.72,0-1.29.261-1.71.783s-.63,1.263-.63,2.223c0,.948.21,1.684.63,2.205.42.522.99.783,1.71.783,1.02,0,1.686-.456,1.998-1.368h2.718c-.275,1.08-.821,1.938-1.638,2.574s-1.836.954-3.06.954c-.961,0-1.812-.213-2.557-.639s-1.326-1.026-1.746-1.801c-.42-.773-.63-1.677-.63-2.709s.21-1.935.63-2.709Z"/><path class="cls-1" d="M128.057,21.423c.521-.3,1.118-.45,1.791-.45v2.646h-.666c-.792,0-1.39.186-1.791.558-.402.372-.604,1.021-.604,1.944v4.968h-2.52v-9.972h2.52v1.548c.324-.528.747-.942,1.27-1.242Z"/><path class="cls-1" d="M131.711,19.506c-.294-.282-.441-.633-.441-1.053s.147-.771.441-1.054c.294-.281.663-.423,1.106-.423s.813.142,1.107.423c.294.282.441.634.441,1.054s-.147.771-.441,1.053-.663.423-1.107.423-.812-.141-1.106-.423ZM134.06,21.118v9.972h-2.52v-9.972h2.52Z"/><path class="cls-1" d="M140.405,21.415c.57-.307,1.222-.459,1.953-.459.853,0,1.623.21,2.313.63.689.42,1.235,1.017,1.638,1.791.402.773.604,1.671.604,2.69s-.201,1.924-.604,2.709c-.402.786-.948,1.396-1.638,1.827-.69.433-1.461.648-2.313.648-.731,0-1.377-.15-1.935-.45s-1.011-.678-1.359-1.134v6.174h-2.52v-14.724h2.52v1.439c.324-.456.771-.837,1.341-1.143ZM143.969,24.51c-.246-.438-.57-.771-.972-.999-.402-.228-.837-.342-1.306-.342-.456,0-.885.117-1.287.351-.401.234-.726.573-.972,1.018s-.369.966-.369,1.565.123,1.122.369,1.566.57.783.972,1.017c.402.234.831.352,1.287.352.469,0,.903-.12,1.306-.36.401-.24.726-.582.972-1.026.246-.443.369-.972.369-1.584,0-.6-.123-1.118-.369-1.557Z"/><path class="cls-1" d="M151.682,23.187v4.824c0,.336.081.579.243.729.162.149.435.225.819.225h1.17v2.124h-1.584c-2.124,0-3.187-1.032-3.187-3.096v-4.807h-1.188v-2.069h1.188v-2.467h2.538v2.467h2.232v2.069h-2.232Z"/></g></svg>