<?xml version="1.0" encoding="UTF-8"?><svg id="Layer_2" xmlns="http://www.w3.org/2000/svg" viewBox="0 0 180.363 50"><defs><style>.cls-1{fill:#565656;}.cls-1,.cls-2,.cls-3{stroke-width:0px;}.cls-2{fill:none;}.cls-3{fill:#5d87a1;}</style></defs><g id="katman_1"><rect class="cls-2" width="180.363" height="50"/><path class="cls-3" d="M42.845,34.49c-1.732-.041-3.074.121-4.199.565-.325.121-.842.121-.887.503.176.162.196.423.348.646.26.403.712.945,1.125,1.227.454.324.909.644,1.386.926.842.485,1.796.767,2.616,1.25.478.281.953.644,1.432.947.235.161.386.423.691.524v-.061c-.153-.181-.196-.443-.346-.645l-.65-.584c-.628-.785-1.408-1.471-2.25-2.034-.693-.444-2.209-1.048-2.49-1.792l-.044-.041c.476-.042,1.041-.202,1.494-.326.736-.181,1.408-.14,2.163-.32.348-.081.692-.182,1.041-.282v-.182c-.392-.363-.671-.845-1.083-1.188-1.102-.886-2.316-1.753-3.571-2.478-.672-.404-1.536-.664-2.252-1.007-.258-.121-.692-.181-.844-.383-.388-.443-.607-1.027-.888-1.552-.626-1.107-1.233-2.336-1.773-3.507-.39-.785-.628-1.569-1.104-2.296-2.231-3.425-4.653-5.499-8.376-7.535-.8-.424-1.752-.605-2.769-.827l-1.624-.08c-.346-.141-.693-.525-.996-.706-1.235-.725-4.415-2.296-5.324-.222-.585,1.311.866,2.6,1.364,3.265.368.462.845.987,1.102,1.511.152.342.195.706.348,1.068.346.887.67,1.873,1.126,2.7.238.422.497.865.8,1.247.174.223.476.322.542.686-.302.401-.326,1.007-.499,1.511-.779,2.276-.474,5.097.629,6.769.345.504,1.169,1.613,2.271,1.188.976-.362.76-1.511,1.04-2.518.064-.243.022-.403.152-.563v.039c.302.564.607,1.107.886,1.672.671.986,1.841,2.014,2.815,2.698.519.365.929.988,1.579,1.211v-.06h-.043c-.132-.181-.324-.262-.497-.402-.39-.363-.823-.806-1.126-1.209-.907-1.129-1.71-2.378-2.423-3.668-.349-.626-.649-1.309-.93-1.934-.131-.241-.131-.605-.348-.726-.326.443-.8.826-1.038,1.369-.412.868-.455,1.935-.608,3.045l-.085.039c-.689-.161-.929-.825-1.191-1.389-.648-1.431-.757-3.729-.195-5.38.151-.422.802-1.752.542-2.155-.13-.386-.564-.605-.801-.909-.279-.382-.585-.865-.78-1.289-.519-1.128-.78-2.377-1.339-3.504-.261-.525-.715-1.069-1.082-1.553-.413-.544-.866-.927-1.192-1.571-.108-.222-.259-.584-.086-.825.042-.162.13-.222.303-.263.28-.221,1.082.06,1.363.181.802.302,1.473.584,2.143,1.007.303.202.628.585,1.017.686h.455c.691.14,1.47.039,2.121.221,1.147.343,2.185.846,3.117,1.389,2.835,1.673,5.173,4.051,6.751,6.891.259.463.369.887.605,1.369.456.988,1.02,1.995,1.472,2.962.455.946.888,1.913,1.538,2.699.324.423,1.625.644,2.209.866.432.181,1.104.341,1.493.563.736.422,1.47.907,2.162,1.371.345.242,1.428.745,1.492,1.149M20.768,16.982c-.299-.003-.597.031-.886.101v.04h.042c.174.322.477.545.693.826.174.323.326.643.497.966l.042-.04c.305-.201.457-.524.457-1.007-.132-.142-.152-.282-.261-.423-.127-.202-.408-.302-.583-.464"/><path class="cls-1" d="M71.681,18.311v12.564h-2.521v-8.172l-3.366,8.172h-1.907l-3.385-8.172v8.172h-2.52v-12.564h2.861l3.996,9.343,3.996-9.343h2.845Z"/><path class="cls-1" d="M83.705,20.904l-6.174,14.688h-2.683l2.16-4.968-3.996-9.72h2.826l2.574,6.966,2.609-6.966h2.683Z"/><path class="cls-1" d="M87.025,30.551c-.702-.3-1.257-.731-1.665-1.296-.408-.563-.618-1.229-.63-1.998h2.7c.036.517.219.925.549,1.225s.783.449,1.359.449c.588,0,1.05-.141,1.386-.423.336-.281.504-.65.504-1.106,0-.372-.114-.678-.342-.918-.229-.24-.514-.43-.855-.567s-.812-.291-1.413-.459c-.815-.24-1.479-.477-1.988-.711-.511-.234-.948-.588-1.314-1.062-.366-.474-.549-1.106-.549-1.898,0-.744.186-1.392.558-1.944.372-.552.895-.975,1.566-1.269s1.439-.441,2.304-.441c1.296,0,2.35.315,3.159.945s1.257,1.509,1.341,2.637h-2.771c-.024-.432-.207-.789-.55-1.071-.342-.281-.795-.423-1.358-.423-.492,0-.885.126-1.179.378-.295.252-.441.618-.441,1.099,0,.336.11.615.333.837.222.222.498.402.828.54s.795.297,1.395.477c.816.24,1.482.48,1.998.72.516.24.96.601,1.332,1.08.372.48.559,1.11.559,1.891,0,.672-.175,1.296-.522,1.872-.348.575-.858,1.035-1.53,1.377s-1.47.513-2.394.513c-.876,0-1.665-.149-2.367-.45Z"/><path class="cls-1" d="M105.376,33.09l-1.907-2.286c-.528.132-1.068.198-1.62.198-1.177,0-2.257-.276-3.24-.828-.984-.552-1.764-1.316-2.34-2.295-.576-.978-.864-2.085-.864-3.321,0-1.224.288-2.324.864-3.303.576-.978,1.355-1.743,2.34-2.295.983-.552,2.063-.828,3.24-.828,1.188,0,2.271.276,3.249.828.978.552,1.752,1.317,2.321,2.295.57.979.855,2.079.855,3.303,0,1.116-.237,2.134-.711,3.052-.475.918-1.119,1.665-1.936,2.24l2.881,3.24h-3.133ZM98.482,26.772c.324.636.776,1.125,1.359,1.467.581.342,1.251.513,2.007.513s1.422-.171,1.998-.513,1.025-.831,1.35-1.467c.324-.637.486-1.374.486-2.215s-.162-1.574-.486-2.205c-.324-.63-.773-1.112-1.35-1.448s-1.242-.504-1.998-.504-1.426.168-2.007.504c-.583.336-1.035.818-1.359,1.448-.324.631-.486,1.365-.486,2.205s.162,1.578.486,2.215Z"/><path class="cls-1" d="M112.702,28.878h4.141v1.998h-6.66v-12.564h2.52v10.566Z"/></g></svg>