<svg width="143" height="112" viewBox="0 0 143 112" fill="none" xmlns="http://www.w3.org/2000/svg">
<g id="python 1">
<path id="Vector" d="M71.2019 35.4722C53.1768 35.4722 54.3017 43.1577 54.3017 43.1577L54.3238 51.1202H71.5236V53.509H47.4879C47.4879 53.509 35.957 52.2219 35.957 70.106C35.957 87.9857 46.0235 87.3531 46.0235 87.3531H52.0319V79.0546C52.0319 79.0546 51.7079 69.157 61.9386 69.157H78.9963C78.9963 69.157 88.5813 69.3097 88.5813 60.0492V44.7371C88.5813 44.7371 90.0368 35.4722 71.2019 35.4722ZM61.7167 40.8256C63.4274 40.8256 64.8119 42.1869 64.8119 43.8688C64.8119 45.5508 63.4274 46.9121 61.7167 46.9121C61.3101 46.9126 60.9074 46.8343 60.5316 46.6816C60.1558 46.5288 59.8143 46.3047 59.5268 46.022C59.2393 45.7393 59.0113 45.4036 58.856 45.0341C58.7006 44.6646 58.621 44.2686 58.6216 43.8688C58.6216 42.1869 60.0061 40.8256 61.7167 40.8256Z" fill="url(#paint0_linear_2759_1209)"/>
<path id="Vector_2" d="M71.7122 104.917C89.7373 104.917 88.6124 97.2312 88.6124 97.2312L88.5902 89.2686H71.3905V86.8798H95.424C95.424 86.8798 106.957 88.1669 106.957 70.285C106.957 52.4031 96.8906 53.0379 96.8906 53.0379H90.8822V61.3343C90.8822 61.3343 91.2061 71.2318 80.9755 71.2318H63.9177C63.9177 71.2318 54.3327 71.0791 54.3327 80.3397V95.6517C54.3327 95.6517 52.8772 104.917 71.7122 104.917ZM81.1973 99.5632C80.7907 99.5638 80.388 99.4855 80.0122 99.3327C79.6364 99.18 79.295 98.9558 79.0074 98.6731C78.7199 98.3904 78.4919 98.0547 78.3366 97.6852C78.1813 97.3158 78.1016 96.9198 78.1022 96.52C78.1022 94.8402 79.4867 93.4789 81.1973 93.4789C82.908 93.4789 84.2925 94.838 84.2925 96.52C84.2925 98.2041 82.908 99.5632 81.1973 99.5632Z" fill="url(#paint1_linear_2759_1209)"/>
</g>
<defs>
<linearGradient id="paint0_linear_2759_1209" x1="42.7797" y1="41.5412" x2="77.291" y2="76.759" gradientUnits="userSpaceOnUse">
<stop stop-color="#387EB8"/>
<stop offset="1" stop-color="#366994"/>
</linearGradient>
<linearGradient id="paint1_linear_2759_1209" x1="64.377" y1="63.5747" x2="101.471" y2="99.7192" gradientUnits="userSpaceOnUse">
<stop stop-color="#FFE052"/>
<stop offset="1" stop-color="#FFC331"/>
</linearGradient>
</defs>
</svg>
