<svg width="37" height="38" viewBox="0 0 37 38" fill="none" xmlns="http://www.w3.org/2000/svg">
<g id="Group 61">
<ellipse id="Ellipse 52" cx="18.5" cy="18.022" rx="10.6875" ry="9.25" fill="white"/>
<path id="Vector" d="M36.1192 16.5075L33.5344 13.5536C32.9806 12.9997 32.6113 11.892 32.6113 11.1535V8.1995C32.6113 6.16864 30.9497 4.69166 29.1035 4.69166H25.9649C25.2264 4.69166 24.1187 4.32242 23.5648 3.76855L20.6108 1.18383C19.3185 0.0760931 17.2876 0.0760931 15.9953 1.18383L13.2259 3.76855C12.6721 4.32242 11.5643 4.69166 10.8258 4.69166H7.68724C5.65639 4.69166 4.1794 6.35327 4.1794 8.1995V11.3381C4.1794 12.0766 3.81016 13.1843 3.25629 13.7382L0.856193 16.6921C-0.251544 17.9845 -0.251544 20.0154 0.856193 21.3077L3.25629 24.2617C3.81016 24.8155 4.1794 25.9233 4.1794 26.6618V29.8004C4.1794 31.8312 5.84101 33.3082 7.68724 33.3082H10.8258C11.5643 33.3082 12.6721 33.6774 13.2259 34.2313L16.1799 36.816C17.4722 37.9238 19.5031 37.9238 20.7955 36.816L23.7494 34.2313C24.3033 33.6774 25.411 33.3082 26.1495 33.3082H29.2881C31.319 33.3082 32.7959 31.6466 32.7959 29.8004V26.6618C32.7959 25.9233 33.1652 24.8155 33.7191 24.2617L36.3038 21.3077C37.2269 20.0154 37.2269 17.7999 36.1192 16.5075ZM26.1495 15.3998L17.2876 24.2617C17.103 24.4463 16.7338 24.6309 16.3645 24.6309C15.9953 24.6309 15.626 24.4463 15.4414 24.2617L11.0104 19.8307C10.4566 19.2769 10.4566 18.3538 11.0104 17.7999C11.5643 17.246 12.4874 17.246 13.0413 17.7999L16.5491 21.3077L24.1187 13.3689C24.6725 12.8151 25.5956 12.8151 26.1495 13.3689C26.7034 13.9228 26.7034 14.8459 26.1495 15.3998Z" fill="#F46F16"/>
</g>
</svg>
