<?xml version="1.0" encoding="UTF-8"?><svg id="Layer_2" xmlns="http://www.w3.org/2000/svg" viewBox="0 0 180.363 50"><defs><style>.cls-1{fill:#565656;}.cls-1,.cls-2,.cls-3{stroke-width:0px;}.cls-2{fill:none;}.cls-3{fill:#00d8ff;}</style></defs><g id="katman_1"><rect class="cls-2" width="180.363" height="50"/><path class="cls-3" d="M39.913,19.734c-.337-.116-.686-.226-1.046-.33.059-.241.113-.479.162-.713.792-3.842.274-6.938-1.493-7.957-1.695-.977-4.466.042-7.265,2.478-.269.234-.539.482-.809.742-.18-.172-.359-.338-.538-.497-2.933-2.605-5.874-3.702-7.639-2.68-1.693.98-2.194,3.89-1.482,7.532.069.352.149.711.24,1.076-.416.118-.818.244-1.202.378-3.439,1.199-5.636,3.078-5.636,5.028,0,2.013,2.358,4.032,5.94,5.257.283.097.576.188.878.275-.098.395-.183.782-.255,1.16-.679,3.578-.149,6.42,1.54,7.394,1.744,1.006,4.671-.028,7.521-2.519.225-.197.451-.406.678-.625.294.283.587.55.878.801,2.761,2.376,5.488,3.335,7.174,2.358,1.742-1.009,2.309-4.061,1.573-7.774-.056-.284-.121-.573-.195-.868.206-.061.407-.124.604-.189,3.724-1.234,6.147-3.229,6.147-5.269,0-1.956-2.267-3.848-5.776-5.056h0ZM39.105,28.741c-.178.059-.36.116-.546.171-.411-1.302-.966-2.685-1.645-4.115.648-1.396,1.181-2.762,1.581-4.055.332.096.655.198.966.305,3.006,1.035,4.84,2.565,4.84,3.744,0,1.256-1.98,2.886-5.196,3.951h0ZM37.771,31.385c.325,1.642.372,3.127.156,4.287-.193,1.043-.583,1.738-1.064,2.017-1.024.593-3.213-.178-5.574-2.209-.271-.233-.543-.482-.817-.745.915-1.001,1.83-2.165,2.723-3.457,1.57-.139,3.054-.367,4.4-.678.066.267.125.529.176.786h0ZM24.279,37.586c-1,.353-1.797.363-2.278.086-1.025-.591-1.451-2.872-.87-5.933.067-.35.146-.71.237-1.078,1.331.294,2.804.506,4.378.634.899,1.265,1.84,2.427,2.789,3.445-.207.2-.414.391-.619.57-1.26,1.102-2.523,1.883-3.636,2.276h0ZM19.593,28.733c-1.584-.541-2.892-1.245-3.789-2.013-.806-.69-1.212-1.375-1.212-1.931,0-1.183,1.764-2.692,4.705-3.717.357-.124.73-.242,1.118-.352.406,1.322.94,2.705,1.583,4.103-.652,1.419-1.193,2.823-1.603,4.161-.276-.079-.544-.163-.802-.251h0ZM21.164,18.042c-.61-3.12-.205-5.474.815-6.064,1.087-.629,3.49.268,6.023,2.517.162.144.324.294.487.45-.944,1.013-1.876,2.167-2.767,3.425-1.528.142-2.99.369-4.335.674-.085-.34-.159-.674-.223-1.001h0ZM35.176,21.502c-.321-.555-.651-1.097-.988-1.625,1.036.131,2.03.305,2.962.518-.28.897-.629,1.835-1.04,2.797-.295-.559-.606-1.123-.935-1.69h0ZM29.462,15.936c.64.693,1.281,1.468,1.912,2.308-.635-.03-1.279-.046-1.927-.046-.642,0-1.281.015-1.912.045.631-.832,1.278-1.605,1.928-2.307h0ZM23.711,21.511c-.321.557-.627,1.118-.917,1.68-.404-.958-.75-1.901-1.032-2.811.927-.207,1.915-.377,2.945-.506-.341.532-.674,1.078-.996,1.636h0ZM24.737,29.804c-1.064-.119-2.067-.28-2.994-.481.287-.926.64-1.889,1.053-2.868.291.562.598,1.123.921,1.681h0c.329.568.67,1.125,1.02,1.668h0ZM29.5,33.741c-.658-.71-1.314-1.495-1.955-2.339.622.024,1.256.037,1.901.037.662,0,1.317-.015,1.961-.044-.633.86-1.271,1.646-1.907,2.346h0ZM36.124,26.405c.434.99.8,1.947,1.091,2.858-.942.215-1.959.388-3.03.517.337-.534.67-1.086.997-1.653.331-.574.645-1.149.942-1.721h0ZM33.98,27.433c-.508.88-1.029,1.721-1.558,2.514-.964.069-1.96.104-2.975.104s-1.994-.031-2.941-.093c-.551-.804-1.083-1.647-1.588-2.518h0c-.503-.869-.966-1.746-1.386-2.617.42-.874.881-1.751,1.382-2.619h0c.502-.87,1.03-1.709,1.575-2.507.966-.073,1.957-.111,2.958-.111h0c1.006,0,1.998.038,2.963.112.537.793,1.062,1.629,1.565,2.499.509.88.977,1.751,1.4,2.606-.422.87-.889,1.75-1.396,2.629h0ZM36.842,11.936c1.088.627,1.511,3.157.827,6.475-.044.212-.093.427-.146.646-1.348-.311-2.811-.542-4.343-.686-.893-1.271-1.818-2.427-2.746-3.427.25-.24.499-.469.747-.685,2.398-2.087,4.64-2.911,5.661-2.322h0ZM29.446,21.889c1.602,0,2.901,1.299,2.901,2.901s-1.299,2.901-2.901,2.901-2.901-1.299-2.901-2.901,1.299-2.901,2.901-2.901h0Z"/><path class="cls-1" d="M63.501,30.724l-2.771-4.896h-1.188v4.896h-2.52v-12.564h4.716c.972,0,1.8.172,2.484.514.684.342,1.196.804,1.539,1.386.342.582.513,1.233.513,1.953,0,.828-.24,1.575-.72,2.241-.48.666-1.194,1.125-2.143,1.377l3.006,5.094h-2.916ZM59.541,23.937h2.106c.684,0,1.193-.165,1.53-.495.335-.33.504-.789.504-1.377,0-.576-.169-1.022-.504-1.341-.337-.317-.847-.477-1.53-.477h-2.106v3.689Z"/><path class="cls-1" d="M77.757,26.493h-7.29c.06.721.312,1.284.756,1.692.443.408.99.612,1.638.612.937,0,1.603-.402,1.998-1.206h2.718c-.288.96-.84,1.749-1.656,2.367-.815.618-1.817.927-3.006.927-.96,0-1.82-.213-2.583-.639-.762-.426-1.355-1.029-1.781-1.81-.427-.779-.64-1.68-.64-2.7,0-1.031.21-1.938.63-2.718s1.009-1.38,1.765-1.8,1.626-.63,2.609-.63c.948,0,1.797.204,2.547.611.75.408,1.332.987,1.746,1.737s.621,1.611.621,2.583c0,.36-.023.685-.071.972ZM75.219,24.802c-.013-.648-.246-1.167-.702-1.557-.456-.391-1.015-.586-1.674-.586-.624,0-1.149.189-1.575.567s-.688.903-.783,1.575h4.734Z"/><path class="cls-1" d="M79.62,23.019c.401-.78.947-1.38,1.638-1.8s1.461-.63,2.313-.63c.743,0,1.395.15,1.952.45.559.3,1.005.678,1.342,1.134v-1.422h2.538v9.972h-2.538v-1.458c-.324.468-.771.855-1.342,1.161-.569.306-1.227.459-1.971.459-.84,0-1.604-.216-2.295-.648-.69-.432-1.236-1.041-1.638-1.827-.402-.785-.604-1.688-.604-2.709,0-1.008.201-1.901.604-2.682ZM86.504,24.163c-.24-.438-.564-.774-.972-1.009-.408-.233-.847-.351-1.314-.351s-.899.114-1.296.342c-.396.229-.717.562-.963.999-.246.438-.369.957-.369,1.557s.123,1.125.369,1.575.569.795.972,1.035.831.36,1.287.36c.468,0,.906-.117,1.314-.352.407-.233.731-.569.972-1.008.24-.438.36-.963.36-1.575s-.12-1.137-.36-1.574Z"/><path class="cls-1" d="M91.85,23.028c.42-.773,1.002-1.374,1.746-1.8s1.596-.639,2.557-.639c1.235,0,2.259.309,3.068.927.811.618,1.354,1.485,1.629,2.601h-2.718c-.144-.432-.387-.771-.729-1.017-.343-.246-.766-.369-1.27-.369-.72,0-1.29.261-1.71.783s-.63,1.263-.63,2.223c0,.948.21,1.684.63,2.205.42.522.99.783,1.71.783,1.02,0,1.686-.456,1.998-1.368h2.718c-.275,1.08-.821,1.938-1.638,2.574s-1.836.954-3.06.954c-.961,0-1.812-.213-2.557-.639s-1.326-1.026-1.746-1.801c-.42-.773-.63-1.677-.63-2.709s.21-1.935.63-2.709Z"/><path class="cls-1" d="M105.638,22.821v4.824c0,.336.081.579.243.729.162.149.435.225.819.225h1.17v2.124h-1.584c-2.124,0-3.187-1.032-3.187-3.096v-4.807h-1.188v-2.069h1.188v-2.467h2.538v2.467h2.232v2.069h-2.232Z"/></g></svg>