<?xml version="1.0" encoding="UTF-8"?><svg id="Layer_2" xmlns="http://www.w3.org/2000/svg" viewBox="0 0 180.363 50"><defs><style>.cls-1{fill:#565656;}.cls-1,.cls-2,.cls-3{stroke-width:0px;}.cls-2{fill:none;}.cls-3{fill:#6db33f;}</style></defs><g id="katman_1"><rect class="cls-2" width="180.363" height="50"/><path class="cls-3" d="M46.258,23.436l-6.258-10.838c-.884-1.528-2.529-2.48-4.297-2.48h-12.515c-1.767,0-3.413.951-4.297,2.48l-6.258,10.838c-.884,1.528-.884,3.431,0,4.959l6.258,10.838c.884,1.533,2.529,2.48,4.297,2.48h12.515c1.767,0,3.413-.947,4.297-2.48l6.258-10.838c.884-1.528.884-3.431,0-4.959ZM36.155,32.114c-1.614,1.79-3.828,2.845-6.235,2.971-.162.009-.32.014-.482.014-2.232,0-4.355-.812-6.028-2.317-3.697-3.327-3.999-9.044-.667-12.745.257-.284.532-.555.825-.802.564-.487,1.416-.424,1.907.144.487.564.419,1.42-.149,1.907-.198.171-.392.361-.573.564-2.331,2.588-2.123,6.591.469,8.922,1.253,1.132,2.867,1.704,4.558,1.614,1.686-.09,3.237-.83,4.364-2.083,2.331-2.588,2.119-6.591-.469-8.922-.555-.5-.6-1.357-.099-1.912.5-.555,1.353-.6,1.912-.099,3.697,3.327,3.994,9.044.667,12.745ZM28.094,25.451v-7.646c0-.748.609-1.353,1.353-1.353.748,0,1.353.604,1.353,1.353v7.646c0,.744-.604,1.353-1.353,1.353-.37,0-.712-.153-.956-.397-.243-.243-.397-.586-.397-.956Z"/><path class="cls-1" d="M58.992,31.236c-.702-.3-1.257-.731-1.665-1.296-.408-.563-.618-1.229-.63-1.998h2.7c.036.517.219.925.549,1.225s.783.449,1.359.449c.588,0,1.05-.141,1.386-.423.336-.281.504-.65.504-1.106,0-.372-.114-.678-.342-.918-.229-.24-.514-.43-.855-.567s-.812-.291-1.413-.459c-.815-.24-1.479-.477-1.988-.711-.511-.234-.948-.588-1.314-1.062-.366-.474-.549-1.106-.549-1.898,0-.744.186-1.392.558-1.944.372-.552.895-.975,1.566-1.269s1.439-.441,2.304-.441c1.296,0,2.35.315,3.159.945s1.257,1.509,1.341,2.637h-2.771c-.024-.432-.207-.789-.55-1.071-.342-.281-.795-.423-1.358-.423-.492,0-.885.126-1.179.378-.295.252-.441.618-.441,1.099,0,.336.11.615.333.837.222.222.498.402.828.54s.795.297,1.395.477c.816.24,1.482.48,1.998.72.516.24.96.601,1.332,1.08.372.48.559,1.11.559,1.891,0,.672-.175,1.296-.522,1.872-.348.575-.858,1.035-1.53,1.377s-1.47.513-2.394.513c-.876,0-1.665-.149-2.367-.45Z"/><path class="cls-1" d="M71.843,21.885c.57-.307,1.222-.459,1.953-.459.853,0,1.623.21,2.313.63.689.42,1.235,1.017,1.638,1.791.402.773.604,1.671.604,2.69s-.201,1.924-.604,2.709c-.402.786-.948,1.396-1.638,1.827-.69.433-1.461.648-2.313.648-.731,0-1.377-.15-1.935-.45s-1.011-.678-1.359-1.134v6.174h-2.52v-14.724h2.52v1.439c.324-.456.771-.837,1.341-1.143ZM75.408,24.981c-.246-.438-.57-.771-.972-.999-.402-.228-.837-.342-1.306-.342-.456,0-.885.117-1.287.351-.401.234-.726.573-.972,1.018s-.369.966-.369,1.565.123,1.122.369,1.566.57.783.972,1.017c.402.234.831.352,1.287.352.469,0,.903-.12,1.306-.36.401-.24.726-.582.972-1.026.246-.443.369-.972.369-1.584,0-.6-.123-1.118-.369-1.557Z"/><path class="cls-1" d="M83.976,21.894c.521-.3,1.118-.45,1.791-.45v2.646h-.666c-.792,0-1.39.186-1.791.558-.402.372-.604,1.021-.604,1.944v4.968h-2.52v-9.972h2.52v1.548c.324-.528.747-.942,1.27-1.242Z"/><path class="cls-1" d="M87.629,19.977c-.294-.282-.441-.633-.441-1.053s.147-.771.441-1.054c.294-.281.663-.423,1.106-.423s.813.142,1.107.423c.294.282.441.634.441,1.054s-.147.771-.441,1.053-.663.423-1.107.423-.812-.141-1.106-.423ZM89.978,21.588v9.972h-2.52v-9.972h2.52Z"/><path class="cls-1" d="M100.869,22.569c.731.75,1.098,1.798,1.098,3.142v5.85h-2.521v-5.508c0-.792-.197-1.401-.594-1.827-.396-.426-.936-.639-1.62-.639-.696,0-1.245.213-1.646.639-.402.426-.604,1.035-.604,1.827v5.508h-2.52v-9.972h2.52v1.241c.336-.432.766-.771,1.287-1.017.522-.246,1.095-.369,1.719-.369,1.188,0,2.148.375,2.881,1.125Z"/><path class="cls-1" d="M110.229,21.866c.563.295,1.008.676,1.332,1.144v-1.422h2.538v10.044c0,.924-.187,1.749-.559,2.475s-.93,1.302-1.674,1.729c-.744.426-1.645.639-2.7.639-1.416,0-2.577-.33-3.482-.99-.906-.66-1.42-1.56-1.539-2.7h2.502c.132.456.416.819.854,1.09.438.27.969.404,1.593.404.732,0,1.326-.219,1.782-.657.456-.438.685-1.101.685-1.988v-1.548c-.324.468-.771.857-1.342,1.17-.569.312-1.221.468-1.952.468-.841,0-1.608-.216-2.305-.648-.696-.432-1.245-1.041-1.646-1.827-.402-.785-.604-1.688-.604-2.709,0-1.008.201-1.901.604-2.682.401-.78.947-1.38,1.638-1.8s1.461-.63,2.313-.63c.743,0,1.397.146,1.962.44ZM111.201,24.999c-.24-.438-.564-.774-.972-1.009-.408-.233-.847-.351-1.314-.351s-.899.114-1.296.342c-.396.229-.717.562-.963.999-.246.438-.369.957-.369,1.557s.123,1.125.369,1.575.569.795.972,1.035.831.36,1.287.36c.468,0,.906-.117,1.314-.352.407-.233.731-.569.972-1.008.24-.438.36-.963.36-1.575s-.12-1.137-.36-1.574Z"/><path class="cls-1" d="M124.709,21.876c.57-.3,1.222-.45,1.953-.45.853,0,1.623.21,2.313.63.689.42,1.235,1.017,1.638,1.791.402.773.604,1.671.604,2.69s-.201,1.924-.604,2.709c-.402.786-.948,1.396-1.638,1.827-.69.433-1.461.648-2.313.648-.744,0-1.395-.147-1.953-.441-.558-.294-1.005-.675-1.341-1.143v1.422h-2.52v-13.32h2.52v4.807c.324-.48.771-.87,1.341-1.17ZM128.273,24.981c-.246-.438-.57-.771-.972-.999-.402-.228-.837-.342-1.306-.342-.456,0-.885.117-1.287.351-.401.234-.726.573-.972,1.018s-.369.966-.369,1.565.123,1.122.369,1.566.57.783.972,1.017c.402.234.831.352,1.287.352.469,0,.903-.12,1.306-.36.401-.24.726-.582.972-1.026.246-.443.369-.972.369-1.584,0-.6-.123-1.118-.369-1.557Z"/><path class="cls-1" d="M134.888,31.083c-.769-.426-1.371-1.029-1.81-1.81-.438-.779-.656-1.68-.656-2.7s.225-1.92.675-2.699c.45-.78,1.064-1.384,1.845-1.81s1.65-.639,2.61-.639,1.83.213,2.609.639c.78.426,1.396,1.029,1.846,1.81.45.779.675,1.68.675,2.699s-.231,1.921-.693,2.7c-.462.78-1.086,1.384-1.872,1.81s-1.665.639-2.637.639c-.96,0-1.824-.213-2.592-.639ZM138.767,29.193c.402-.222.723-.555.963-.999.24-.443.36-.983.36-1.62,0-.947-.249-1.677-.747-2.187s-1.107-.766-1.827-.766-1.323.256-1.809.766c-.486.51-.729,1.239-.729,2.187s.237,1.678.711,2.188,1.071.765,1.791.765c.456,0,.885-.11,1.287-.333Z"/><path class="cls-1" d="M146.372,31.083c-.769-.426-1.371-1.029-1.81-1.81-.438-.779-.656-1.68-.656-2.7s.225-1.92.675-2.699c.45-.78,1.064-1.384,1.845-1.81s1.65-.639,2.61-.639,1.83.213,2.609.639c.78.426,1.396,1.029,1.846,1.81.45.779.675,1.68.675,2.699s-.231,1.921-.693,2.7c-.462.78-1.086,1.384-1.872,1.81s-1.665.639-2.637.639c-.96,0-1.824-.213-2.592-.639ZM150.251,29.193c.402-.222.723-.555.963-.999.24-.443.36-.983.36-1.62,0-.947-.249-1.677-.747-2.187s-1.107-.766-1.827-.766-1.323.256-1.809.766c-.486.51-.729,1.239-.729,2.187s.237,1.678.711,2.188,1.071.765,1.791.765c.456,0,.885-.11,1.287-.333Z"/><path class="cls-1" d="M158.954,23.657v4.824c0,.336.081.579.243.729.162.149.435.225.819.225h1.17v2.124h-1.584c-2.124,0-3.187-1.032-3.187-3.096v-4.807h-1.188v-2.069h1.188v-2.467h2.538v2.467h2.232v2.069h-2.232Z"/></g></svg>