<?xml version="1.0" encoding="UTF-8"?>
<svg xmlns="http://www.w3.org/2000/svg" version="1.1" viewBox="0 0 84 96">
  <defs>
    <style>
      .cls-1 {
        fill: #fff;
      }

      .cls-1, .cls-2, .cls-3 {
        fill-rule: evenodd;
      }

      .cls-4 {
        fill: #fde9ec;
      }

      .cls-2 {
        fill: #c32033;
      }

      .cls-3 {
        fill: #dd1e34;
      }
    </style>
  </defs>
  <!-- Generator: Adobe Illustrator 28.6.0, SVG Export Plug-In . SVG Version: 1.2.0 Build 709)  -->
  <g>
    <g id="Layer_1">
      <rect class="cls-4" x="-.9" y="-2.1" width="87.8" height="99.5"/>
      <path class="cls-1" d="M4803.7-375.5h2500v2500h-2500V-375.5Z"/>
      <polygon class="cls-3" points="42.2 3.6 42.2 3.6 42.2 3.6 1.3 18.2 7.6 72.2 42.2 91.4 42.2 91.4 42.2 91.4 76.8 72.2 83 18.2 42.2 3.6"/>
      <polygon class="cls-2" points="42.2 3.6 42.2 13.4 42.2 13.3 42.2 57.8 42.2 57.8 42.2 91.4 42.2 91.4 76.8 72.2 83 18.2 42.2 3.6"/>
      <path class="cls-1" d="M42.2,13.3l-25.5,57.3h9.5l5.1-12.8h21.7l5.1,12.8h9.5L42.2,13.3h0ZM49.7,49.9h-14.9l7.5-17.9,7.5,17.9h0Z"/>
    </g>
  </g>
</svg>