<?xml version="1.0" encoding="UTF-8"?>
<svg xmlns="http://www.w3.org/2000/svg" version="1.1" viewBox="0 0 84 96">
  <defs>
    <style>
      .cls-1 {
        fill: none;
      }

      .cls-2, .cls-3, .cls-4, .cls-5 {
        fill-rule: evenodd;
      }

      .cls-2, .cls-6 {
        fill: #fff;
      }

      .cls-7 {
        fill: #edf6e8;
      }

      .cls-3 {
        fill: #68ab63;
      }

      .cls-4 {
        fill: #50893e;
      }

      .cls-5 {
        fill: #569642;
      }
    </style>
  </defs>
  <!-- Generator: Adobe Illustrator 28.6.0, SVG Export Plug-In . SVG Version: 1.2.0 Build 709)  -->
  <g>
    <g id="Layer_1">
      <rect class="cls-7" x="-1.9" y="-2.1" width="87.8" height="99.5"/>
      <path class="cls-2" d="M4803.7-375.5h2500v2500h-2500V-375.5Z"/>
      <rect class="cls-1" x=".9" y=".8" width="82.2" height="94.3"/>
      <path id="path2-3" class="cls-4" d="M39.8,5.9c1.4-.8,3.1-.8,4.5,0,6.8,3.8,27.3,15.4,34.2,19.2,1.4.8,2.2,2.2,2.2,3.8v38.4c0,1.5-.8,3-2.2,3.8-6.8,3.8-27.3,15.4-34.2,19.2-1.4.8-3.1.8-4.5,0-6.8-3.8-27.3-15.4-34.2-19.2-1.4-.8-2.2-2.2-2.2-3.8V28.8c0-1.5.8-3,2.2-3.8,6.8-3.8,27.4-15.4,34.2-19.2h0Z"/>
      <path id="path4-3" class="cls-3" d="M4,69.2c-.5-.7-.6-1.4-.6-2.3V28.7c0-1.5.8-3,2.2-3.7,6.8-3.8,27.3-15.3,34.1-19.1,1.4-.8,3.2-.8,4.6,0,6.8,3.8,27.2,15.2,34,19,.5.3,1,.7,1.3,1.2L4,69.2Z"/>
      <path id="path6-3" class="cls-2" d="M42,19.5c15.7,0,28.5,12.8,28.5,28.5s-12.8,28.5-28.5,28.5-28.5-12.8-28.5-28.5,12.8-28.5,28.5-28.5ZM42,33.8c7.9,0,14.2,6.4,14.2,14.2s-6.4,14.2-14.2,14.2-14.2-6.4-14.2-14.2,6.4-14.2,14.2-14.2Z"/>
      <path id="path8-3" class="cls-5" d="M79.6,26.1c1,1,1,2.5,1,3.6v37.4c0,.8-.3,1.7-.7,2.3l-38.8-21.3,38.4-21.9h.1Z"/>
      <path class="cls-6" d="M65.8,38.1v4.4h4.4v-4.4h2.2v4.4h4.4v2.2h-4.4v4.4h4.4v2.2h-4.4v4.4h-2.2v-4.4h-4.4v4.4h-2.2v-4.4h-4.4v-2.2h4.4v-4.4h-4.4v-2.2h4.4v-4.4h2.2ZM70.2,44.8h-4.4v4.4h4.4v-4.4Z"/>
    </g>
  </g>
</svg>