<?xml version="1.0" encoding="UTF-8"?>
<svg xmlns="http://www.w3.org/2000/svg" version="1.1" viewBox="0 0 84 96">
  <defs>
    <style>
      .cls-1 {
        fill-rule: evenodd;
      }

      .cls-1, .cls-2 {
        fill: #fff;
      }

      .cls-3 {
        fill: #eaeaec;
      }

      .cls-4 {
        fill: #e4a228;
      }

      .cls-5 {
        fill: #101011;
      }

      .cls-6 {
        fill: #fff3e2;
      }

      .cls-7 {
        fill: #efbe23;
      }
    </style>
  </defs>
  <!-- Generator: Adobe Illustrator 28.6.0, SVG Export Plug-In . SVG Version: 1.2.0 Build 709)  -->
  <g>
    <g id="Layer_1">
      <rect class="cls-6" x="-1.9" y="-2.1" width="87.8" height="99.5"/>
      <path class="cls-1" d="M4803.7-375.5h2500v2500h-2500V-375.5Z"/>
      <path id="path118" class="cls-2" d="M9.8,19.8v.8c0,.4,1.3,15.3,2.9,33.1l2.9,32.3,13,3.6c7.1,2,13.1,3.6,13.3,3.7.2,0,6.2-1.6,13.5-3.6,11.6-3.2,13.2-3.7,13.2-4.1,0-.6,5.8-64.6,5.8-65.2v-.5H9.8Z"/>
      <path id="path88" class="cls-3" d="M28.6,89.8l-13.1-3.7-.2-1c-.2-.9-5.8-64.2-5.8-65s3.3-.3,32.5-.3,32.5,0,32.5.4c0,1.6-5.9,65.7-6,65.9-.2.2-25.5,7.2-26.3,7.3-.2,0-6.3-1.6-13.5-3.6h-.1ZM50.3,76.9c4.4-1.2,8.1-2.3,8.1-2.3,0,0,.6-5.3,1.1-11.6.6-6.3,1.1-11.9,1.1-12.4v-.9c0,0-9.4,0-9.4,0h-9.5v8.1h10.3v.5c-.2.3-.4,2.6-.6,5.2-.2,2.7-.5,4.8-.6,4.9s-2.2.8-4.6,1.4l-4.4,1.2v4.1c0,2.8,0,4.1.2,4.1s3.8-1,8.2-2.2h.1ZM60.7,44.6c0-1.1-1.4-15.4-1.4-15.9s-.8-.4-8.6-.4h-8.6v8.4h3.9c2.1.2,4.4.4,5,.4h1.1c0,0,.3,3.4.3,3.4,0,1.8.3,3.7.4,4.1v.8h8.2v-.9h-.3Z"/>
      <path id="path80" class="cls-7" d="M28.5,89.6l-13-3.6-2.9-32.3c-1.6-17.7-2.9-32.6-2.9-33.1v-.8h64.6v.5c0,.7-5.7,64.7-5.8,65.2,0,.4-1.6.9-13.2,4.1-7.2,2-13.3,3.6-13.5,3.6s-6.2-1.7-13.3-3.7h0ZM50.3,77.1c4.5-1.2,8.2-2.4,8.3-2.5,0,0,.6-5.6,1.2-12.2.6-6.6,1.1-12.1,1.2-12.3,0-.4-.7-.4-13.8-.4h-13.9l.6-6.3c.3-3.4.6-6.3.6-6.3,0,0,2.1,0,4.5,0,4.1,0,12.5.2,12.8.5,0,0,.8,6.9.8,7.8s0,.5,4.2.5h4.2v-.9c-.2-.5-.5-4.5-.9-8.8l-.7-7.8h-16.3c-13-.1-16.3,0-16.3.2s0,1.1-.2,2.1c-.3,2.5-2.4,26.3-2.4,27v.5h27.7v.8c-.2.4-.4,2.7-.6,5.1s-.4,4.3-.5,4.4c-.2.2-8.4,2.4-8.9,2.4s-2.3-.5-4.7-1.2l-4.3-1.2-.2-1.8c0-1-.2-2.4-.3-3.2v-1.4h-8.4v.8c0,1.5,1,11.8,1.2,12s16,4.6,16.5,4.6,4-1,8.5-2.3h.1Z"/>
      <path id="path78" class="cls-4" d="M28.5,89.6l-13-3.6-2.9-32.3c-1.6-17.7-2.9-32.6-2.9-33.1v-.8h64.6v.5c0,.7-5.7,64.7-5.8,65.2,0,.4-1.6.9-13.2,4.1-7.2,2-13.3,3.6-13.5,3.6s-6.2-1.7-13.3-3.7h0ZM52.7,84.8c5.7-1.6,10.5-3,10.6-3.1.2-.2,5.1-54.2,5.1-56v-.6h-26.4v3.1h-7.6c-6,0-7.6,0-7.6.3s0,1.1-.2,2.1c-.3,2.5-2.4,26.3-2.4,27v.5h17.9v6.3c0,4.9,0,6.3-.3,6.3s-2.2-.5-4.5-1.2l-4.3-1.2-.2-1.8c0-1-.2-2.4-.3-3.2v-1.4h-8.4v.8c0,2.3,1,11.9,1.3,12,0,0,3.9,1.2,8.4,2.4l8.2,2.3v4.1c0,2.3,0,4.1,0,4.1s4.8-1.3,10.5-2.9h.1ZM33.7,43.5c.3-3.4.6-6.2.7-6.3,0,0,1.8,0,3.9-.2h3.8c0,0,0,6.3,0,6.3v6.4h-8.8l.6-6.2h-.2Z"/>
      <path id="path76" class="cls-5" d="M30.2,12.1v-2.1h5.9V2h4.1v12.2h-10v-2.1ZM42.2,12.5v-1.6h2.7c1.5,0,2.7,0,2.7-.1s-1.2-1.5-2.7-3.1l-2.7-3v-2.7h11.3v3.3h-5.4c0,0,2.8,3.1,2.8,3.1l2.8,3v2.9h-11.6v-1.8Z"/>
    </g>
  </g>
</svg>