<?xml version="1.0" encoding="UTF-8"?>
<svg xmlns="http://www.w3.org/2000/svg" version="1.1" viewBox="0 0 84 96">
  <defs>
    <style>
      .cls-1 {
        fill-rule: evenodd;
      }

      .cls-1, .cls-2 {
        fill: #fff;
      }

      .cls-3 {
        fill: #b8c4c2;
      }

      .cls-4 {
        fill: #34b04a;
      }

      .cls-5 {
        fill: #f1f8f2;
      }

      .cls-6 {
        fill: #17aa4f;
      }

      .cls-7 {
        fill: #14924f;
      }

      .cls-8 {
        fill: #67bc6b;
      }

      .cls-9 {
        fill: #22323d;
      }

      .cls-10 {
        fill: #25b9cc;
      }
    </style>
  </defs>
  <!-- Generator: Adobe Illustrator 28.6.0, SVG Export Plug-In . SVG Version: 1.2.0 Build 709)  -->
  <g>
    <g id="Layer_1">
      <rect class="cls-10" x="2540.9" y="-1.4" width="88.9" height="99.1"/>
      <path class="cls-1" d="M4803.7-375.5h2500v2500h-2500V-375.5Z"/>
      <path class="cls-4" d="M2430.5.2c.2,0,.4,0,.5.3.1.2,0,.4,0,.6h0l-21.9,29.7c-.2.2-.4.3-.6.3s-.5-.1-.6-.3h0l-7.7-8.6c-.2-.2-.5-.3-.7-.3s-.5.2-.7.4h0l-4.7,5.9c-.1.3,0,.7.1,1h0l13.9,14.4c.2.2.4.3.6.3s.5,0,.6-.3h0l27.3-30.7c.2-.2.4-.2.6-.1.2,0,.4.3.4.5h0v82.7c0,.2,0,.3-.2.5-.1,0-.3.2-.5.2h-83.2c-.2,0-.3,0-.5-.2-.1,0-.2-.3-.2-.5h0V.8c0-.2,0-.3.2-.5.1,0,.3-.2.5-.2h76.8ZM2409,50.6c-3.8,0-7.4,1.4-10,4.1-2.7,2.7-4.1,6.3-4,10.1,0,8.7,6.3,14.3,14.5,14.3s7.5-1.1,10.6-3.3c.3-.3.3-.7.1-1h0l-2.3-3.4c-.3-.3-.7-.3-1,0-2,1.4-4.3,2.1-6.7,2.2-4.4,0-7.2-2.8-7.7-6.1,0,0,.1-.2.3-.3h19.1c.4,0,.7-.4.8-.8h0v-.8c0-8.9-5.6-14.9-13.7-14.9h0ZM2390.2,45.8c-3.8-3.1-8.7-4.8-13.7-4.6-8.6,0-13.9,5.1-13.9,11.1,0,13.8,21,9.4,21,15.8s-2,4-6.3,4-8-1.5-11-4.3c-.2-.2-.4-.2-.7-.2s-.5.2-.6.4h0l-3.3,4.6c-.2.3-.2.8.1,1,3.4,3.2,8.2,5.3,14.9,5.3,9.9,0,14.7-5.1,14.9-11.6,0-13.7-21-9.7-21-15.6s1.9-3.7,5.2-3.7,7.2,1.2,10,3.4c.2,0,.4.2.6.2s.4,0,.5-.3h0l3.3-4.4c.1-.2.2-.4.2-.6s-.1-.4-.3-.5h.1ZM2409.2,56.2c3.4-.2,6.4,2.4,6.7,5.8,0,0-.1.2-.3.3h-12.9c-.1,0-.2,0-.3-.3.4-3.4,3.3-5.9,6.7-5.8h.1Z"/>
      <rect class="cls-8" x="2446.5" y="-1.4" width="86.6" height="99.1"/>
      <g id="_x31_8979_-_Regression_Testing">
        <g>
          <path class="cls-2" d="M2523.3,42.2c-.6,0-1-.4-1.2-1-.8-4-2.2-7.6-4.3-11-.3-.5-.2-1.1.2-1.5l1.8-1.8-8.9-8.9-1.8,1.8c-.4.4-1,.5-1.5.1-3.4-2.2-7-3.6-11-4.4-.5,0-.9-.6-.9-1.2v-2.1h-11.7v2.1c0,.6-.4,1-.9,1.2-4.1.8-7.7,2.3-11,4.4-.5.3-1.1.2-1.5-.1l-1.8-1.8-8.9,8.9,1.8,1.8c.4.4.5,1,.2,1.5-2.1,3.4-3.6,6.9-4.3,10.9-.1.5-.6.9-1.2.9h-2.2v11.7h2.2c.6,0,1.1.4,1.2,1,.8,4.1,2.2,7.7,4.4,11.1.3.5.2,1.1-.1,1.5l-1.9,1.9,8.9,8.9,1.9-1.9c.4-.4,1-.5,1.5-.2,3.4,2.1,6.9,3.5,10.9,4.3.5,0,1,.6,1,1.2v2.1h11.7v-2.1c0-.6.4-1,1-1.2,4-.8,7.6-2.2,10.9-4.3.5-.3,1.1-.2,1.5.2l1.9,1.9,8.9-8.9-1.9-1.9c-.4-.4-.5-1-.1-1.5,2.2-3.4,3.6-7,4.4-11.1,0-.5.6-1,1.2-1h2.2v-11.6h-2.6ZM2489.7,75.4c-15.1,0-27.4-12.3-27.4-27.4s12.3-27.4,27.4-27.4,27.4,12.3,27.4,27.4-12.3,27.4-27.4,27.4Z"/>
          <path class="cls-2" d="M2500.5,53.9h-1.9l-2.9,13.1h3.5l2.8-13.2c-.4,0-.9,0-1.4,0h-.1Z"/>
          <path class="cls-2" d="M2476.5,57l13.2-5v-12.7l-13.2-6v23.8h0ZM2485,42.1c0-.6.5-1.2,1.2-1.2s1.2.5,1.2,1.2v7.1c0,.6-.5,1.2-1.2,1.2s-1.2-.5-1.2-1.2v-7.1h0ZM2480.2,39.7c0-.6.5-1.2,1.2-1.2s1.2.5,1.2,1.2v11.9c0,.6-.5,1.2-1.2,1.2s-1.2-.5-1.2-1.2c0,0,0-11.9,0-11.9Z"/>
          <rect class="cls-2" x="2492.1" y="39.7" width="7.1" height="11.9"/>
          <path class="cls-2" d="M2501.7,39.8v11.7c2.7-.5,4.7-3,4.7-5.8s-2-5.3-4.7-5.8h0Z"/>
        </g>
      </g>
      <g id="_x32_6175_-_Manual_Testing">
        <g>
          <path class="cls-2" d="M2550.5,60.7c0,.4.3.7.7.7h67.1c.4,0,.7-.3.7-.7V17.3h-68.6v43.4h.1ZM2565.3,37.5c0-.5.3-.9.7-1.2l3.3-1.9c.4-.2.9-.2,1.3,0,.2-.5.4-1,.6-1.6-.4,0-.8-.5-.9-.9l-1-3.7c-.1-.5,0-1,.3-1.3l2.7-2.7c.3-.3.9-.5,1.3-.3l3.7,1c.4.1.8.5.9.9.5-.2,1-.5,1.6-.6-.2-.4-.2-.9,0-1.3l1.9-3.3c.3-.4.7-.7,1.2-.7h3.8c.5,0,.9.3,1.2.7l1.9,3.3c.2.4.3.9,0,1.3.5.2,1,.4,1.6.6.1-.4.5-.8.9-.9l3.7-1c.5-.1,1,0,1.3.3l2.7,2.7c.3.3.5.9.3,1.3l-1,3.7c-.1.4-.5.8-.9.9.2.5.5,1,.6,1.6.4-.2.9-.2,1.3,0l3.3,1.9c.4.3.7.7.7,1.2v3.8c0,.5-.3.9-.7,1.2l-3.3,1.9c-.4.2-.9.3-1.3,0-.2.5-.4,1-.6,1.6.4,0,.8.5.9.9l1,3.7c.1.5,0,1-.3,1.3l-2.7,2.7c-.3.3-.9.5-1.3.3l-3.7-1c-.4,0-.8-.5-.9-.9-.5.2-1,.5-1.6.6.2.4.2.9,0,1.3l-1.9,3.3c-.2.4-.7.7-1.2.7h-3.8c-.5,0-.9-.3-1.2-.7l-1.9-3.3c-.2-.4-.2-.9,0-1.3-.5-.2-1-.4-1.6-.6-.1.4-.5.8-.9.9l-3.7,1c-.5,0-1,0-1.3-.3l-2.7-2.7c-.3-.3-.5-.9-.3-1.3l1-3.7c.1-.4.5-.8.9-.9-.3-.5-.5-1-.6-1.6-.4.2-.9.2-1.3,0l-3.3-1.9c-.4-.3-.7-.7-.7-1.2v-3.8h0Z"/>
          <path class="cls-2" d="M2570.7,41.1c.4-.2.8-.2,1.2,0s.7.5.8.9c.3,1.4.9,2.8,1.7,4,.2.4.3.8.1,1.2s-.5.7-.9.8l-.9.2-.6,2.1,1.6,1.6,2.1-.6.2-.9c.1-.4.4-.8.8-.9s.9,0,1.2,0c1.2.8,2.6,1.4,4,1.7.4,0,.8.4.9.8.2.4.2.9,0,1.2l-.4.8,1.1,1.9h2.2l1.1-1.9-.4-.8c-.2-.4-.2-.8,0-1.2s.5-.7.9-.8c1.4-.3,2.8-.9,4-1.7.4-.2.8-.3,1.2,0s.7.5.8.9l.2.9,2.1.6,1.6-1.6-.6-2.1-.9-.2c-.4,0-.8-.4-.9-.8s-.1-.9.1-1.2c.8-1.2,1.4-2.6,1.7-4,0-.4.4-.8.8-.9.4-.2.9-.2,1.2,0l.8.4,1.9-1.1v-2.2l-1.9-1.1-.8.4c-.4.2-.8.2-1.2,0s-.7-.5-.8-.9c-.3-1.4-.9-2.8-1.7-4-.2-.4-.3-.8-.1-1.2.2-.4.5-.7.9-.8l.9-.2.6-2.1-1.6-1.6-2.1.6-.2.9c-.1.4-.4.8-.8.9-.4.2-.9.1-1.2-.1-1.2-.8-2.6-1.4-4-1.7-.4,0-.8-.4-.9-.8-.2-.4-.1-.9,0-1.2l.4-.8-1.1-1.9h-2.2l-1.1,1.9.4.8c.2.4.2.8,0,1.2-.2.4-.5.7-.9.8-1.4.3-2.8.9-4,1.7-.4.2-.8.3-1.2.1-.4-.2-.7-.5-.8-.9l-.2-.9-2.1-.6-1.6,1.6.6,2.1.9.2c.4.1.8.4.9.8s.1.9-.1,1.2c-.8,1.2-1.4,2.6-1.7,4,0,.4-.4.8-.8.9-.4.2-.9.2-1.2,0l-.8-.4-1.9,1.1v2.2l1.9,1.1.8-.4ZM2584.8,33.5c3.2,0,5.8,2.6,5.8,5.9s-2.6,5.9-5.8,5.9-5.9-2.6-5.9-5.9,2.6-5.8,5.9-5.9Z"/>
          <path class="cls-2" d="M2618.4,7.5h-67.1c-.4,0-.7.3-.7.7v6.4h68.6v-6.4c0-.4-.3-.7-.7-.7h-.1ZM2559.3,12.8c-1,0-1.8-.8-1.8-1.8s.8-1.8,1.8-1.8,1.8.8,1.8,1.8-.8,1.8-1.8,1.8ZM2569.5,12.8c-1,0-1.8-.8-1.8-1.8s.8-1.8,1.8-1.8,1.8.8,1.8,1.8-.8,1.8-1.8,1.8ZM2579.7,12.8c-1,0-1.8-.8-1.8-1.8s.8-1.8,1.8-1.8,1.8.8,1.8,1.8-.8,1.8-1.8,1.8Z"/>
          <path class="cls-2" d="M2551.5,87.3l-5.1-10.5h0c-.2-.2-.4-.4-.5-.6h-.2l-1.5.7c-.1,0-.2,0-.2.2v.3l5.8,11.9c0,.2.3.3.5.2l1.5-.7c.2,0,.3-.3.2-.5l-.5-.9h0Z"/>
          <path class="cls-2" d="M2587.1,71.1c-.6,0-1.1,0-1.6.3l-9.2,6.7c-.1.2-.2.4-.4.5-.9,1.3-2.5,2-4.1,2h-8c-.8,0-1.4-.6-1.4-1.4s.6-1.4,1.4-1.4h8c.8,0,1.5-.3,1.9-.9,0,0,.2-.3.2-.4h0c.2-.5.2-.8-.2-1.3-.4-.6-1.2-.9-1.9-.9h-9.4c-1.3,0-2.6-.3-3.8-.8-2.2-1-6.3-1.9-9.9,2.1l4.5,9.3.6-.2c.7-.3,1.4-.3,2.1-.3,13.8,1,17.7-.3,18.1-.5l13.7-9.3c.6-.4.9-1,.9-1.7s-.1-.8-.3-1.1c-.3-.4-.8-.7-1.3-.8h0Z"/>
        </g>
      </g>
      <rect class="cls-5" x="-1.9" y="-1.8" width="87.8" height="99.5"/>
      <path class="cls-6" d="M58.7,32.2c-3.9-17.1-12-21.7-14-24.9-.8-1.4-1.6-2.9-2.3-4.4-.1,1.5-.3,2.5-1.6,3.6-2.6,2.3-13.6,11.3-14.5,30.7-.9,18.1,13.3,29.3,15.2,30.4,1.4.7,3.2,0,4.1-.6,6.8-4.7,16.2-17.2,13.2-34.9"/>
      <path class="cls-3" d="M43,58c-.4,4.5-.6,7.1-1.5,9.7,0,0,.6,4.3,1,8.8h1.5c.4-3.2.9-6.3,1.6-9.5-1.9-.9-2.5-5-2.6-9Z"/>
      <path class="cls-7" d="M45.6,67h0c-1.9-.9-2.5-5.1-2.6-9,.5-6.4.6-12.9.4-19.3-.1-3.4,0-31.3-.8-35.4.6,1.4,1.3,2.7,2.1,4,2.1,3.2,10.1,7.8,14,24.9,3,17.6-6.3,30.1-13.1,34.8h0Z"/>
      <path class="cls-9" d="M80.5,88.8c-.8,0-1.5-.7-1.5-1.5s.7-1.5,1.5-1.5,1.4.6,1.5,1.4c0,.8-.6,1.5-1.4,1.5h0M80.5,86c-.7,0-1.3.6-1.3,1.3s.6,1.3,1.3,1.3,1.3-.6,1.3-1.3h0c0-.7-.6-1.3-1.3-1.3h0M80.8,88.3l-.4-.8h-.3v.8h-.2v-1.8h.5c.4,0,.6.2.6.5s-.1.4-.4.5l.4.8h-.2ZM80.1,87.3h.3c.3,0,.4,0,.4-.3s0-.3-.4-.3h-.3v.6Z"/>
      <path class="cls-9" d="M58.8,87.4c.4.3,1.2.4,1.9.4s1.8-.2,2.6-.9c.9-.8,1.5-2,1.5-4s-.7-3.4-2.2-4.3c-.8-.5-1.9-.7-3.1-.7s-.7,0-.9,0c0,0-.1.2-.2.3v8.3c0,.2.1.6.4.8M55.1,77.2h5.8c1.9,0,3,.4,4,1.3,1.2,1,1.8,2.5,1.8,4.2,0,2.5-1.1,3.9-2.3,4.8-1.1.9-2.6,1.3-4.7,1.3h-4.7c0,0,.1-.7.3-.7.4,0,.6,0,.8,0,.3,0,.4-.3.5-.9v-8.1c0-.6-.3-.7-.8-.8-.3,0-.7,0-1.1-.2,0,0,.3-.6.3-.7"/>
      <path class="cls-9" d="M71.4,78.2s-.2.2-.2.3v3.6h1.3c.5,0,1.1,0,1.3-.2.6-.3.9-.9.9-1.6,0-1.6-1.1-2.2-2.8-2.2h-.7M75.7,85.5c0-1.6-1.2-2.6-3.4-2.6s-.8,0-1,0h-.1v3.8c0,.3.3.8.5.9.3.2,1,.2,1.4.2,1.3,0,2.4-.7,2.4-2.4M68,77.3h5.2c1.1,0,3.4.5,3.4,2.7s-.7,1.9-1.7,2.3h0c1.4.4,2.6,1.2,2.6,2.8s-1,2.6-2.4,3.2c-.9.4-2,.5-3.1.5h-4.4c-.1,0,.1-.6.2-.7.3,0,.6,0,.8,0,.4,0,.5-.3.6-.9v-8.1c0-.5-.2-.7-.6-.8-.3,0-.7,0-1.1-.2,0,0,.2-.6.3-.7"/>
      <path class="cls-9" d="M.9,88.8v-.6c.2,0,.5,0,.7,0,.3,0,.5-.3.5-.7v-4.2h0c0-.2,0-.4-.2-.5-.3-.2-.6-.3-1-.4-.2,0-.2,0-.2-.2s.1-.2.3-.3c.5,0,2-.4,2.5-.7v1.1s0,0,.2,0h0c1.1-.8,2-1.1,2.5-1.1.8,0,1.4.4,1.9,1.2h.2c1-.7,1.9-1.2,2.6-1.2,1.5,0,2.4,1.1,2.4,3.1s0,1.3,0,1.9v1.5c0,.4.1.3.3.4s.5.2,1,.2h0v.6h-3.8v-.6c.2,0,.4,0,.6,0,.3,0,.4-.3.4-.7v-3.6c0-.7-.6-1.4-1.7-1.4s-1.1.2-1.7.6v.2h0v4.5c0,.4.2.4.4.5h.2c.1,0,.3,0,.5,0v.7h-3.7v-.6h.2c.2,0,.4,0,.5,0,.3,0,.4-.2.4-.6v-3.8c-.2-1-.7-1.4-1.6-1.4s-1.2.2-1.7.6c-.1,0-.2.2-.2.4v4.3c0,.2,0,.4.5.5h.7v.6H.8"/>
      <path class="cls-9" d="M19.7,81.8c-.3,0-.6,0-.9.3-.7.4-1,1.2-1,2.3,0,2.2,1.1,3.7,2.6,3.7s.8,0,1.1-.4c.5-.4.7-1.2.7-2.3,0-2.1-1.1-3.6-2.6-3.6M20,88.9c-2.8,0-3.8-2.1-3.8-4s.6-2.4,1.6-3.1c.8-.5,1.6-.7,2.5-.7,2.1,0,3.6,1.5,3.6,3.8s-.6,2.7-1.7,3.4c-.5.3-1.5.7-2.3.7"/>
      <path class="cls-9" d="M48.3,81.8c-.3,0-.6,0-.9.3-.7.4-1,1.2-1,2.3,0,2.2,1.1,3.7,2.6,3.7s.8,0,1.1-.4c.5-.4.7-1.2.7-2.3,0-2.1-1.1-3.6-2.6-3.6M48.6,88.9c-2.8,0-3.8-2.1-3.8-4s.6-2.4,1.6-3.1c.8-.5,1.6-.7,2.5-.7,2.1,0,3.6,1.5,3.6,3.8s-.6,2.7-1.7,3.4c-.5.3-1.5.7-2.3.7"/>
      <path class="cls-9" d="M38.8,81.8c-.9,0-1.4.7-1.4,1.7s.5,2.3,1.8,2.3.7,0,.9-.3c.3-.3.5-.9.5-1.5,0-1.4-.7-2.2-1.8-2.2M38.7,89.2c-.2,0-.5,0-.7.2-.7.4-1,.9-1,1.4s.2.9.6,1.2c.5.4,1.1.6,2,.6,1.7,0,2.4-.9,2.4-1.8s-.3-1-1-1.3c-.5-.2-1.3-.3-2.3-.3M38.8,93.4c-1,0-1.7-.2-2.4-.7-.6-.5-.9-1.2-.9-1.6s.1-.6.3-.8c.2-.2.6-.6,1.5-1.2h0c-.8-.3-1-.8-1.1-1.1h0v-.3c.1,0,.3-.2.5-.3.3,0,.5-.3.8-.5v-.2h0c-1.1-.4-1.7-1.2-1.7-2.5s.4-1.6,1.1-2.1c.5-.4,1.6-.8,2.4-.8h0c.8,0,1.2.2,1.8.4.3,0,.7.2,1.1.2.6,0,.9-.2,1.2-.4v.3c0,.3,0,.5-.2.8-.1.2-.4.3-.7.3s0,0,0,0h-.4c0,.3,0,.6.1.8,0,1.4-.5,2-1.1,2.4s-1.2.7-1.9.7h-.4c-.1,0-.5.2-.5.5s.1.5.9.6h.5c.9,0,2.1.2,2.7.4.8.3,1.2,1,1.2,1.8,0,1.2-.9,2.4-2.3,3.1-.7.3-1.4.5-2.2.5"/>
      <path class="cls-9" d="M34.5,88.2c-.4,0-.7,0-1.1-.3,0,0-.1-.2-.1-.3v-3.3c0-1.1-.1-1.7-.5-2.2-.4-.6-1.1-1-1.9-1s-1.7.5-2.5,1.2c0,0-.1,0-.1,0v-.8c0,0,0-.3-.1-.3-.5.3-2,.6-2.5.7-.4,0-.5.5,0,.6h0c.3,0,.7.2,1,.4.2,0,.1.3.1.5v4.2c0,.4-.1.6-.4.6h0c-.2,0-.5,0-.7,0v.7h3.8c.1,0,.1-.6,0-.7-.3,0-.5,0-.8,0-.3,0-.4-.2-.4-.6v-4c0-1.3,0-.5.2-.6.4-.3,1-.6,1.5-.6s.9.2,1.1.4c.3.3.5.6.5,1v3.3c0,1.2,0,.8-.3.9-.1,0-.4,0-.8,0-.1,0,0,.6,0,.7h3.8c.1,0,.1-.6,0-.7"/>
    </g>
  </g>
</svg>