<?xml version="1.0" encoding="UTF-8"?>
<svg xmlns="http://www.w3.org/2000/svg" xmlns:xlink="http://www.w3.org/1999/xlink" version="1.1" viewBox="0 0 84 96">
  <defs>
    <style>
      .cls-1 {
        fill: none;
      }

      .cls-2 {
        fill: #f89921;
      }

      .cls-3 {
        fill-rule: evenodd;
      }

      .cls-3, .cls-4 {
        fill: #fff;
      }

      .cls-5 {
        fill: #fef3f3;
      }

      .cls-6 {
        fill: url(#linear-gradient-2);
      }

      .cls-7 {
        fill: url(#radial-gradient);
      }

      .cls-8 {
        fill: #b8c4c2;
      }

      .cls-9 {
        fill: url(#linear-gradient);
      }

      .cls-10 {
        fill: #5d87a1;
      }

      .cls-11 {
        fill: #34b04a;
      }

      .cls-12 {
        fill: #f1f8f2;
      }

      .cls-13 {
        fill: #17aa4f;
      }

      .cls-14 {
        fill: #eef9fe;
      }

      .cls-15 {
        fill: #14924f;
      }

      .cls-16 {
        fill: #67bc6b;
      }

      .cls-17 {
        fill: #23201f;
      }

      .cls-18 {
        fill: #22323d;
      }

      .cls-19 {
        fill: #25b9cc;
      }
    </style>
    <linearGradient id="linear-gradient" x1="-16073.7" y1="-10756.4" x2="-15944.9" y2="-10680.3" gradientTransform="translate(0 98) scale(1 -1)" gradientUnits="userSpaceOnUse">
      <stop offset="0" stop-color="#909ca9"/>
      <stop offset="1" stop-color="#eeeded"/>
    </linearGradient>
    <linearGradient id="linear-gradient-2" x1="-32385" y1="88.6" x2="-32281.4" y2="88.6" gradientTransform="translate(0 98) scale(1 -1)" gradientUnits="userSpaceOnUse">
      <stop offset="0" stop-color="#949fab"/>
      <stop offset="1" stop-color="#dcdee1"/>
    </linearGradient>
    <radialGradient id="radial-gradient" cx="26766.9" cy="2999.9" fx="26766.9" fy="2999.9" r="137.6" gradientTransform="translate(0 98) scale(1 -1)" gradientUnits="userSpaceOnUse">
      <stop offset="0" stop-color="#ef392d"/>
      <stop offset="1" stop-color="#a91f24"/>
    </radialGradient>
  </defs>
  <!-- Generator: Adobe Illustrator 28.6.0, SVG Export Plug-In . SVG Version: 1.2.0 Build 709)  -->
  <g>
    <g id="Layer_1">
      <rect class="cls-14" x="-1.4" y="-1.3" width="87.8" height="99.5"/>
      <rect class="cls-5" x="2160.4" y="-2.1" width="87.8" height="99.5"/>
      <rect class="cls-12" x="2255.9" y="-2.1" width="87.8" height="99.5"/>
      <rect class="cls-19" x="2540.9" y="-1.4" width="88.9" height="99.1"/>
      <path class="cls-3" d="M4803.7-375.5h2500v2500h-2500V-375.5Z"/>
      <g>
        <path class="cls-1" d="M-12.2,24.7h112.5v78H-12.2V24.7Z"/>
        <path class="cls-10" d="M22.2,87.7h-3c-.1-5.1-.4-10-.9-14.5h0l-4.6,14.5h-2.3l-4.6-14.5h0c-.3,4.3-.6,9.2-.6,14.5h-2.8c.2-6.5.6-12.5,1.3-18.2h3.8l4.4,13.4h0l4.4-13.4h3.6c.8,6.6,1.3,12.7,1.4,18.2M35.4,74.2c-1.2,6.7-2.9,11.6-4.9,14.7-1.6,2.3-3.3,3.5-5.2,3.5s-1.1-.2-1.9-.5v-1.6h1.3c.9,0,1.6-.2,2.1-.7.6-.6,1-1.3,1-2s-.3-1.5-.8-3.1l-3.3-10.4h3l2.4,7.8c.5,1.8.8,3,.7,3.7,1.3-3.5,2.2-7.3,2.7-11.5h2.9Z"/>
        <path class="cls-2" d="M76,87.7h-8.7v-18.2h2.9v16h5.7v2.2h.1ZM65.1,88.1l-3.3-1.7c.3-.2.6-.5.8-.8,1.4-1.7,2.1-4.1,2.1-7.4,0-6-2.4-9-7.1-9s-4.1.8-5.4,2.3c-1.4,1.7-2.1,4.1-2.1,7.4s.6,5.5,1.9,7c1.2,1.3,2.9,2,5.2,2s1.7,0,2.4-.3l4.4,2.5,1.2-2h0ZM54.2,84c-.7-1.2-1.1-3.1-1.1-5.7,0-4.6,1.4-6.9,4.2-6.9s2.5.5,3.2,1.6c.7,1.2,1.1,3.1,1.1,5.7,0,4.6-1.4,6.9-4.2,6.9s-2.5-.5-3.2-1.6M48.8,82.6c0,1.5-.6,2.8-1.7,3.8-1.1,1-2.7,1.5-4.6,1.5s-3.5-.6-5.2-1.7l.8-1.6c1.4.7,2.7,1.1,3.9,1.1s2-.2,2.6-.7,1-1.2,1-2-.8-2-2.1-2.8c-1.3-.7-3.8-2.2-3.8-2.2-1.4-1-2.1-2.1-2.1-3.9s.5-2.7,1.5-3.6,2.4-1.4,4-1.4,3.2.5,4.6,1.3l-.7,1.6c-1.2-.5-2.4-.8-3.5-.8s-1.7.2-2.2.7c-.5.4-.8,1-.8,1.7,0,1.1.8,2,2.2,2.8,1.3.7,3.9,2.2,3.9,2.2,1.4,1,2.1,2.1,2.1,3.8"/>
        <path class="cls-10" d="M73,55.7c-3.6,0-6.5.3-8.8,1.3-.7.3-1.8.3-1.9,1.1.4.4.4,1,.7,1.5.5.9,1.5,2.1,2.4,2.8,1,.7,1.9,1.5,2.9,2.1,1.8,1.1,3.8,1.7,5.5,2.8,1,.6,2,1.5,3,2.1.5.4.8,1,1.5,1.2h0c-.3-.5-.4-1.1-.7-1.6l-1.4-1.3c-1.3-1.8-3-3.3-4.7-4.6-1.5-1-4.6-2.4-5.2-4h0c1-.2,2.2-.5,3.1-.8,1.5-.4,3-.3,4.6-.7.7-.2,1.5-.4,2.2-.6v-.4c-.8-.8-1.4-1.9-2.3-2.7-2.3-2-4.9-4-7.5-5.6-1.4-.9-3.2-1.5-4.7-2.3-.5-.3-1.5-.4-1.8-.9-.8-1-1.3-2.3-1.9-3.5-1.3-2.5-2.6-5.3-3.7-7.9-.8-1.8-1.3-3.5-2.3-5.2-4.7-7.7-9.8-12.4-17.6-17-1.7-1-3.7-1.4-5.8-1.9l-3.4-.2c-.7-.3-1.5-1.2-2.1-1.6-2.6-1.6-9.3-5.2-11.2-.5-1.2,3,1.8,5.9,2.9,7.4.8,1,1.8,2.2,2.3,3.4.3.8.4,1.6.7,2.4.7,2,1.4,4.2,2.4,6.1.5,1,1,2,1.7,2.8.4.5,1,.7,1.1,1.6-.6.9-.7,2.3-1,3.4-1.6,5.1-1,11.5,1.3,15.3.7,1.1,2.5,3.6,4.8,2.7,2.1-.8,1.6-3.4,2.2-5.7.1-.5,0-.9.3-1.3h0c.6,1.4,1.3,2.6,1.9,3.9,1.4,2.2,3.9,4.6,5.9,6.1,1.1.8,2,2.2,3.3,2.7h0c-.3-.5-.7-.7-1-1-.8-.8-1.7-1.8-2.4-2.7-1.9-2.6-3.6-5.4-5.1-8.3-.7-1.4-1.4-3-2-4.4-.3-.5-.3-1.4-.7-1.6-.7,1-1.7,1.9-2.2,3.1-.9,2-1,4.4-1.3,6.9h-.2c-1.5-.3-2-1.8-2.5-3.1-1.4-3.2-1.6-8.4-.4-12.2.3-1,1.7-4,1.1-4.9-.3-.9-1.2-1.4-1.7-2.1-.6-.9-1.2-2-1.6-2.9-1.1-2.5-1.6-5.4-2.8-7.9-.5-1.2-1.5-2.4-2.3-3.5-.9-1.2-1.8-2.1-2.5-3.5-.2-.5-.5-1.3-.2-1.9,0-.4.3-.5.6-.6.6-.5,2.3,0,2.9.4,1.7.7,3.1,1.3,4.5,2.3.6.5,1.3,1.3,2.1,1.6h1c1.5.3,3.1,0,4.5.5,2.4.8,4.6,1.9,6.6,3.1,6,3.8,10.9,9.2,14.2,15.6.5,1,.8,2,1.3,3.1,1,2.2,2.1,4.5,3.1,6.7,1,2.1,1.9,4.3,3.2,6.1.7,1,3.4,1.5,4.6,2,.9.4,2.3.8,3.1,1.3,1.5,1,3.1,2,4.5,3.1.7.5,3,1.7,3.1,2.6M26.5,16.1c-.6,0-1.3,0-1.9.2h0c.4.7,1,1.2,1.5,1.9.4.7.7,1.5,1,2.2h0c.6-.5,1-1.3,1-2.4-.3-.3-.3-.6-.5-1-.3-.5-.9-.7-1.2-1"/>
        <path class="cls-2" d="M81.7,87.6h.5v-2.2h-.7l-.6,1.5-.6-1.5h-.7v2.2h.4v-1.7h0l.6,1.7h.3l.6-1.7v1.7h.2ZM78,87.6h.5v-1.9h.6v-.4h-1.8v.4h.7v1.9h0Z"/>
      </g>
      <g>
        <path class="cls-9" d="M2217.7,34.6l-13.5,4.4-11.8,5.2-3.3.9c-.8.8-1.7,1.6-2.7,2.4-1,.9-2,1.7-2.8,2.3-.8.7-2.1,1.9-2.7,2.7-.9,1.2-1.7,2.4-2,3.4-.6,1.7-.3,3.5.8,5.1,1.4,2,4.2,4.1,7.4,5.6,1.6.7,4.4,1.7,6.5,2.2,3.5.9,10.2,1.8,13.9,2h1.8s.7-1.1,1.3-2.5c2.3-4.6,3.9-9,4.8-12.7.5-2.3,1-5.2,1.2-8.8,0-1,.1-4.3,0-5.4,0-1.8-.3-3.3-.5-4.8v-.4s.2,0,1.8-.6l-.3-.8h0v-.2ZM2214.6,36.4c.1,0,.4,3.1.5,5.1v.7s-1.7-1-2.9-1.7c-1-.6-3-1.9-3.3-2.2-.1,0,0,0,.7-.4,1.4-.5,4.8-1.6,4.9-1.6h.1ZM2207.7,38.7s.3,0,.9.5c2.1,1.3,5,2.9,6.2,3.4.4.2.4,0-.5.7-1.9,1.3-4.2,2.5-7,3.8-.5.2-.9.4-.9.4,0,0,0-.3.1-.6.7-2.5,1.1-5.1,1.1-7.2s0-1,.1-1.1c.1,0,0,0,0,0h0ZM2206.3,39.2v3c-.2,1.5-.5,2.9-.9,4.4-.1.4-.2.7-.2.7,0,0-1.4-1.3-1.9-1.9-.8-.9-1.4-1.8-1.9-2.7-.2-.5-.6-1.4-.6-1.4.2,0,5.6-2.2,5.6-2.2h-.1ZM2199.6,41.8h0s0,.2.2.4c.3.9,1.1,2.2,1.7,3,.7.9,1.6,1.9,2.4,2.5.2.2.5.4.5.4l-1.6.7c-1.9.7-4,1.5-6.5,2.3-.6.2-1.2.4-1.7.6l.2-.4c1.2-1.9,3-5.5,4-8.1.2-.5.3-.9.4-1,0,0,0-.2.2-.3h.2ZM2197.5,42.7s-.5,1.1-1,2.1c-1,1.9-2.1,3.8-3.5,6.1-.2.4-.5.8-.5.8l-.2-.3c-.3-.7-.6-1.6-.8-2.4-.2-.8-.1-2.2,0-3q.1-.6.4-.8c1.3-.7,5.5-2.6,5.6-2.6h0ZM2215.2,43.4v.4c0,2.3-.2,5.4-.6,7.7,0,.4-.1.7-.1.7,0,0-.3,0-.6-.2-1.5-.5-3.2-1.2-4.7-2-1-.5-2.4-1.4-2.4-1.5,0,0,.4-.2.9-.5,2-1,3.9-2.2,5.6-3.3.6-.4,1.6-1.1,1.8-1.3h.2c0,0,0,0,0,0ZM2189.8,46.4v.5c0,.3,0,.8-.1,1.1,0,1.5.2,2.6.9,4.1.2.4.4.8.4.8,0,0-6.8,2-9,2.6-.6.2-1.2.3-1.2.3v-.2c.2-1.5,1.4-3.5,3-5.1,1.1-1.1,1.9-1.7,3.4-2.6s2.6-1.5,2.8-1.5h-.2ZM2205.8,49.3s.3,0,.6.3c2.2,1.3,5.2,2.4,7.8,3h.2l-.3.2c-1.4.8-5.8,2.6-10.4,4.3-.7.2-1.3.5-1.4.5h-.2s.2-.4.4-.8c1.3-2.4,2.6-5.3,3.2-7.3,0-.2.1-.4.1-.4h0v.2ZM2204.1,49.8s0,.2-.2.5c-.9,2.2-2.1,4.5-3.5,7.1-.4.7-.7,1.2-.7,1.2,0,0-.3-.2-.7-.4-2.2-1.3-4.1-3-5.3-4.6l-.2-.2.9-.3c3.3-.9,6.2-1.9,9-3.1.4-.2.7-.3.7-.3h0ZM2214.2,53.4h0c0,.2-.5,2.3-.9,3.9-.4,1.3-.7,2.3-1.2,4.1-.2.8-.5,1.4-.5,1.4h-.1c-3-.6-5.8-1.3-8.3-2.3-.7-.3-1.7-.7-1.8-.8,0,0,.6-.3,1.4-.6,4.7-2,9.5-4.3,11.1-5.3.2,0,.3-.2.4-.2h0v-.2ZM2190.9,54.2s-1.3,1.9-3.1,4.4c-.6.9-1.4,1.9-1.6,2.3-.3.4-.7,1-.9,1.4l-.4.7-.5-.4c-.5-.5-1.5-1.4-1.9-1.9-.9-1.1-1.5-2.3-1.7-3.3-.1-.5-.1-.7,0-.8.2,0,2.9-.7,5.4-1.3,1.4-.3,3.1-.7,3.7-.9.6,0,1.1-.3,1.1-.3h-.1ZM2192.2,54.7l.3.4c1.5,1.6,3,2.9,4.8,3.9.3.2.6.3.6.4,0,0-6.3,2.3-9.2,3.3-1.6.6-3,1-3,1,0,0-.1,0-.2,0h-.2c0,0,.3-.6.3-.6,1-1.4,2.2-2.9,4.8-6.1l1.8-2.2h0ZM2200.4,60.5l1,.4c1.3.5,2.4.8,3.8,1.2,1.7.4,4.3.9,5.7,1h.3s-1.6.5-2.7.9c-1.8.6-7.1,2.1-11.5,3.4-.8.2-1.5.4-1.5.4-.1,0-.4,0-.4,0s.2-.3.5-.7c1.5-1.8,2.9-3.7,4.2-5.6.3-.5.6-.9.6-.9h0ZM2198.6,60.5s-.7,1.2-2,3.2c-.5.8-1.1,1.8-1.4,2.1-.2.3-.5.8-.7,1.1l-.3.5h-.2c-.4,0-3-1.1-3.6-1.3-.8-.3-1.7-.7-2.4-1.1-.8-.4-1.8-1.1-1.8-1.1,0,0,1.4-.4,3.1-.8,4.5-1.2,7-1.9,8.6-2.4.3,0,.6-.2.6-.2h0ZM2211.3,63.5h0c0,0-1.6,4.7-2.2,6.2-.1.3-.2.4-.3.4-.2,0-2.6-.3-4-.6-2.5-.4-6.8-1.1-7.9-1.4h-.2l1.5-.4c3.3-.7,4.8-1.1,6.4-1.6,2-.6,4-1.4,6-2.3.3,0,.6-.3.7-.3h0Z"/>
        <path class="cls-6" d="M2203.7,3.1c-.2,0-3.9,1.3-6.2,2.2-3.2,1.3-5.6,2.5-7.1,3.6-.6.4-1.3,1.1-1.4,1.4v.3l1.4,1.3,3.3,1,7.8,1.4,8.9,1.5v-.8h0l-1.2-.2-.2-.4c-1.2-2.1-2.5-4.8-3.3-6.5-.6-1.4-1.2-3-1.5-4.1q-.2-.7-.3-.7h-.2ZM2203.6,3.6h0v.6c.2,1.4.5,2.8,1,4.3q.4,1.1,0,.9c-1-.3-5.7-1.1-9.1-1.6-.5,0-1,0-1-.2,0,0,2.4-1.3,3.5-1.9,1.4-.6,5.2-2.3,5.5-2.3v.2ZM2193.7,8.2h.4c2.2.9,7.6,1.9,10.6,2.2h.6s-.3.2-.6.3c-1.5.7-3,1.6-4.2,2.3-.3.2-.6.4-.7.4h-.9l-1-1.1c-1.8-1.7-3.2-3.1-3.8-3.6l-.5-.5h0ZM2193.3,8.5l1.4,1.8c.8,1,1.6,2,1.8,2.2s.3.4.3.4c0,0-2.1-.4-3.2-.6-1.1-.3-1.6-.4-2.3-.6l-.6-.2h0c0-.8.9-1.9,2.4-2.9h.2ZM2205.5,10.9l.2.4c.3.8,1.4,2.8,1.7,3.2,0,.1.2.1-1.2,0-3.5-.6-4.6-.7-4.6-.8s.1,0,.2-.2c1.1-.6,2.2-1.4,3.1-2.2.2-.2.5-.4.5-.4h.1Z"/>
        <path class="cls-7" d="M2189.1,10.1s-.2.4,0,.9c.1.3.5.7,1,1.1,0,0,4.6,4.4,5.1,5.1,2.5,2.9,3.6,5.8,3.7,9.7,0,2.5-.4,4.8-1.6,7.4-2.1,4.6-6.6,9.8-13.5,15.5l1-.3c.7-.5,1.5-1,3.6-2.2,4.8-2.6,10.2-5.1,16.9-7.6,9.6-3.6,25.3-7.8,34.3-9.2h.9c0-.1-.1-.4-.1-.4-.8-1.3-1.4-2.1-2.1-2.9-2-2.4-4.3-4.4-7.3-6-4-2.2-9.2-4-15.8-5.3-1.2-.2-4-.7-6.2-1.1-4.7-.7-7.7-1.2-11-1.8-1.2-.2-3-.5-4.2-.8-.6-.1-1.8-.4-2.7-.7-.7-.3-1.8-.6-2-1.4h0ZM2191.7,12.7s.2,0,.4.1c.4.1.9.3,1.5.5.4.1.9.2,1.4.4.6.2,1.1.3,1.1.3,0,0,1.1,3.4,1.5,4.6.1.5.2.9.2.9,0,0-.1-.2-.3-.4-1.2-2.1-3.1-4.2-5.3-6-.3-.2-.5-.4-.5-.4h0ZM2196.8,14h.6c1.7.4,4.9,1,6.9,1.3.3,0,.6.1.6.1,0,0-.1,0-.3.2-.3.2-1.7,1-2.1,1.3-1.1.8-2.2,1.6-2.9,2.3-.3.3-.6.5-.6.5,0,0,0-.2-.1-.4-.4-1.4-1.1-3.5-1.8-5-.1-.2-.2-.4-.2-.5h0v.2ZM2205.6,15.7s.2.4.4,1.1c.4,1.5.6,3.1.5,4.7v.9h0c0,.1-.5,0-.5,0-1.1-.3-2.9-.9-4.4-1.3-.9-.2-1.6-.5-1.6-.5,0,0,1.3-1.3,1.8-1.8,1-.9,3.8-3.1,3.9-3h0ZM2206.3,15.8s4.2.7,6.1,1.1c1.4.3,3.5.7,3.6.8,0,0-.2.1-.8.4-2.7,1.2-4.7,2.3-6.7,3.6-.5.3-1,.6-1,.6v-.7c0-1.9-.4-3.9-1.1-5.6,0-.2-.1-.3-.1-.3h0ZM2217.2,18s-.1.9-.2,1.4c-.4,1.5-1.4,3.8-2.6,5.9-.2.4-.4.7-.4.7,0,0-.3-.1-.6-.3-1.2-.7-2.5-1.4-4-2-.4-.2-.8-.3-.8-.3,0,0,3.2-2.2,5-3.3,1.4-.8,3.6-2.1,3.7-2h0ZM2218,18.1s2,.5,2.9.8c2.4.7,5.2,1.7,7,2.5l.7.3h-.5c-4.4,1.1-8.2,2.3-11.8,3.8l-.6.2s0-.2.2-.5c1.1-2.3,1.8-4.7,2-6.8v-.3h.1ZM2199.4,22.4s1.5.3,2.2.5c1.2.3,3.6,1.2,3.6,1.2,0,0-.3.2-.6.5-1.3,1.1-2.6,2.3-4.2,3.8-.5.4-.8.8-.9.8s0,0,0-.1c.2-1.7.2-3.9-.1-6.2,0-.3,0-.5,0-.5ZM2229.3,22.4s-.7,1.1-1.1,1.7c-.6.9-1.5,2-3.5,4.6-1.1,1.3-2.3,2.9-2.7,3.4-.4.5-.7.9-.8.9s-.1-.2-.3-.4c-1.1-1.7-2.5-3.2-4.1-4.6-.3-.3-.6-.5-.8-.6-.1,0-.2-.2-.2-.2,0,0,1.7-.8,3.1-1.3,2.3-.9,5.5-2.1,7.8-2.8,1.2-.4,2.6-.8,2.6-.7h0ZM2230.1,22.6s.3.1.6.3c2.5,1.4,4.9,3.3,6.8,5.1.5.5,1.9,1.9,1.9,1.9h-1c-4.3.3-9.8,1.2-15.1,2.5-.4,0-.7.2-.7.2,0,0,.4-.4.9-.9,3.1-3,4.5-4.9,6.2-8.3.2-.5.4-.9.5-1q0,0,0,0h0v.2ZM2207.3,24.9c.1,0,1.5.7,2.5,1.2.9.5,2.3,1.2,2.4,1.3,0,0-.5.3-1.1.6-1.9,1-3.6,1.9-5.3,2.9-.5.3-.9.5-.9.5l.2-.5c.9-1.7,1.7-3.7,2.1-5.6,0-.2,0-.3.1-.3h0ZM2206,25.2s-.3,1.3-.5,2c-.4,1.3-1.1,2.9-1.8,4.2-.2.3-.4.7-.5.9l-.3.4-.6-.6c-.7-.6-1.2-1-1.9-1.4-.3-.1-.5-.3-.5-.3,0,0,1.7-1.7,3.1-2.8,1-.8,3-2.5,3-2.4h0ZM2214.1,28.5l.5.3c1.1.7,2.5,1.7,3.5,2.6.6.5,1.7,1.5,1.9,1.7h.1c0,0-.8.4-.8.4-4.7,1.3-8.3,2.5-12.5,4-.5.2-.9.3-.9.3,0,0-.1,0,.9-.9,2.7-2.5,5.1-5.2,6.9-7.9l.4-.6h0ZM2212,29.1s-1.4,2-2.2,3.1c-1,1.3-2.8,3.6-4,5-.5.6-1,1.1-1,1.1v-.4c0-1.2-.3-2.6-.9-3.7-.2-.5-.3-.6-.2-.6.2-.2,3.2-1.9,5.1-2.9,1.3-.7,3.3-1.7,3.3-1.7h-.1ZM2199.1,32.2s.3,0,.5.3c.7.4,1.2.8,1.8,1.2,0,0-.2.2-.6.5-1,.7-2.4,1.8-3.3,2.5q-.9.7-.8.6c.7-1,1-1.6,1.4-2.4.3-.7.6-1.5.9-2.1,0-.3.2-.5.2-.5h0ZM2202.5,34.9s.1,0,.4.5c.6.9,1,2,1.1,3v.2l-1.4.5c-2.5,1-4.8,1.9-6.4,2.6-.4.2-1.2.6-1.7.8-.5.3-.9.4-.9.4,0,0,.3-.2.7-.5,3.1-2.2,5.7-4.7,7.7-7.1.2-.3.4-.5.4-.5h0ZM2200.9,35.3s-1.1,1.4-1.9,2.2c-2,2-3.9,3.6-6.4,5.1l-.6.4,1.1-1.2c.7-.7,1.2-1.3,1.8-2.1.4-.5.5-.6,1-1,1.5-1.1,5-3.4,5-3.4h0Z"/>
      </g>
      <path class="cls-17" d="M2182.1,79.2h-.3c-2.2,0-3.6,1.1-4.5,2.9-.7,1.7-.6,3.9,0,5.5.8,1.6,2,2.5,4,2.8.4,0,.7.3,1.6,1.3l1,1.2h1.9l-1.2-1.3c-.7-.7-1.2-1.3-1.2-1.3,0,0,.3-.2.6-.3,1.1-.3,1.9-1.1,2.5-2.4.5-1,.6-1.3.6-2.6.2-3.7-1.8-6-5-6h0v.2ZM2183.7,89c-.9.4-2.2.5-3.1.2-.9-.3-1.8-1.3-2.2-2.3-.4-1.2-.4-3.3.1-4.2.8-1.5,1.9-2.2,3.4-2.2,2.3,0,3.6,1.4,3.8,4,.1,2.2-.6,3.8-2,4.5h0ZM2216.2,82.4c-.8,0-1.4.3-1.8.9l-.3.5v-1.3h-1.4v7.8h1.4v-2.5c0-2.3,0-2.5.3-3.2.4-.9,1.2-1.3,1.9-1.1h.5c0,0,0-1.2,0-1.2h-.6,0ZM2208.2,82.3h-.8c-1.8.5-2.9,2.2-2.8,4,0,1.5.3,2.3,1,3,1.5,1.2,2.8,1.3,4.6.7.3,0,.6-.3.6-.3v-1.2l-.6.3c-1.5.6-2.6.6-3.5,0-.6-.6-.8-1.3-.9-2.1h5.5v-1c0-2.1-1.3-3.5-3.2-3.4h0ZM2205.9,85.7s.2-1.3,1-1.9c.4-.3.8-.4,1.2-.4s.8,0,1.2.4c.7.5.8,1.8.8,1.8h-4.2ZM2173.1,84.3c-1.5-.9-2.1-1.5-2.1-2.3.2-2.1,2.8-1.8,4.3-1v-1.4s-.8-.3-1.9-.4c-1.8,0-2.9.5-3.4,1.7-.8,1.7,0,3,2.4,4.5,1.4.8,2,1.5,2,2.3,0,1.6-1.9,2.2-3.9,1.2-.4-.2-.8-.4-.8-.4v1.5s.6.3,1.5.4c2.3.5,4.3-.6,4.5-2.3.2-1.6-.4-2.5-2.6-3.8h0ZM2228.2,82.3h-.8c-1.8.5-2.8,2.2-2.8,4s.3,2.2,1,3c1.5,1.2,2.8,1.3,4.7.7.3,0,.6-.3.6-.3v-1.2l-.6.3c-1.5.6-2.6.6-3.5,0-.6-.6-.8-1.3-.9-2.1h5.5v-1c0-2.1-1.3-3.5-3.2-3.4h0ZM2226,85.7s.2-1.3,1-1.9c.4-.3.8-.4,1.2-.4s.8,0,1.2.4c.7.5.8,1.8.8,1.8h-4.2ZM2201,84.4c-1.5-.9-2.1-1.5-2.1-2.3.2-2.1,2.8-1.8,4.3-1v-1.4s-.8-.3-1.9-.4c-1.8,0-2.9.5-3.4,1.7-.8,1.7,0,3,2.4,4.5,1.4.8,2,1.5,2,2.3,0,1.6-1.9,2.2-3.9,1.2-.4-.2-.8-.4-.8-.4v1.5s.6.2,1.5.4c2.3.5,4.3-.6,4.5-2.3.2-1.6-.4-2.5-2.6-3.8h0ZM2236.3,82.4c-.8,0-1.4.3-1.8.9l-.3.5v-1.3h-1.4v7.8h1.4v-2.5c0-2.3,0-2.5.3-3.2.4-.8,1.2-1.3,1.9-1.1h.5c0,0,0-1.2,0-1.2h-.6,0ZM2190.2,84.3v-4.9h-1.4v10.9h5.8v-1.3h-4.4v-4.7h0ZM2222,85.9l-1.1,2.9-1.1-3-1.1-3.3h-1.4c.9,2.6,1.9,5.2,2.9,7.8h1.3l1.5-3.8,1.6-3.9h-1.3s-.6,1.6-1.2,3.3h0ZM2193.3,76.4c.2,0,.4,0,.6-.2.2-.2.2-.3.2-.5s0-.4-.2-.5-.3-.2-.5-.2-.4,0-.6.2c-.2.2-.2.3-.2.5s0,.4.2.5c.1,0,.3.2.5.2h0ZM2192.9,75.1c.1,0,.3-.2.5-.2s.4,0,.5.2c.1,0,.2.3.2.5s0,.4-.2.5c-.1,0-.3.2-.5.2s-.4,0-.5-.2c-.1,0-.2-.3-.2-.5s0-.4.2-.5ZM2193.2,75.7h0s.1,0,.2.2v.2h.3v-.3c-.2,0-.2-.2-.3-.2h.2v-.4h-.6v1h.1v-.4h.1ZM2193.2,75.2h.3c0,.2,0,.3-.2.3h-.2v-.3h0ZM2170.5,75.6v-.8h0c0,.2,0,.3.1.4l1.3,2.9h.2l1.3-3s0-.2.1-.4h0v3.4h.5v-3.9h-.6l-1.2,2.7c0,0-.1.3-.2.5h0c0,0,0-.3-.2-.5l-1.2-2.7h-.6v3.9h.4v-2.6h0ZM2175,75.6h.4v2.4h-.4v-2.4ZM2175.2,74.7h.2v-.4h-.4v.4h.2ZM2178.1,78.1v-.4c-.2.2-.4.2-.7.2s-.5,0-.7-.3c-.2-.2-.3-.4-.3-.8s0-.6.3-.8c.2-.2.4-.3.7-.3s.5,0,.7.2v-.5c-.2,0-.4,0-.6,0-.4,0-.8,0-1,.4-.3.3-.4.6-.4,1.1s.1.7.4,1c.2.3.6.4,1,.4s.5,0,.8-.2h-.2ZM2179.3,76.8c0-.3,0-.6.2-.8.1-.2.3-.2.5-.2h.3v-.5h-.3c-.2,0-.3,0-.4.2-.1,0-.2.3-.3.5h0v-.6h-.4v2.8h.4v-1.4h0ZM2181.8,78.3c.4,0,.8,0,1-.4s.4-.6.4-1.1-.1-.8-.3-1.1c-.2-.3-.5-.4-1-.4s-.8,0-1,.4c-.3.3-.4.6-.4,1.1s.1.8.4,1c.2.3.6.4,1,.4h0ZM2181.2,76c.2-.2.4-.3.7-.3s.5,0,.7.3c.2.2.2.5.2.8s0,.6-.2.8c-.2.2-.4.3-.7.3s-.5,0-.7-.3c-.2-.2-.2-.4-.2-.8s0-.6.2-.8ZM2185.1,78c.2-.2.3-.3.3-.6s0-.4-.2-.5c-.1,0-.3-.2-.5-.3-.2,0-.3-.2-.4-.2,0,0-.1-.2-.1-.3s0-.2.1-.3c0,0,.2,0,.4,0s.4,0,.6.2v-.4c-.2,0-.4,0-.6,0s-.5,0-.7.2-.3.3-.3.6,0,.4.2.5c0,0,.3.2.5.3.2,0,.4.2.5.3,0,0,.1.2.1.3,0,.3-.2.4-.5.4s-.5,0-.7-.3v.5c.2,0,.4.2.7.2s.6,0,.8-.3h-.2ZM2187.2,75.4c-.4,0-.8,0-1,.4-.3.3-.4.6-.4,1.1s.1.8.4,1c.2.3.6.4,1,.4s.8,0,1-.4.4-.6.4-1.1-.1-.8-.3-1.1c-.2-.3-.6-.4-1-.4h0ZM2188.1,76.8c0,.3,0,.6-.2.8-.2.2-.4.3-.7.3s-.5,0-.7-.3c-.2-.2-.2-.4-.2-.8s0-.6.3-.8c.2-.2.4-.3.7-.3s.5,0,.7.3c.1.2.2.5.2.8h-.1ZM2189.3,78.2h.4v-2.4h.6v-.4h-.6v-.4c0-.4.2-.6.5-.6h.3v-.4h-.3c-.2,0-.4,0-.6.2-.2.2-.3.4-.3.7v.5h-.5v.4h.5v2.4h0ZM2191.1,77.4c0,.5.2.8.7.8s.3,0,.4,0v-.4h-.3c-.1,0-.3,0-.3,0v-2h.7v-.4h-.7v-.8c-.2,0-.3,0-.4,0v.7h-.5v.4h.5v1.6h0ZM2238.6,82.5c-.2,0-.3-.2-.5-.2s-.4,0-.6.2c-.2,0-.2.3-.2.5s0,.4.2.5.3.2.6.2.4,0,.6-.2c.1-.2.2-.3.2-.5s0-.4-.2-.6h-.1ZM2238.5,83.6c-.1,0-.3.2-.5.2s-.4,0-.5-.2c-.1,0-.2-.3-.2-.5s0-.4.2-.5c.1,0,.3-.2.5-.2s.4,0,.5.2c.1,0,.2.3.2.5s0,.4-.2.5ZM2238.1,83.1h.2v-.4h-.6v1h.1v-.4h0s.1,0,.2.2v.2h.3v-.3c-.2,0-.2-.2-.3-.2h.1ZM2238.1,83h-.2v-.3h.3c0,.2,0,.3-.2.3h0Z"/>
      <path class="cls-13" d="M2316.5,31.9c-3.9-17.1-12-21.7-14-24.9-.8-1.4-1.6-2.9-2.3-4.4-.1,1.5-.3,2.5-1.6,3.6-2.6,2.3-13.6,11.3-14.5,30.7-.9,18.1,13.3,29.3,15.2,30.4,1.4.7,3.2,0,4.1-.6,6.8-4.7,16.2-17.2,13.2-34.9"/>
      <path class="cls-8" d="M2300.8,57.7c-.4,4.5-.6,7.1-1.5,9.7,0,0,.6,4.3,1,8.8h1.5c.4-3.2.9-6.3,1.6-9.5-1.9-.9-2.5-5-2.6-9Z"/>
      <path class="cls-15" d="M2303.4,66.7h0c-1.9-.9-2.5-5.1-2.6-9,.5-6.4.6-12.9.4-19.3-.1-3.4,0-31.3-.8-35.4.6,1.4,1.3,2.7,2.1,4,2.1,3.2,10.1,7.8,14,24.9,3,17.6-6.3,30.1-13.1,34.8h0Z"/>
      <path class="cls-18" d="M2338.3,88.4c-.8,0-1.5-.7-1.5-1.5s.7-1.5,1.5-1.5,1.4.6,1.5,1.4c0,.8-.6,1.5-1.4,1.5h0M2338.3,85.7c-.7,0-1.3.6-1.3,1.3s.6,1.3,1.3,1.3,1.3-.6,1.3-1.3h0c0-.7-.6-1.3-1.3-1.3h0M2338.6,87.9l-.4-.8h-.3v.8h-.2v-1.8h.5c.4,0,.6.2.6.5s-.1.4-.4.5l.4.8h-.2ZM2337.9,86.9h.3c.3,0,.4,0,.4-.3s0-.3-.4-.3h-.3v.6Z"/>
      <path class="cls-18" d="M2316.6,87.1c.4.3,1.2.4,1.9.4s1.8-.2,2.6-.9c.9-.8,1.5-2,1.5-4s-.7-3.4-2.2-4.3c-.8-.5-1.9-.7-3.1-.7s-.7,0-.9,0c0,0-.1.2-.2.3v8.3c0,.2.1.6.4.8M2312.9,76.8h5.8c1.9,0,3,.4,4,1.3,1.2,1,1.8,2.5,1.8,4.2,0,2.5-1.1,3.9-2.3,4.8-1.1.9-2.6,1.3-4.7,1.3h-4.7c0,0,.1-.7.3-.7.4,0,.6,0,.8,0,.3,0,.4-.3.5-.9v-8.1c0-.6-.3-.7-.8-.8-.3,0-.7,0-1.1-.2,0,0,.3-.6.3-.7"/>
      <path class="cls-18" d="M2329.2,77.8s-.2.2-.2.3v3.6h1.3c.5,0,1.1,0,1.3-.2.6-.3.9-.9.9-1.6,0-1.6-1.1-2.2-2.8-2.2h-.7M2333.5,85.2c0-1.6-1.2-2.6-3.4-2.6s-.8,0-1,0h-.1v3.8c0,.3.3.8.5.9.3.2,1,.2,1.4.2,1.3,0,2.4-.7,2.4-2.4M2325.8,76.9h5.2c1.1,0,3.4.5,3.4,2.7s-.7,1.9-1.7,2.3h0c1.4.4,2.6,1.2,2.6,2.8s-1,2.6-2.4,3.2c-.9.4-2,.5-3.1.5h-4.4c-.1,0,.1-.6.2-.7.3,0,.6,0,.8,0,.4,0,.5-.3.6-.9v-8.1c0-.5-.2-.7-.6-.8-.3,0-.7,0-1.1-.2,0,0,.2-.6.3-.7"/>
      <path class="cls-18" d="M2258.7,88.4v-.6c.2,0,.5,0,.7,0,.3,0,.5-.3.5-.7v-4.2h0c0-.2,0-.4-.2-.5-.3-.2-.6-.3-1-.4-.2,0-.2,0-.2-.2s.1-.2.3-.3c.5,0,2-.4,2.5-.7v1.1s0,0,.2,0h0c1.1-.8,2-1.1,2.5-1.1.8,0,1.4.4,1.9,1.2h.2c1-.7,1.9-1.2,2.6-1.2,1.5,0,2.4,1.1,2.4,3.1s0,1.3,0,1.9v1.5c0,.4.1.3.3.4s.5.2,1,.2h0v.6h-3.8v-.6c.2,0,.4,0,.6,0,.3,0,.4-.3.4-.7v-3.6c0-.7-.6-1.4-1.7-1.4s-1.1.2-1.7.6v.2h0v4.5c0,.4.2.4.4.5h.2c.1,0,.3,0,.5,0v.7h-3.7v-.6h.2c.2,0,.4,0,.5,0,.3,0,.4-.2.4-.6v-3.8c-.2-1-.7-1.4-1.6-1.4s-1.2.2-1.7.6c-.1,0-.2.2-.2.4v4.3c0,.2,0,.4.5.5h.7v.6h-3.8"/>
      <path class="cls-18" d="M2277.5,81.5c-.3,0-.6,0-.9.3-.7.4-1,1.2-1,2.3,0,2.2,1.1,3.7,2.6,3.7s.8,0,1.1-.4c.5-.4.7-1.2.7-2.3,0-2.1-1.1-3.6-2.6-3.6M2277.8,88.6c-2.8,0-3.8-2.1-3.8-4s.6-2.4,1.6-3.1c.8-.5,1.6-.7,2.5-.7,2.1,0,3.6,1.5,3.6,3.8s-.6,2.7-1.7,3.4c-.5.3-1.5.7-2.3.7"/>
      <path class="cls-18" d="M2306.1,81.5c-.3,0-.6,0-.9.3-.7.4-1,1.2-1,2.3,0,2.2,1.1,3.7,2.6,3.7s.8,0,1.1-.4c.5-.4.7-1.2.7-2.3,0-2.1-1.1-3.6-2.6-3.6M2306.4,88.6c-2.8,0-3.8-2.1-3.8-4s.6-2.4,1.6-3.1c.8-.5,1.6-.7,2.5-.7,2.1,0,3.6,1.5,3.6,3.8s-.6,2.7-1.7,3.4c-.5.3-1.5.7-2.3.7"/>
      <path class="cls-18" d="M2296.6,81.4c-.9,0-1.4.7-1.4,1.7s.5,2.3,1.8,2.3.7,0,.9-.3c.3-.3.5-.9.5-1.5,0-1.4-.7-2.2-1.8-2.2M2296.5,88.8c-.2,0-.5,0-.7.2-.7.4-1,.9-1,1.4s.2.9.6,1.2c.5.4,1.1.6,2,.6,1.7,0,2.4-.9,2.4-1.8s-.3-1-1-1.3c-.5-.2-1.3-.3-2.3-.3M2296.6,93.1c-1,0-1.7-.2-2.4-.7-.6-.5-.9-1.2-.9-1.6s.1-.6.3-.8c.2-.2.6-.6,1.5-1.2h0c-.8-.3-1-.8-1.1-1.1h0v-.3c.1,0,.3-.2.5-.3.3,0,.5-.3.8-.5v-.2h0c-1.1-.4-1.7-1.2-1.7-2.5s.4-1.6,1.1-2.1c.5-.4,1.6-.8,2.4-.8h0c.8,0,1.2.2,1.8.4.3,0,.7.2,1.1.2.6,0,.9-.2,1.2-.4v.3c0,.3,0,.5-.2.8-.1.2-.4.3-.7.3s0,0,0,0h-.4c0,.3,0,.6.1.8,0,1.4-.5,2-1.1,2.4s-1.2.7-1.9.7h-.4c-.1,0-.5.2-.5.5s.1.5.9.6h.5c.9,0,2.1.2,2.7.4.8.3,1.2,1,1.2,1.8,0,1.2-.9,2.4-2.3,3.1-.7.3-1.4.5-2.2.5"/>
      <path class="cls-18" d="M2292.3,87.8c-.4,0-.7,0-1.1-.3,0,0-.1-.2-.1-.3v-3.3c0-1.1-.1-1.7-.5-2.2-.4-.6-1.1-1-1.9-1s-1.7.5-2.5,1.2c0,0-.1,0-.1,0v-.8c0,0,0-.3-.1-.3-.5.3-2,.6-2.5.7-.4,0-.5.5,0,.6h0c.3,0,.7.2,1,.4.2,0,.1.3.1.5v4.2c0,.4-.1.6-.4.6h0c-.2,0-.5,0-.7,0v.7h3.8c.1,0,.1-.6,0-.7-.3,0-.5,0-.8,0-.3,0-.4-.2-.4-.6v-4c0-1.3,0-.5.2-.6.4-.3,1-.6,1.5-.6s.9.2,1.1.4c.3.3.5.6.5,1v3.3c0,1.2,0,.8-.3.9-.1,0-.4,0-.8,0-.1,0,0,.6,0,.7h3.8c.1,0,.1-.6,0-.7"/>
      <path class="cls-11" d="M2430.5.2c.2,0,.4,0,.5.3.1.2,0,.4,0,.6h0l-21.9,29.7c-.2.2-.4.3-.6.3s-.5-.1-.6-.3h0l-7.7-8.6c-.2-.2-.5-.3-.7-.3s-.5.2-.7.4h0l-4.7,5.9c-.1.3,0,.7.1,1h0l13.9,14.4c.2.2.4.3.6.3s.5,0,.6-.3h0l27.3-30.7c.2-.2.4-.2.6-.1.2,0,.4.3.4.5h0v82.7c0,.2,0,.3-.2.5-.1,0-.3.2-.5.2h-83.2c-.2,0-.3,0-.5-.2-.1,0-.2-.3-.2-.5h0V.8c0-.2,0-.3.2-.5.1,0,.3-.2.5-.2h76.8ZM2409,50.6c-3.8,0-7.4,1.4-10,4.1-2.7,2.7-4.1,6.3-4,10.1,0,8.7,6.3,14.3,14.5,14.3s7.5-1.1,10.6-3.3c.3-.3.3-.7.1-1h0l-2.3-3.4c-.3-.3-.7-.3-1,0-2,1.4-4.3,2.1-6.7,2.2-4.4,0-7.2-2.8-7.7-6.1,0,0,.1-.2.3-.3h19.1c.4,0,.7-.4.8-.8h0v-.8c0-8.9-5.6-14.9-13.7-14.9h0ZM2390.2,45.8c-3.8-3.1-8.7-4.8-13.7-4.6-8.6,0-13.9,5.1-13.9,11.1,0,13.8,21,9.4,21,15.8s-2,4-6.3,4-8-1.5-11-4.3c-.2-.2-.4-.2-.7-.2s-.5.2-.6.4h0l-3.3,4.6c-.2.3-.2.8.1,1,3.4,3.2,8.2,5.3,14.9,5.3,9.9,0,14.7-5.1,14.9-11.6,0-13.7-21-9.7-21-15.6s1.9-3.7,5.2-3.7,7.2,1.2,10,3.4c.2,0,.4.2.6.2s.4,0,.5-.3h0l3.3-4.4c.1-.2.2-.4.2-.6s-.1-.4-.3-.5h.1ZM2409.2,56.2c3.4-.2,6.4,2.4,6.7,5.8,0,0-.1.2-.3.3h-12.9c-.1,0-.2,0-.3-.3.4-3.4,3.3-5.9,6.7-5.8h.1Z"/>
      <rect class="cls-16" x="2446.5" y="-1.4" width="86.6" height="99.1"/>
      <g id="_x31_8979_-_Regression_Testing">
        <g>
          <path class="cls-4" d="M2523.3,42.2c-.6,0-1-.4-1.2-1-.8-4-2.2-7.6-4.3-11-.3-.5-.2-1.1.2-1.5l1.8-1.8-8.9-8.9-1.8,1.8c-.4.4-1,.5-1.5.1-3.4-2.2-7-3.6-11-4.4-.5,0-.9-.6-.9-1.2v-2.1h-11.7v2.1c0,.6-.4,1-.9,1.2-4.1.8-7.7,2.3-11,4.4-.5.3-1.1.2-1.5-.1l-1.8-1.8-8.9,8.9,1.8,1.8c.4.4.5,1,.2,1.5-2.1,3.4-3.6,6.9-4.3,10.9-.1.5-.6.9-1.2.9h-2.2v11.7h2.2c.6,0,1.1.4,1.2,1,.8,4.1,2.2,7.7,4.4,11.1.3.5.2,1.1-.1,1.5l-1.9,1.9,8.9,8.9,1.9-1.9c.4-.4,1-.5,1.5-.2,3.4,2.1,6.9,3.5,10.9,4.3.5,0,1,.6,1,1.2v2.1h11.7v-2.1c0-.6.4-1,1-1.2,4-.8,7.6-2.2,10.9-4.3.5-.3,1.1-.2,1.5.2l1.9,1.9,8.9-8.9-1.9-1.9c-.4-.4-.5-1-.1-1.5,2.2-3.4,3.6-7,4.4-11.1,0-.5.6-1,1.2-1h2.2v-11.6h-2.6ZM2489.7,75.4c-15.1,0-27.4-12.3-27.4-27.4s12.3-27.4,27.4-27.4,27.4,12.3,27.4,27.4-12.3,27.4-27.4,27.4Z"/>
          <path class="cls-4" d="M2500.5,53.9h-1.9l-2.9,13.1h3.5l2.8-13.2c-.4,0-.9,0-1.4,0h-.1Z"/>
          <path class="cls-4" d="M2476.5,57l13.2-5v-12.7l-13.2-6v23.8h0ZM2485,42.1c0-.6.5-1.2,1.2-1.2s1.2.5,1.2,1.2v7.1c0,.6-.5,1.2-1.2,1.2s-1.2-.5-1.2-1.2v-7.1h0ZM2480.2,39.7c0-.6.5-1.2,1.2-1.2s1.2.5,1.2,1.2v11.9c0,.6-.5,1.2-1.2,1.2s-1.2-.5-1.2-1.2c0,0,0-11.9,0-11.9Z"/>
          <rect class="cls-4" x="2492.1" y="39.7" width="7.1" height="11.9"/>
          <path class="cls-4" d="M2501.7,39.8v11.7c2.7-.5,4.7-3,4.7-5.8s-2-5.3-4.7-5.8h0Z"/>
        </g>
      </g>
      <g id="_x32_6175_-_Manual_Testing">
        <g>
          <path class="cls-4" d="M2550.5,60.7c0,.4.3.7.7.7h67.1c.4,0,.7-.3.7-.7V17.3h-68.6v43.4h.1ZM2565.3,37.5c0-.5.3-.9.7-1.2l3.3-1.9c.4-.2.9-.2,1.3,0,.2-.5.4-1,.6-1.6-.4,0-.8-.5-.9-.9l-1-3.7c-.1-.5,0-1,.3-1.3l2.7-2.7c.3-.3.9-.5,1.3-.3l3.7,1c.4.1.8.5.9.9.5-.2,1-.5,1.6-.6-.2-.4-.2-.9,0-1.3l1.9-3.3c.3-.4.7-.7,1.2-.7h3.8c.5,0,.9.3,1.2.7l1.9,3.3c.2.4.3.9,0,1.3.5.2,1,.4,1.6.6.1-.4.5-.8.9-.9l3.7-1c.5-.1,1,0,1.3.3l2.7,2.7c.3.3.5.9.3,1.3l-1,3.7c-.1.4-.5.8-.9.9.2.5.5,1,.6,1.6.4-.2.9-.2,1.3,0l3.3,1.9c.4.3.7.7.7,1.2v3.8c0,.5-.3.9-.7,1.2l-3.3,1.9c-.4.2-.9.3-1.3,0-.2.5-.4,1-.6,1.6.4,0,.8.5.9.9l1,3.7c.1.5,0,1-.3,1.3l-2.7,2.7c-.3.3-.9.5-1.3.3l-3.7-1c-.4,0-.8-.5-.9-.9-.5.2-1,.5-1.6.6.2.4.2.9,0,1.3l-1.9,3.3c-.2.4-.7.7-1.2.7h-3.8c-.5,0-.9-.3-1.2-.7l-1.9-3.3c-.2-.4-.2-.9,0-1.3-.5-.2-1-.4-1.6-.6-.1.4-.5.8-.9.9l-3.7,1c-.5,0-1,0-1.3-.3l-2.7-2.7c-.3-.3-.5-.9-.3-1.3l1-3.7c.1-.4.5-.8.9-.9-.3-.5-.5-1-.6-1.6-.4.2-.9.2-1.3,0l-3.3-1.9c-.4-.3-.7-.7-.7-1.2v-3.8h0Z"/>
          <path class="cls-4" d="M2570.7,41.1c.4-.2.8-.2,1.2,0s.7.5.8.9c.3,1.4.9,2.8,1.7,4,.2.4.3.8.1,1.2s-.5.7-.9.8l-.9.2-.6,2.1,1.6,1.6,2.1-.6.2-.9c.1-.4.4-.8.8-.9s.9,0,1.2,0c1.2.8,2.6,1.4,4,1.7.4,0,.8.4.9.8.2.4.2.9,0,1.2l-.4.8,1.1,1.9h2.2l1.1-1.9-.4-.8c-.2-.4-.2-.8,0-1.2s.5-.7.9-.8c1.4-.3,2.8-.9,4-1.7.4-.2.8-.3,1.2,0s.7.5.8.9l.2.9,2.1.6,1.6-1.6-.6-2.1-.9-.2c-.4,0-.8-.4-.9-.8s-.1-.9.1-1.2c.8-1.2,1.4-2.6,1.7-4,0-.4.4-.8.8-.9.4-.2.9-.2,1.2,0l.8.4,1.9-1.1v-2.2l-1.9-1.1-.8.4c-.4.2-.8.2-1.2,0s-.7-.5-.8-.9c-.3-1.4-.9-2.8-1.7-4-.2-.4-.3-.8-.1-1.2.2-.4.5-.7.9-.8l.9-.2.6-2.1-1.6-1.6-2.1.6-.2.9c-.1.4-.4.8-.8.9-.4.2-.9.1-1.2-.1-1.2-.8-2.6-1.4-4-1.7-.4,0-.8-.4-.9-.8-.2-.4-.1-.9,0-1.2l.4-.8-1.1-1.9h-2.2l-1.1,1.9.4.8c.2.4.2.8,0,1.2-.2.4-.5.7-.9.8-1.4.3-2.8.9-4,1.7-.4.2-.8.3-1.2.1-.4-.2-.7-.5-.8-.9l-.2-.9-2.1-.6-1.6,1.6.6,2.1.9.2c.4.1.8.4.9.8s.1.9-.1,1.2c-.8,1.2-1.4,2.6-1.7,4,0,.4-.4.8-.8.9-.4.2-.9.2-1.2,0l-.8-.4-1.9,1.1v2.2l1.9,1.1.8-.4ZM2584.8,33.5c3.2,0,5.8,2.6,5.8,5.9s-2.6,5.9-5.8,5.9-5.9-2.6-5.9-5.9,2.6-5.8,5.9-5.9Z"/>
          <path class="cls-4" d="M2618.4,7.5h-67.1c-.4,0-.7.3-.7.7v6.4h68.6v-6.4c0-.4-.3-.7-.7-.7h-.1ZM2559.3,12.8c-1,0-1.8-.8-1.8-1.8s.8-1.8,1.8-1.8,1.8.8,1.8,1.8-.8,1.8-1.8,1.8ZM2569.5,12.8c-1,0-1.8-.8-1.8-1.8s.8-1.8,1.8-1.8,1.8.8,1.8,1.8-.8,1.8-1.8,1.8ZM2579.7,12.8c-1,0-1.8-.8-1.8-1.8s.8-1.8,1.8-1.8,1.8.8,1.8,1.8-.8,1.8-1.8,1.8Z"/>
          <path class="cls-4" d="M2551.5,87.3l-5.1-10.5h0c-.2-.2-.4-.4-.5-.6h-.2l-1.5.7c-.1,0-.2,0-.2.2v.3l5.8,11.9c0,.2.3.3.5.2l1.5-.7c.2,0,.3-.3.2-.5l-.5-.9h0Z"/>
          <path class="cls-4" d="M2587.1,71.1c-.6,0-1.1,0-1.6.3l-9.2,6.7c-.1.2-.2.4-.4.5-.9,1.3-2.5,2-4.1,2h-8c-.8,0-1.4-.6-1.4-1.4s.6-1.4,1.4-1.4h8c.8,0,1.5-.3,1.9-.9,0,0,.2-.3.2-.4h0c.2-.5.2-.8-.2-1.3-.4-.6-1.2-.9-1.9-.9h-9.4c-1.3,0-2.6-.3-3.8-.8-2.2-1-6.3-1.9-9.9,2.1l4.5,9.3.6-.2c.7-.3,1.4-.3,2.1-.3,13.8,1,17.7-.3,18.1-.5l13.7-9.3c.6-.4.9-1,.9-1.7s-.1-.8-.3-1.1c-.3-.4-.8-.7-1.3-.8h0Z"/>
        </g>
      </g>
    </g>
  </g>
</svg>