<?xml version="1.0" encoding="UTF-8"?>
<svg xmlns="http://www.w3.org/2000/svg" version="1.1" viewBox="0 0 84 96">
  <defs>
    <style>
      .cls-1 {
        fill: #fff;
        fill-rule: evenodd;
      }

      .cls-2 {
        fill: #3fc6f0;
      }

      .cls-3 {
        fill: #e7f6fc;
      }
    </style>
  </defs>
  <!-- Generator: Adobe Illustrator 28.6.0, SVG Export Plug-In . SVG Version: 1.2.0 Build 709)  -->
  <g>
    <g id="Layer_1">
      <rect class="cls-3" x="-1.9" y="-2.1" width="87.8" height="99.5"/>
      <path class="cls-1" d="M4803.7-375.5h2500v2500h-2500V-375.5Z"/>
      <circle class="cls-2" cx="42.1" cy="48" r="7.1"/>
      <g>
        <path class="cls-2" d="M42.1,64.3c-22.5,0-40-7.2-40-16.4s17.6-16.4,40-16.4,40,7.2,40,16.4-17.6,16.4-40,16.4ZM42.1,35.1c-21.5,0-36.6,6.8-36.6,12.9s15,12.9,36.6,12.9,36.6-6.8,36.6-12.9-15-12.9-36.6-12.9Z"/>
        <path class="cls-2" d="M58.1,83.7c-3.5,0-7.8-1.9-12.5-5.7-6.2-5-12.4-12.8-17.7-21.8-5.2-9-8.8-18.3-10-26.2-1.3-8.4,0-14.3,4.2-16.7,8-4.6,23,7.1,34.2,26.5h0c5.2,9,8.8,18.3,10,26.2,1.3,8.4,0,14.3-4.2,16.7-1.2.7-2.6,1-4,1ZM26.1,15.8c-.9,0-1.6.2-2.3.6-2.7,1.5-3.6,6.3-2.5,13.1,1.2,7.4,4.6,16.3,9.6,25s11,16.1,16.8,20.8c5.3,4.3,9.9,5.9,12.6,4.4s3.6-6.3,2.5-13.1c-1.2-7.4-4.6-16.3-9.6-25h0c-9.5-16.4-20.9-25.8-27.2-25.8h0Z"/>
        <path class="cls-2" d="M26.2,83.7c-1.5,0-2.8-.3-4-1-4.1-2.3-5.5-8.3-4.2-16.7,1.3-7.9,4.8-17.2,10-26.2,11.2-19.4,26.2-31.1,34.2-26.5,7.9,4.6,5.4,23.4-5.8,42.9h0c-5.2,9-11.5,16.8-17.7,21.8-4.7,3.8-8.9,5.7-12.5,5.7ZM58.1,15.8c-6.2,0-17.7,9.4-27.2,25.8-5,8.7-8.4,17.6-9.6,25-1.1,6.8-.2,11.6,2.5,13.1s7.3,0,12.6-4.4c5.8-4.8,11.8-12.1,16.8-20.8,10.8-18.7,12.4-35.1,7.1-38.1-.6-.4-1.4-.6-2.3-.6h0Z"/>
      </g>
    </g>
  </g>
</svg>