<?xml version="1.0" encoding="UTF-8"?>
<svg xmlns="http://www.w3.org/2000/svg" version="1.1" viewBox="0 0 84 96">
  <defs>
    <style>
      .cls-1 {
        fill: #fff;
        fill-rule: evenodd;
      }

      .cls-2 {
        fill: #34b04a;
      }
    </style>
  </defs>
  <!-- Generator: Adobe Illustrator 28.6.0, SVG Export Plug-In . SVG Version: 1.2.0 Build 709)  -->
  <g>
    <g id="Layer_1">
      <path class="cls-1" d="M4803.7-375.5h2500v2500h-2500V-375.5Z"/>
      <path class="cls-2" d="M77.4,0c.2,0,.4,0,.5.3.1.2,0,.4,0,.6h0l-21.9,29.7c-.2.2-.4.3-.6.3s-.5-.1-.6-.3h0l-7.7-8.6c-.2-.2-.5-.3-.7-.3s-.5.2-.7.4h0l-4.7,5.9c-.1.3,0,.7.1,1h0l13.9,14.4c.2.2.4.3.6.3s.5,0,.6-.3h0l27.3-30.7c.2-.2.4-.2.6-.1.2,0,.4.3.4.5h0v82.7c0,.2,0,.3-.2.5-.1,0-.3.2-.5.2H.6c-.2,0-.3,0-.5-.2-.1,0-.2-.3-.2-.5H0V.6C0,.4,0,.3.1.1.2,0,.4,0,.6,0h76.8ZM55.9,50.4c-3.8,0-7.4,1.4-10,4.1-2.7,2.7-4.1,6.3-4,10.1,0,8.7,6.3,14.3,14.5,14.3s7.5-1.1,10.6-3.3c.3-.3.3-.7.1-1h0l-2.3-3.4c-.3-.3-.7-.3-1,0-2,1.4-4.3,2.1-6.7,2.2-4.4,0-7.2-2.8-7.7-6.1,0,0,.1-.2.3-.3h19.1c.4,0,.7-.4.8-.8h0v-.8c0-8.9-5.6-14.9-13.7-14.9h0ZM37.1,45.6c-3.8-3.1-8.7-4.8-13.7-4.6-8.6,0-13.9,5.1-13.9,11.1,0,13.8,21,9.4,21,15.8s-2,4-6.3,4-8-1.5-11-4.3c-.2-.2-.4-.2-.7-.2s-.5.2-.6.4h0l-3.3,4.6c-.2.3-.2.8.1,1,3.4,3.2,8.2,5.3,14.9,5.3,9.9,0,14.7-5.1,14.9-11.6,0-13.7-21-9.7-21-15.6s1.9-3.7,5.2-3.7,7.2,1.2,10,3.4c.2,0,.4.2.6.2s.4,0,.5-.3h0l3.3-4.4c.1-.2.2-.4.2-.6s-.1-.4-.3-.5h.1ZM56.1,56c3.4-.2,6.4,2.4,6.7,5.8,0,0-.1.2-.3.3h-12.9c-.1,0-.2,0-.3-.3.4-3.4,3.3-5.9,6.7-5.8h.1Z"/>
    </g>
  </g>
</svg>