<?xml version="1.0" encoding="UTF-8"?>
<svg xmlns="http://www.w3.org/2000/svg" version="1.1" viewBox="0 0 84 96">
  <defs>
    <style>
      .cls-1 {
        fill: #fff;
      }

      .cls-1, .cls-2, .cls-3 {
        fill-rule: evenodd;
      }

      .cls-4 {
        fill: #eaeaea;
      }

      .cls-2, .cls-5 {
        fill: #3275b9;
      }

      .cls-5 {
        font-family: Poppins-SemiBold, Poppins;
        font-size: 16.8px;
        font-weight: 600;
      }

      .cls-5, .cls-6 {
        isolation: isolate;
      }

      .cls-3 {
        fill: #ca3232;
      }
    </style>
  </defs>
  <!-- Generator: Adobe Illustrator 28.6.0, SVG Export Plug-In . SVG Version: 1.2.0 Build 709)  -->
  <g>
    <g id="Layer_1">
      <rect class="cls-4" x="-1.9" y="-1.8" width="87.8" height="99.5"/>
      <path class="cls-1" d="M4803.7-375.5h2500v2500h-2500V-375.5Z"/>
      <path class="cls-2" d="M30.1,58.5s-2.8,1.6,2,2.2c5.8.7,8.8.6,15.2-.6,0,0,1.7,1.1,4,2-14.3,6.1-32.5-.4-21.2-3.5h0ZM28.4,50.5s-3.1,2.3,1.7,2.8c6.2.6,11.1.7,19.6-.9,0,0,1.2,1.2,3,1.8-17.3,5.1-36.7.4-24.3-3.7h0Z"/>
      <path class="cls-3" d="M43.2,36.9c3.5,4.1-.9,7.7-.9,7.7,0,0,9-4.6,4.9-10.4-3.8-5.4-6.8-8.1,9.2-17.4,0,0-25.1,6.3-13.1,20.1h0Z"/>
      <path class="cls-2" d="M62.1,64.4s2.1,1.7-2.3,3c-8.3,2.5-34.5,3.3-41.7,0-2.6-1.1,2.3-2.7,3.8-3,1.6-.3,2.5-.3,2.5-.3-2.9-2-18.8,4-8.1,5.8,29.2,4.7,53.3-2.1,45.7-5.6h0ZM31.5,42.1s-13.3,3.2-4.7,4.3c3.6.5,10.9.4,17.6-.2,5.5-.5,11-1.5,11-1.5,0,0-1.9.8-3.3,1.8-13.5,3.6-39.7,1.9-32.1-1.7,6.4-3.1,11.5-2.7,11.5-2.7h0ZM55.4,55.5c13.7-7.1,7.4-14,3-13.1-1.1.2-1.6.4-1.6.4,0,0,.4-.6,1.2-.9,8.8-3.1,15.5,9.1-2.8,13.9,0,0,.2-.2.3-.4h0Z"/>
      <path class="cls-3" d="M47.1,1.8s7.6,7.6-7.2,19.3c-11.9,9.4-2.7,14.8,0,20.9-6.9-6.3-12-11.8-8.6-16.9,5-7.5,18.9-11.2,15.9-23.3h-.1Z"/>
      <path class="cls-2" d="M32.8,74.9c13.2.8,33.5-.5,33.9-6.7,0,0-.9,2.4-10.9,4.2-11.3,2.1-25.2,1.9-33.4.5,0,0,1.7,1.4,10.4,2Z"/>
      <g class="cls-6">
        <text class="cls-5" transform="translate(7.9 91.7)"><tspan x="0" y="0">Servlets</tspan></text>
      </g>
    </g>
  </g>
</svg>