<?xml version="1.0" encoding="UTF-8"?>
<svg xmlns="http://www.w3.org/2000/svg" xmlns:xlink="http://www.w3.org/1999/xlink" version="1.1" viewBox="0 0 84 96">
  <defs>
    <style>
      .cls-1 {
        fill: #fff;
        fill-rule: evenodd;
      }

      .cls-2 {
        fill: #fef3f3;
      }

      .cls-3 {
        fill: url(#linear-gradient-2);
      }

      .cls-4 {
        fill: url(#radial-gradient);
      }

      .cls-5 {
        fill: url(#linear-gradient);
      }

      .cls-6 {
        fill: #23201f;
      }
    </style>
    <linearGradient id="linear-gradient" x1="-18235.5" y1="-10756.9" x2="-18106.7" y2="-10680.8" gradientTransform="translate(0 98) scale(1 -1)" gradientUnits="userSpaceOnUse">
      <stop offset="0" stop-color="#909ca9"/>
      <stop offset="1" stop-color="#eeeded"/>
    </linearGradient>
    <linearGradient id="linear-gradient-2" x1="-34546.8" y1="88.1" x2="-34443.3" y2="88.1" gradientTransform="translate(0 98) scale(1 -1)" gradientUnits="userSpaceOnUse">
      <stop offset="0" stop-color="#949fab"/>
      <stop offset="1" stop-color="#dcdee1"/>
    </linearGradient>
    <radialGradient id="radial-gradient" cx="24605.1" cy="2999.4" fx="24605.1" fy="2999.4" r="137.6" gradientTransform="translate(0 98) scale(1 -1)" gradientUnits="userSpaceOnUse">
      <stop offset="0" stop-color="#ef392d"/>
      <stop offset="1" stop-color="#a91f24"/>
    </radialGradient>
  </defs>
  <!-- Generator: Adobe Illustrator 28.6.0, SVG Export Plug-In . SVG Version: 1.2.0 Build 709)  -->
  <g>
    <g id="Layer_1">
      <path class="cls-1" d="M4803.7-375.5h2500v2500h-2500V-375.5Z"/>
      <rect class="cls-2" x="-1.5" y="-1.6" width="87.8" height="99.5"/>
      <g>
        <path class="cls-5" d="M55.8,35.1l-13.5,4.4-11.8,5.2-3.3.9c-.8.8-1.7,1.6-2.7,2.4-1,.9-2,1.7-2.8,2.3-.8.7-2.1,1.9-2.7,2.7-.9,1.2-1.7,2.4-2,3.4-.6,1.7-.3,3.5.8,5.1,1.4,2,4.2,4.1,7.4,5.6,1.6.7,4.4,1.7,6.5,2.2,3.5.9,10.2,1.8,13.9,2h1.8s.7-1.1,1.3-2.5c2.3-4.6,3.9-9,4.8-12.7.5-2.3,1-5.2,1.2-8.8,0-1,.1-4.3,0-5.4,0-1.8-.3-3.3-.5-4.8v-.4s.2,0,1.8-.6l-.3-.8h0v-.2ZM52.8,36.9c.1,0,.4,3.1.5,5.1v.7s-1.7-1-2.9-1.7c-1-.6-3-1.9-3.3-2.2-.1,0,0,0,.7-.4,1.4-.5,4.8-1.6,4.9-1.6h.1ZM45.8,39.2s.3,0,.9.5c2.1,1.3,5,2.9,6.2,3.4.4.2.4,0-.5.7-1.9,1.3-4.2,2.5-7,3.8-.5.2-.9.4-.9.4,0,0,0-.3.1-.6.7-2.5,1.1-5.1,1.1-7.2s0-1,.1-1.1c.1,0,0,0,0,0h0ZM44.5,39.7v3c-.2,1.5-.5,2.9-.9,4.4-.1.4-.2.7-.2.7,0,0-1.4-1.3-1.9-1.9-.8-.9-1.4-1.8-1.9-2.7-.2-.5-.6-1.4-.6-1.4.2,0,5.6-2.2,5.6-2.2h-.1ZM37.8,42.3h0s0,.2.2.4c.3.9,1.1,2.2,1.7,3,.7.9,1.6,1.9,2.4,2.5.2.2.5.4.5.4l-1.6.7c-1.9.7-4,1.5-6.5,2.3-.6.2-1.2.4-1.7.6l.2-.4c1.2-1.9,3-5.5,4-8.1.2-.5.3-.9.4-1,0,0,0-.2.2-.3h.2ZM35.7,43.2s-.5,1.1-1,2.1c-1,1.9-2.1,3.8-3.5,6.1-.2.4-.5.8-.5.8l-.2-.3c-.3-.7-.6-1.6-.8-2.4-.2-.8-.1-2.2,0-3q.1-.6.4-.8c1.3-.7,5.5-2.6,5.6-2.6h0ZM53.3,43.9v.4c0,2.3-.2,5.4-.6,7.7,0,.4-.1.7-.1.7,0,0-.3,0-.6-.2-1.5-.5-3.2-1.2-4.7-2-1-.5-2.4-1.4-2.4-1.5,0,0,.4-.2.9-.5,2-1,3.9-2.2,5.6-3.3.6-.4,1.6-1.1,1.8-1.3h.2c0,0,0,0,0,0ZM28,46.9v.5c0,.3,0,.8-.1,1.1,0,1.5.2,2.6.9,4.1.2.4.4.8.4.8,0,0-6.8,2-9,2.6-.6.2-1.2.3-1.2.3v-.2c.2-1.5,1.4-3.5,3-5.1,1.1-1.1,1.9-1.7,3.4-2.6s2.6-1.5,2.8-1.5h-.2ZM44,49.8s.3,0,.6.3c2.2,1.3,5.2,2.4,7.8,3h.2l-.3.2c-1.4.8-5.8,2.6-10.4,4.3-.7.2-1.3.5-1.4.5h-.2s.2-.4.4-.8c1.3-2.4,2.6-5.3,3.2-7.3,0-.2.1-.4.1-.4h0v.2ZM42.3,50.3s0,.2-.2.5c-.9,2.2-2.1,4.5-3.5,7.1-.4.7-.7,1.2-.7,1.2,0,0-.3-.2-.7-.4-2.2-1.3-4.1-3-5.3-4.6l-.2-.2.9-.3c3.3-.9,6.2-1.9,9-3.1.4-.2.7-.3.7-.3h0ZM52.3,53.9h0c0,.2-.5,2.3-.9,3.9-.4,1.3-.7,2.3-1.2,4.1-.2.8-.5,1.4-.5,1.4h-.1c-3-.6-5.8-1.3-8.3-2.3-.7-.3-1.7-.7-1.8-.8,0,0,.6-.3,1.4-.6,4.7-2,9.5-4.3,11.1-5.3.2,0,.3-.2.4-.2h0v-.2ZM29,54.7s-1.3,1.9-3.1,4.4c-.6.9-1.4,1.9-1.6,2.3-.3.4-.7,1-.9,1.4l-.4.7-.5-.4c-.5-.5-1.5-1.4-1.9-1.9-.9-1.1-1.5-2.3-1.7-3.3-.1-.5-.1-.7,0-.8.2,0,2.9-.7,5.4-1.3,1.4-.3,3.1-.7,3.7-.9.6,0,1.1-.3,1.1-.3h-.1ZM30.3,55.2l.3.4c1.5,1.6,3,2.9,4.8,3.9.3.2.6.3.6.4,0,0-6.3,2.3-9.2,3.3-1.6.6-3,1-3,1,0,0-.1,0-.2,0h-.2c0,0,.3-.6.3-.6,1-1.4,2.2-2.9,4.8-6.1l1.8-2.2h0ZM38.5,61l1,.4c1.3.5,2.4.8,3.8,1.2,1.7.4,4.3.9,5.7,1h.3s-1.6.5-2.7.9c-1.8.6-7.1,2.1-11.5,3.4-.8.2-1.5.4-1.5.4-.1,0-.4,0-.4,0s.2-.3.5-.7c1.5-1.8,2.9-3.7,4.2-5.6.3-.5.6-.9.6-.9h0ZM36.8,61s-.7,1.2-2,3.2c-.5.8-1.1,1.8-1.4,2.1-.2.3-.5.8-.7,1.1l-.3.5h-.2c-.4,0-3-1.1-3.6-1.3-.8-.3-1.7-.7-2.4-1.1-.8-.4-1.8-1.1-1.8-1.1,0,0,1.4-.4,3.1-.8,4.5-1.2,7-1.9,8.6-2.4.3,0,.6-.2.6-.2h0ZM49.5,64h0c0,0-1.6,4.7-2.2,6.2-.1.3-.2.4-.3.4-.2,0-2.6-.3-4-.6-2.5-.4-6.8-1.1-7.9-1.4h-.2l1.5-.4c3.3-.7,4.8-1.1,6.4-1.6,2-.6,4-1.4,6-2.3.3,0,.6-.3.7-.3h0Z"/>
        <path class="cls-3" d="M41.8,3.6c-.2,0-3.9,1.3-6.2,2.2-3.2,1.3-5.6,2.5-7.1,3.6-.6.4-1.3,1.1-1.4,1.4v.3l1.4,1.3,3.3,1,7.8,1.4,8.9,1.5v-.8h0l-1.2-.2-.2-.4c-1.2-2.1-2.5-4.8-3.3-6.5-.6-1.4-1.2-3-1.5-4.1q-.2-.7-.3-.7h-.2ZM41.8,4.1h0v.6c.2,1.4.5,2.8,1,4.3q.4,1.1,0,.9c-1-.3-5.7-1.1-9.1-1.6-.5,0-1,0-1-.2,0,0,2.4-1.3,3.5-1.9,1.4-.6,5.2-2.3,5.5-2.3v.2ZM31.8,8.7h.4c2.2.9,7.6,1.9,10.6,2.2h.6s-.3.2-.6.3c-1.5.7-3,1.6-4.2,2.3-.3.2-.6.4-.7.4h-.9l-1-1.1c-1.8-1.7-3.2-3.1-3.8-3.6l-.5-.5h0ZM31.5,9l1.4,1.8c.8,1,1.6,2,1.8,2.2s.3.4.3.4c0,0-2.1-.4-3.2-.6-1.1-.3-1.6-.4-2.3-.6l-.6-.2h0c0-.8.9-1.9,2.4-2.9h.2ZM43.7,11.4l.2.4c.3.8,1.4,2.8,1.7,3.2,0,.1.2.1-1.2,0-3.5-.6-4.6-.7-4.6-.8s.1,0,.2-.2c1.1-.6,2.2-1.4,3.1-2.2.2-.2.5-.4.5-.4h.1Z"/>
        <path class="cls-4" d="M27.3,10.6s-.2.4,0,.9c.1.3.5.7,1,1.1,0,0,4.6,4.4,5.1,5.1,2.5,2.9,3.6,5.8,3.7,9.7,0,2.5-.4,4.8-1.6,7.4-2.1,4.6-6.6,9.8-13.5,15.5l1-.3c.7-.5,1.5-1,3.6-2.2,4.8-2.6,10.2-5.1,16.9-7.6,9.6-3.6,25.3-7.8,34.3-9.2h.9c0-.1-.1-.4-.1-.4-.8-1.3-1.4-2.1-2.1-2.9-2-2.4-4.3-4.4-7.3-6-4-2.2-9.2-4-15.8-5.3-1.2-.2-4-.7-6.2-1.1-4.7-.7-7.7-1.2-11-1.8-1.2-.2-3-.5-4.2-.8-.6-.1-1.8-.4-2.7-.7-.7-.3-1.8-.6-2-1.4h0ZM29.8,13.2s.2,0,.4.1c.4.1.9.3,1.5.5.4.1.9.2,1.4.4.6.2,1.1.3,1.1.3,0,0,1.1,3.4,1.5,4.6.1.5.2.9.2.9,0,0-.1-.2-.3-.4-1.2-2.1-3.1-4.2-5.3-6-.3-.2-.5-.4-.5-.4h0ZM35,14.5h.6c1.7.4,4.9,1,6.9,1.3.3,0,.6.1.6.1,0,0-.1,0-.3.2-.3.2-1.7,1-2.1,1.3-1.1.8-2.2,1.6-2.9,2.3-.3.3-.6.5-.6.5,0,0,0-.2-.1-.4-.4-1.4-1.1-3.5-1.8-5-.1-.2-.2-.4-.2-.5h0v.2ZM43.8,16.2s.2.4.4,1.1c.4,1.5.6,3.1.5,4.7v.9h0c0,.1-.5,0-.5,0-1.1-.3-2.9-.9-4.4-1.3-.9-.2-1.6-.5-1.6-.5,0,0,1.3-1.3,1.8-1.8,1-.9,3.8-3.1,3.9-3h0ZM44.5,16.3s4.2.7,6.1,1.1c1.4.3,3.5.7,3.6.8,0,0-.2.1-.8.4-2.7,1.2-4.7,2.3-6.7,3.6-.5.3-1,.6-1,.6v-.7c0-1.9-.4-3.9-1.1-5.6,0-.2-.1-.3-.1-.3h0ZM55.3,18.5s-.1.9-.2,1.4c-.4,1.5-1.4,3.8-2.6,5.9-.2.4-.4.7-.4.7,0,0-.3-.1-.6-.3-1.2-.7-2.5-1.4-4-2-.4-.2-.8-.3-.8-.3,0,0,3.2-2.2,5-3.3,1.4-.8,3.6-2.1,3.7-2h0ZM56.2,18.6s2,.5,2.9.8c2.4.7,5.2,1.7,7,2.5l.7.3h-.5c-4.4,1.1-8.2,2.3-11.8,3.8l-.6.2s0-.2.2-.5c1.1-2.3,1.8-4.7,2-6.8v-.3h.1ZM37.5,22.9s1.5.3,2.2.5c1.2.3,3.6,1.2,3.6,1.2,0,0-.3.2-.6.5-1.3,1.1-2.6,2.3-4.2,3.8-.5.4-.8.8-.9.8s0,0,0-.1c.2-1.7.2-3.9-.1-6.2,0-.3,0-.5,0-.5ZM67.5,22.9s-.7,1.1-1.1,1.7c-.6.9-1.5,2-3.5,4.6-1.1,1.3-2.3,2.9-2.7,3.4-.4.5-.7.9-.8.9s-.1-.2-.3-.4c-1.1-1.7-2.5-3.2-4.1-4.6-.3-.3-.6-.5-.8-.6-.1,0-.2-.2-.2-.2,0,0,1.7-.8,3.1-1.3,2.3-.9,5.5-2.1,7.8-2.8,1.2-.4,2.6-.8,2.6-.7h0ZM68.3,23.1s.3.1.6.3c2.5,1.4,4.9,3.3,6.8,5.1.5.5,1.9,1.9,1.9,1.9h-1c-4.3.3-9.8,1.2-15.1,2.5-.4,0-.7.2-.7.2,0,0,.4-.4.9-.9,3.1-3,4.5-4.9,6.2-8.3.2-.5.4-.9.5-1q0,0,0,0h0v.2ZM45.5,25.4c.1,0,1.5.7,2.5,1.2.9.5,2.3,1.2,2.4,1.3,0,0-.5.3-1.1.6-1.9,1-3.6,1.9-5.3,2.9-.5.3-.9.5-.9.5l.2-.5c.9-1.7,1.7-3.7,2.1-5.6,0-.2,0-.3.1-.3h0ZM44.2,25.7s-.3,1.3-.5,2c-.4,1.3-1.1,2.9-1.8,4.2-.2.3-.4.7-.5.9l-.3.4-.6-.6c-.7-.6-1.2-1-1.9-1.4-.3-.1-.5-.3-.5-.3,0,0,1.7-1.7,3.1-2.8,1-.8,3-2.5,3-2.4h0ZM52.3,29l.5.3c1.1.7,2.5,1.7,3.5,2.6.6.5,1.7,1.5,1.9,1.7h.1c0,0-.8.4-.8.4-4.7,1.3-8.3,2.5-12.5,4-.5.2-.9.3-.9.3,0,0-.1,0,.9-.9,2.7-2.5,5.1-5.2,6.9-7.9l.4-.6h0ZM50.2,29.6s-1.4,2-2.2,3.1c-1,1.3-2.8,3.6-4,5-.5.6-1,1.1-1,1.1v-.4c0-1.2-.3-2.6-.9-3.7-.2-.5-.3-.6-.2-.6.2-.2,3.2-1.9,5.1-2.9,1.3-.7,3.3-1.7,3.3-1.7h-.1ZM37.3,32.7s.3,0,.5.3c.7.4,1.2.8,1.8,1.2,0,0-.2.2-.6.5-1,.7-2.4,1.8-3.3,2.5q-.9.7-.8.6c.7-1,1-1.6,1.4-2.4.3-.7.6-1.5.9-2.1,0-.3.2-.5.2-.5h0ZM40.7,35.4s.1,0,.4.5c.6.9,1,2,1.1,3v.2l-1.4.5c-2.5,1-4.8,1.9-6.4,2.6-.4.2-1.2.6-1.7.8-.5.3-.9.4-.9.4,0,0,.3-.2.7-.5,3.1-2.2,5.7-4.7,7.7-7.1.2-.3.4-.5.4-.5h0ZM39,35.8s-1.1,1.4-1.9,2.2c-2,2-3.9,3.6-6.4,5.1l-.6.4,1.1-1.2c.7-.7,1.2-1.3,1.8-2.1.4-.5.5-.6,1-1,1.5-1.1,5-3.4,5-3.4h0Z"/>
      </g>
      <path class="cls-6" d="M20.3,79.7h-.3c-2.2,0-3.6,1.1-4.5,2.9-.7,1.7-.6,3.9,0,5.5.8,1.6,2,2.5,4,2.8.4,0,.7.3,1.6,1.3l1,1.2h1.9l-1.2-1.3c-.7-.7-1.2-1.3-1.2-1.3,0,0,.3-.2.6-.3,1.1-.3,1.9-1.1,2.5-2.4.5-1,.6-1.3.6-2.6.2-3.7-1.8-6-5-6h0v.2ZM21.8,89.5c-.9.4-2.2.5-3.1.2-.9-.3-1.8-1.3-2.2-2.3-.4-1.2-.4-3.3.1-4.2.8-1.5,1.9-2.2,3.4-2.2,2.3,0,3.6,1.4,3.8,4,.1,2.2-.6,3.8-2,4.5h0ZM54.3,82.9c-.8,0-1.4.3-1.8.9l-.3.5v-1.3h-1.4v7.8h1.4v-2.5c0-2.3,0-2.5.3-3.2.4-.9,1.2-1.3,1.9-1.1h.5c0,0,0-1.2,0-1.2h-.6,0ZM46.3,82.8h-.8c-1.8.5-2.9,2.2-2.8,4,0,1.5.3,2.3,1,3,1.5,1.2,2.8,1.3,4.6.7.3,0,.6-.3.6-.3v-1.2l-.6.3c-1.5.6-2.6.6-3.5,0-.6-.6-.8-1.3-.9-2.1h5.5v-1c0-2.1-1.3-3.5-3.2-3.4h0ZM44,86.2s.2-1.3,1-1.9c.4-.3.8-.4,1.2-.4s.8,0,1.2.4c.7.5.8,1.8.8,1.8h-4.2ZM11.3,84.8c-1.5-.9-2.1-1.5-2.1-2.3.2-2.1,2.8-1.8,4.3-1v-1.4s-.8-.3-1.9-.4c-1.8,0-2.9.5-3.4,1.7-.8,1.7,0,3,2.4,4.5,1.4.8,2,1.5,2,2.3,0,1.6-1.9,2.2-3.9,1.2-.4-.2-.8-.4-.8-.4v1.5s.6.3,1.5.4c2.3.5,4.3-.6,4.5-2.3.2-1.6-.4-2.5-2.6-3.8h0ZM66.3,82.8h-.8c-1.8.5-2.8,2.2-2.8,4s.3,2.2,1,3c1.5,1.2,2.8,1.3,4.7.7.3,0,.6-.3.6-.3v-1.2l-.6.3c-1.5.6-2.6.6-3.5,0-.6-.6-.8-1.3-.9-2.1h5.5v-1c0-2.1-1.3-3.5-3.2-3.4h0ZM64.2,86.2s.2-1.3,1-1.9c.4-.3.8-.4,1.2-.4s.8,0,1.2.4c.7.5.8,1.8.8,1.8h-4.2ZM39.2,84.9c-1.5-.9-2.1-1.5-2.1-2.3.2-2.1,2.8-1.8,4.3-1v-1.4s-.8-.3-1.9-.4c-1.8,0-2.9.5-3.4,1.7-.8,1.7,0,3,2.4,4.5,1.4.8,2,1.5,2,2.3,0,1.6-1.9,2.2-3.9,1.2-.4-.2-.8-.4-.8-.4v1.5s.6.2,1.5.4c2.3.5,4.3-.6,4.5-2.3.2-1.6-.4-2.5-2.6-3.8h0ZM74.5,82.9c-.8,0-1.4.3-1.8.9l-.3.5v-1.3h-1.4v7.8h1.4v-2.5c0-2.3,0-2.5.3-3.2.4-.8,1.2-1.3,1.9-1.1h.5c0,0,0-1.2,0-1.2h-.6,0ZM28.3,84.8v-4.9h-1.4v10.9h5.8v-1.3h-4.4v-4.7h0ZM60.2,86.4l-1.1,2.9-1.1-3-1.1-3.3h-1.4c.9,2.6,1.9,5.2,2.9,7.8h1.3l1.5-3.8,1.6-3.9h-1.3s-.6,1.6-1.2,3.3h0ZM31.5,76.9c.2,0,.4,0,.6-.2.2-.2.2-.3.2-.5s0-.4-.2-.5-.3-.2-.5-.2-.4,0-.6.2c-.2.2-.2.3-.2.5s0,.4.2.5c.1,0,.3.2.5.2h0ZM31,75.6c.1,0,.3-.2.5-.2s.4,0,.5.2c.1,0,.2.3.2.5s0,.4-.2.5c-.1,0-.3.2-.5.2s-.4,0-.5-.2c-.1,0-.2-.3-.2-.5s0-.4.2-.5ZM31.3,76.2h0s.1,0,.2.2v.2h.3v-.3c-.2,0-.2-.2-.3-.2h.2v-.4h-.6v1h.1v-.4h.1ZM31.3,75.7h.3c0,.2,0,.3-.2.3h-.2v-.3h0ZM8.7,76.1v-.8h0c0,.2,0,.3.1.4l1.3,2.9h.2l1.3-3s0-.2.1-.4h0v3.4h.5v-3.9h-.6l-1.2,2.7c0,0-.1.3-.2.5h0c0,0,0-.3-.2-.5l-1.2-2.7h-.6v3.9h.4v-2.6h0ZM13.2,76.1h.4v2.4h-.4v-2.4ZM13.3,75.2h.2v-.4h-.4v.4h.2ZM16.3,78.6v-.4c-.2.2-.4.2-.7.2s-.5,0-.7-.3c-.2-.2-.3-.4-.3-.8s0-.6.3-.8c.2-.2.4-.3.7-.3s.5,0,.7.2v-.5c-.2,0-.4,0-.6,0-.4,0-.8,0-1,.4-.3.3-.4.6-.4,1.1s.1.7.4,1c.2.3.6.4,1,.4s.5,0,.8-.2h-.2ZM17.5,77.3c0-.3,0-.6.2-.8.1-.2.3-.2.5-.2h.3v-.5h-.3c-.2,0-.3,0-.4.2-.1,0-.2.3-.3.5h0v-.6h-.4v2.8h.4v-1.4h0ZM20,78.8c.4,0,.8,0,1-.4s.4-.6.4-1.1-.1-.8-.3-1.1c-.2-.3-.5-.4-1-.4s-.8,0-1,.4c-.3.3-.4.6-.4,1.1s.1.8.4,1c.2.3.6.4,1,.4h0ZM19.3,76.5c.2-.2.4-.3.7-.3s.5,0,.7.3c.2.2.2.5.2.8s0,.6-.2.8c-.2.2-.4.3-.7.3s-.5,0-.7-.3c-.2-.2-.2-.4-.2-.8s0-.6.2-.8ZM23.3,78.5c.2-.2.3-.3.3-.6s0-.4-.2-.5c-.1,0-.3-.2-.5-.3-.2,0-.3-.2-.4-.2,0,0-.1-.2-.1-.3s0-.2.1-.3c0,0,.2,0,.4,0s.4,0,.6.2v-.4c-.2,0-.4,0-.6,0s-.5,0-.7.2-.3.3-.3.6,0,.4.2.5c0,0,.3.2.5.3.2,0,.4.2.5.3,0,0,.1.2.1.3,0,.3-.2.4-.5.4s-.5,0-.7-.3v.5c.2,0,.4.2.7.2s.6,0,.8-.3h-.2ZM25.3,75.9c-.4,0-.8,0-1,.4-.3.3-.4.6-.4,1.1s.1.8.4,1c.2.3.6.4,1,.4s.8,0,1-.4.4-.6.4-1.1-.1-.8-.3-1.1c-.2-.3-.6-.4-1-.4h0ZM26.3,77.3c0,.3,0,.6-.2.8-.2.2-.4.3-.7.3s-.5,0-.7-.3c-.2-.2-.2-.4-.2-.8s0-.6.3-.8c.2-.2.4-.3.7-.3s.5,0,.7.3c.1.2.2.5.2.8h-.1ZM27.5,78.7h.4v-2.4h.6v-.4h-.6v-.4c0-.4.2-.6.5-.6h.3v-.4h-.3c-.2,0-.4,0-.6.2-.2.2-.3.4-.3.7v.5h-.5v.4h.5v2.4h0ZM29.3,77.9c0,.5.2.8.7.8s.3,0,.4,0v-.4h-.3c-.1,0-.3,0-.3,0v-2h.7v-.4h-.7v-.8c-.2,0-.3,0-.4,0v.7h-.5v.4h.5v1.6h0ZM76.8,83c-.2,0-.3-.2-.5-.2s-.4,0-.6.2c-.2,0-.2.3-.2.5s0,.4.2.5.3.2.6.2.4,0,.6-.2c.1-.2.2-.3.2-.5s0-.4-.2-.6h-.1ZM76.7,84.1c-.1,0-.3.2-.5.2s-.4,0-.5-.2c-.1,0-.2-.3-.2-.5s0-.4.2-.5c.1,0,.3-.2.5-.2s.4,0,.5.2c.1,0,.2.3.2.5s0,.4-.2.5ZM76.3,83.6h.2v-.4h-.6v1h.1v-.4h0s.1,0,.2.2v.2h.3v-.3c-.2,0-.2-.2-.3-.2h.1ZM76.3,83.5h-.2v-.3h.3c0,.2,0,.3-.2.3h0Z"/>
    </g>
  </g>
</svg>