<?xml version="1.0" encoding="UTF-8"?>
<svg xmlns="http://www.w3.org/2000/svg" version="1.1" viewBox="0 0 84 96">
  <defs>
    <style>
      .cls-1 {
        fill: #fff;
        fill-rule: evenodd;
      }

      .cls-2 {
        fill: #21bbee;
      }

      .cls-3 {
        fill: #eaf7fd;
      }
    </style>
  </defs>
  <!-- Generator: Adobe Illustrator 28.6.0, SVG Export Plug-In . SVG Version: 1.2.0 Build 709)  -->
  <g>
    <g id="Layer_1">
      <rect class="cls-3" x="-1.9" y="-2.1" width="87.8" height="99.5"/>
      <path class="cls-1" d="M4803.7-375.5h2500v2500h-2500V-375.5Z"/>
      <path class="cls-2" d="M36.3,89.3c-7.6-.5-15.3-2.5-19.9-5.1-2.6-1.5-4.7-3.3-5.4-4.9l-.4-1V18.2l.4-.8c1.7-3.3,6.9-6.4,14.4-8.3,2.5-.6,6.2-1.2,9.1-1.6,3-.4,11.1-.3,14.1,0,8,1,14.9,3.1,19.1,5.9,1.6,1.1,3.3,2.8,3.9,4l.5,1.1v60.1l-.4.8c-.2.4-.9,1.3-1.4,1.9-3.5,3.7-11,6.5-20.9,7.6-2,.3-10.7.4-12.8.3h0ZM50.4,63.5s-1.1-1.1-2.5-2.3-2.5-2.2-2.6-2.3.2-.3.5-.5,1.1-.9,1.7-1.4c1.5-1.6,2.2-3.5,2.2-6.1s-.8-4.5-2.3-6.1c-1.6-1.6-3.3-2.2-5.9-2.2-4,0-7,2.3-8,6.1-.4,1.3-.4,3.9,0,5,.9,3,3.3,5.2,6.2,5.6,1,.2,1.1.3,1.8,1,.4.4,1.2,1.3,1.8,2l1.1,1.1h3c1.7,0,3,0,2.9-.2h0v.2ZM40.2,55.2c-.7-.4-1-.7-1.4-1.5-.4-.6-.4-1-.4-2.5s0-1.8.4-2.5c.5-1.1,1.3-1.6,2.5-1.7,1.6,0,2.5.7,3,2.5.6,2.3,0,4.7-1.5,5.6-.7.4-1.8.4-2.5,0h0ZM27,59.5c3.1-.6,4.9-2.4,4.9-5s-1.1-3.7-4.3-5.1c-1.8-.8-2.5-1.3-2.5-1.9s.6-1.1,1.3-1.1c.7-.2,2.5.2,3.7.6l1,.4v-4.1l-1-.3c-.6-.2-1.9-.3-3.4-.2-2.1,0-2.5,0-3.3.4-2.3.9-3.4,2.5-3.4,4.8s1.1,3.6,4.1,4.8c1.8.7,2.4,1.3,2.4,1.9,0,1.4-2.4,1.6-4.8.4-.7-.4-1.3-.6-1.3-.7s0,1,0,2.1q0,2.2.4,2.4c1.5.5,4.7.8,6.5.5l-.2.2ZM62.7,57.4v-1.8h-5.6v-12.7h-5v16.4h10.6v-1.8h0ZM45.3,25c4.9-.4,8.7-1,12-2.1,3.3-1.1,5.2-2.4,5.6-3.9.2-.5.2-.8,0-1.4-1.1-2.7-6.9-4.8-15.7-5.6-3.8-.4-10.7-.3-14.3.3-5.5.7-10,2.1-12,3.7-4,3.2.3,6.7,10.1,8.3,4.3.7,9.8,1,14.4.6h0Z"/>
    </g>
  </g>
</svg>