<?xml version="1.0" encoding="UTF-8"?><svg id="Layer_1" xmlns="http://www.w3.org/2000/svg" xmlns:xlink="http://www.w3.org/1999/xlink" viewBox="0 0 520.355 152.472"><defs><style>.cls-1{fill:url(#linear-gradient);}.cls-1,.cls-2,.cls-3{stroke-width:0px;}.cls-2{fill:#f36f16;}.cls-3{fill:#fff;}</style><linearGradient id="linear-gradient" x1="397.451" y1="80.55" x2="503.334" y2="80.55" gradientUnits="userSpaceOnUse"><stop offset="0" stop-color="#ef6a0f"/><stop offset="1" stop-color="#faa12a"/></linearGradient></defs><path class="cls-2" d="M66.473,20.061l-29.824,10.343s-1.269.508-1.269,1.333v.888s0,.888,1.269,1.333c1.269.444,29.697,10.724,29.697,10.724l30.268-10.851s.825-.508.825-1.269v-.825s-.254-.952-1.142-1.269-29.824-10.407-29.824-10.407"/><path class="cls-2" d="M47.976,41.351l17.387,6.282s.698.381,2.157,0c1.46-.381,17.26-6.282,17.26-6.282v8.884s-.064,2.665-5.584,4.442c-5.52,1.777-9.708,1.777-10.406,1.777h-3.554s-15.229-.127-17.26-6.346v-8.757Z"/><polygon class="cls-2" points="31.731 50.742 38.521 54.676 38.584 87.229 59.334 108.74 31.985 90.655 31.731 50.742"/><polygon class="cls-2" points="21.515 56.072 21.515 96.493 55.4 110.199 28.622 92.686 28.368 60.197 21.515 56.072"/><polygon class="cls-2" points="100.961 50.678 94.171 54.613 94.107 87.165 73.358 108.676 100.707 90.592 100.961 50.678"/><polygon class="cls-2" points="111.177 56.009 111.177 96.43 77.292 110.136 104.07 92.622 104.324 60.133 111.177 56.009"/><path class="cls-2" d="M55.717,110.199h21.194v6.219h11.231s2.665-.127,2.665,2.602c0,0,.317,2.729-2.157,2.729h-44.482s-2.221-.191-2.221-2.665,2.792-2.602,2.792-2.602h10.914l.064-6.282Z"/><path class="cls-3" d="M60.54,69.715l17.577,16.689s.508,1.205-.254,1.205h-7.361l2.856,6.219s.381.634-.191.952c-.571.318-4.188,1.967-4.188,1.967,0,0-.698.381-1.079-.381-.381-.761-2.855-6.663-2.855-6.663l-4.505,5.774s-1.333.508-1.333-.381.127-24.938.127-24.938c0,0,0-.888,1.206-.444"/><g id="_6TuRqi.tif"><path class="cls-3" d="M324.893,94.528v5.088h-11.023c-.142-.469-.178-51.656-.033-52.423h11.39c.02.24.058.483.058.726.004,3.656.003,7.311.003,10.967,0,2.21.029,4.421-.01,6.631-.028,1.612-.144,3.222-.22,4.834-.005.097,0,.194.101.33.079-.108.164-.211.235-.323.922-1.441,1.972-2.769,3.362-3.797,1.593-1.177,3.391-1.826,5.344-2.08,1.758-.229,3.517-.25,5.275-.003,2.569.361,4.856,1.361,6.837,3.037,2.834,2.398,4.503,5.494,5.347,9.062.777,3.283.86,6.6.412,9.938-.322,2.401-.964,4.699-2.132,6.832-1.345,2.457-3.178,4.454-5.628,5.851-2.093,1.194-4.37,1.741-6.759,1.846-1.533.068-3.056-.008-4.547-.448-2-.59-3.745-1.621-5.219-3.073-.829-.816-1.539-1.753-2.303-2.635-.116-.134-.232-.269-.347-.404-.048.015-.096.029-.144.044ZM324.475,82.104c-.006,1.547.096,2.583.386,3.587.702,2.433,2.146,4.227,4.597,5.06,1.452.493,2.958.524,4.47.283,2.659-.424,4.521-1.883,5.492-4.381.913-2.348.949-4.784.303-7.197-.663-2.477-2.19-4.231-4.683-5.043-1.042-.34-2.12-.426-3.209-.384-2.958.114-5.134,1.466-6.459,4.122-.697,1.398-.885,2.912-.896,3.953Z"/><path class="cls-3" d="M150.382,70.776c.171-.239.28-.38.378-.53.913-1.395,1.94-2.688,3.296-3.688,1.594-1.175,3.392-1.825,5.344-2.078,1.758-.228,3.517-.25,5.275-.003,2.705.381,5.087,1.469,7.127,3.288,2.662,2.375,4.246,5.378,5.056,8.812.78,3.305.848,6.643.399,10.003-.385,2.883-1.241,5.597-2.878,8.023-2.428,3.597-5.778,5.739-10.107,6.3-1.977.256-3.947.266-5.885-.255-2.075-.557-3.881-1.625-5.402-3.126-.828-.817-1.54-1.752-2.303-2.635-.12-.139-.233-.285-.415-.414-.103.568-.074,1.128-.079,1.686-.005.574-.001,1.148-.001,1.721v1.739h-11.015c-.15-.5-.178-51.731-.026-52.427h11.39c.017.245.048.489.048.733.003,5.781.002,11.561.002,17.342,0,1.721.013,3.442-.24,5.152-.011.073.015.152.038.357ZM165.417,82.841c.002-1.56-.151-2.926-.669-4.227-.833-2.095-2.296-3.539-4.467-4.219-1.003-.314-2.037-.39-3.085-.37-3.509.07-5.924,2.127-6.877,5.007-.79,2.388-.783,4.819.016,7.199.743,2.213,2.212,3.806,4.476,4.541,1.437.466,2.92.501,4.41.262,2.686-.429,4.523-1.918,5.525-4.434.502-1.259.662-2.583.671-3.76Z"/><path class="cls-3" d="M293.454,70.623v-4.981c.526-.138,10.037-.181,11.008-.069.016.014.034.026.048.042.014.015.031.033.033.051.017.125.043.251.043.377-.001,11.116-.005,22.231-.01,33.347,0,.059-.034.119-.066.223h-11.003v-5.086c-.045-.015-.089-.029-.134-.044-.115.135-.237.265-.343.407-1.123,1.51-2.394,2.87-3.955,3.943-2.019,1.389-4.283,2.056-6.699,2.202-1.895.115-3.78-.018-5.617-.568-2.923-.876-5.22-2.615-6.991-5.07-1.698-2.353-2.695-4.997-3.193-7.84-.529-3.018-.561-6.048-.131-9.076.452-3.186,1.515-6.139,3.54-8.689,2.414-3.041,5.551-4.816,9.404-5.317,1.909-.248,3.815-.264,5.709.125,2.895.593,5.205,2.119,7.015,4.429.327.418.614.866.922,1.299.082.116.172.227.259.34.053-.015.106-.03.159-.045ZM278.104,82.902c-.008,1.077.181,2.547.814,3.924.864,1.88,2.219,3.246,4.222,3.904,1.443.474,2.916.546,4.408.313,3.024-.473,5.011-2.184,5.94-5.082.692-2.159.682-4.362.097-6.539-.634-2.356-2.087-4.054-4.355-5.006-1.178-.495-2.425-.603-3.69-.557-3.069.11-5.447,1.661-6.671,4.511-.563,1.311-.756,2.692-.765,4.532Z"/><path class="cls-3" d="M245.318,88.061h16.673c.172.526.221,10.702.073,11.551h-30.197c-.008-.009-.022-.024-.036-.039-.014-.016-.034-.031-.039-.049-.014-.062-.032-.125-.032-.187-.002-16.297-.003-32.595-.002-48.892,0-.082.023-.164.034-.239.469-.139,12.718-.172,13.488-.03.084,1.38.024,2.776.035,4.17.011,1.402.002,2.805.002,4.207v25.243c0,1.395,0,2.791,0,4.265Z"/><path class="cls-3" d="M356.299,96.851c.841-3.093,1.663-6.115,2.511-9.231.29.228.488.381.683.537,3.069,2.466,6.571,3.868,10.489,4.197,1.164.098,2.347.101,3.469-.305.472-.171.946-.401,1.341-.705,1.063-.818,1.15-2.278.234-3.261-.798-.857-1.851-1.268-2.937-1.585-1.67-.487-3.364-.895-5.029-1.401-1.486-.451-2.913-1.062-4.257-1.85-1.683-.986-3.094-2.244-3.952-4.037-.735-1.537-.918-3.172-.792-4.848.181-2.395,1.057-4.48,2.763-6.207,1.679-1.699,3.705-2.745,6.005-3.304,2.614-.635,5.26-.647,7.919-.408,2.144.193,4.259.556,6.301,1.238,1.408.47,2.779,1.049,4.165,1.583.114.044.216.12.374.209-.828,2.746-1.651,5.477-2.499,8.29-.322-.198-.57-.349-.816-.502-1.966-1.223-4.066-2.121-6.346-2.557-1.469-.281-2.956-.373-4.434-.085-.491.096-.992.274-1.42.529-1.203.715-1.304,2.194-.24,3.1.708.602,1.548.97,2.421,1.247,1.679.534,3.374,1.018,5.053,1.553,1.948.621,3.826,1.403,5.548,2.53,2.306,1.51,3.445,3.711,3.707,6.379.173,1.762.074,3.522-.551,5.217-.907,2.461-2.586,4.255-4.795,5.6-1.996,1.215-4.181,1.869-6.487,2.126-2.891.322-5.768.167-8.634-.318-3.286-.556-6.345-1.714-9.226-3.369-.182-.104-.354-.225-.57-.363Z"/><path class="cls-3" d="M220.352,99.617h-11.905c-.022-.137-.049-.238-.052-.339-.008-.212-.004-.425-.005-.638-.017-7.906-.033-15.811-.051-23.717,0-.227-.023-.454-.039-.747h-4.917c-.168-.519-.202-7.866-.043-8.651h4.988v-10.104c.513-.181,11.041-.233,11.97-.072.011.229.033.475.033.722.002,2.869.002,5.739.002,8.608v.804c1.684.099,3.293-.004,4.884.063.169.457.218,7.709.053,8.605-1.603.01-3.225.019-4.917.029v25.438Z"/><path class="cls-3" d="M184.568,99.613v-34.043h11.93c.144.434.189,33.202.039,34.043h-11.968Z"/><path class="cls-3" d="M195.117,56.666c.129,2.351-1.841,4.604-4.524,4.583-2.782-.021-4.518-2.421-4.536-4.296-.028-3.045,2.409-4.767,4.609-4.749,2.702.022,4.578,2.095,4.451,4.461Z"/></g><rect class="cls-1" x="397.451" y="59.61" width="105.882" height="41.88" rx="14.143" ry="14.143"/><path class="cls-3" d="M416.39,90.386c-1.24-.552-2.256-1.339-3.048-2.36l2.813-3.376c1.188,1.605,2.542,2.407,4.063,2.407,2.062,0,3.094-1.208,3.094-3.626v-10.409h-7.689v-4.063h12.723v14.191c0,2.688-.667,4.704-2.001,6.049-1.334,1.344-3.293,2.016-5.876,2.016-1.48,0-2.84-.276-4.079-.828Z"/><path class="cls-3" d="M436.237,89.98c-1.406-.739-2.506-1.767-3.297-3.079-.793-1.312-1.188-2.803-1.188-4.47s.396-3.157,1.188-4.47c.791-1.313,1.891-2.339,3.297-3.079,1.407-.739,2.996-1.109,4.768-1.109s3.354.37,4.751,1.109c1.396.74,2.49,1.766,3.282,3.079.792,1.312,1.188,2.803,1.188,4.47s-.396,3.157-1.188,4.47-1.887,2.34-3.282,3.079c-1.396.739-2.98,1.109-4.751,1.109s-3.36-.37-4.768-1.109ZM444.084,85.823c.802-.845,1.203-1.975,1.203-3.392s-.401-2.548-1.203-3.392c-.803-.844-1.829-1.266-3.079-1.266s-2.282.422-3.095,1.266-1.219,1.975-1.219,3.392.406,2.547,1.219,3.392c.812.844,1.844,1.266,3.095,1.266s2.276-.422,3.079-1.266Z"/><path class="cls-3" d="M467.683,74.851c1.282.719,2.287,1.729,3.017,3.032.729,1.302,1.094,2.818,1.094,4.548s-.364,3.246-1.094,4.548c-.729,1.303-1.734,2.313-3.017,3.032-1.281.719-2.703,1.078-4.267,1.078-2.312,0-4.074-.729-5.282-2.188v1.938h-4.657v-23.193h4.876v8.158c1.229-1.354,2.917-2.031,5.063-2.031,1.563,0,2.985.359,4.267,1.078ZM465.652,85.823c.802-.845,1.203-1.975,1.203-3.392s-.401-2.548-1.203-3.392c-.803-.844-1.829-1.266-3.079-1.266s-2.277.422-3.079,1.266c-.803.844-1.203,1.975-1.203,3.392s.4,2.547,1.203,3.392c.802.844,1.829,1.266,3.079,1.266s2.276-.422,3.079-1.266Z"/><path class="cls-3" d="M476.608,90.574c-1.334-.344-2.396-.776-3.188-1.297l1.626-3.501c.75.479,1.656.87,2.719,1.172,1.063.303,2.104.453,3.126.453,2.063,0,3.095-.511,3.095-1.531,0-.479-.281-.823-.844-1.032-.562-.208-1.428-.385-2.595-.531-1.375-.208-2.512-.447-3.407-.719-.896-.271-1.672-.75-2.328-1.438-.657-.688-.985-1.667-.985-2.938,0-1.062.308-2.006.923-2.829.614-.823,1.51-1.464,2.688-1.922s2.568-.688,4.173-.688c1.188,0,2.37.13,3.548.391s2.151.62,2.923,1.078l-1.625,3.47c-1.48-.833-3.095-1.251-4.846-1.251-1.042,0-1.823.146-2.344.438-.521.292-.782.667-.782,1.125,0,.521.282.886.845,1.094.562.209,1.458.406,2.688.594,1.376.229,2.501.475,3.376.735.876.261,1.636.734,2.282,1.422.646.688.969,1.646.969,2.876,0,1.042-.312,1.969-.938,2.781-.625.813-1.537,1.443-2.735,1.892s-2.62.672-4.267.672c-1.396,0-2.762-.172-4.095-.516Z"/><path class="cls-3" d="M240.103,130.261h-10.021l-2.607,5.686h-3.806l11.583-24.878,11.173,24.878h-3.866l-2.456-5.686ZM238.664,126.942l-3.472-7.96-3.639,7.96h7.11Z"/><path class="cls-3" d="M265.391,115.859v20.088h-3.532v-20.088h-5.382v-3.319h14.281v3.319h-5.367Z"/><path class="cls-3" d="M286.706,129.367h-10.581c.091,1.213.484,2.179,1.182,2.896.698.707,1.592,1.061,2.684,1.061.85,0,1.552-.202,2.107-.606.546-.403,1.167-1.152,1.865-2.243l2.88,1.606c-.444.759-.915,1.408-1.41,1.948-.495.541-1.025.985-1.592,1.334-.565.349-1.177.604-1.834.766-.657.162-1.37.243-2.138.243-2.203,0-3.972-.708-5.306-2.123-1.335-1.425-2.002-3.314-2.002-5.67,0-2.335.647-4.225,1.94-5.67,1.305-1.425,3.032-2.138,5.186-2.138,2.173,0,3.891.692,5.154,2.077,1.253,1.375,1.88,3.28,1.88,5.716l-.016.803ZM283.204,126.578c-.475-1.819-1.622-2.729-3.441-2.729-.414,0-.803.062-1.167.189-.364.126-.695.309-.993.546s-.553.522-.766.856c-.212.333-.374.712-.485,1.137h6.853Z"/><path class="cls-3" d="M293.847,110.341v15.615l4.807-4.776h4.578l-6.413,6.201,6.883,8.565h-4.427l-4.882-6.23-.546.545v5.686h-3.411v-25.605h3.411Z"/><path class="cls-3" d="M307.748,121.18l3.866,8.43,4.169-9.778,4.199,9.778,3.821-8.43h3.82l-7.732,15.873-4.108-9.505-4.153,9.505-7.717-15.873h3.835Z"/><path class="cls-3" d="M329.231,128.458c0-2.133.764-3.946,2.289-5.442,1.526-1.496,3.386-2.244,5.579-2.244s4.073.753,5.609,2.259c1.517,1.507,2.274,3.356,2.274,5.549,0,2.214-.764,4.068-2.289,5.564-1.536,1.485-3.422,2.229-5.655,2.229-2.213,0-4.068-.759-5.563-2.274-1.496-1.496-2.244-3.376-2.244-5.64ZM332.718,128.518c0,1.476.395,2.644,1.183,3.502.809.869,1.874,1.304,3.198,1.304,1.335,0,2.4-.429,3.199-1.288.798-.859,1.197-2.007,1.197-3.441s-.399-2.582-1.197-3.441c-.809-.869-1.875-1.304-3.199-1.304-1.304,0-2.359.435-3.168,1.304s-1.213,1.991-1.213,3.365Z"/><path class="cls-3" d="M348.591,121.18h3.411v1.319c.627-.657,1.183-1.106,1.668-1.35.495-.252,1.081-.379,1.759-.379.899,0,1.839.294,2.819.88l-1.562,3.123c-.646-.465-1.278-.697-1.895-.697-1.86,0-2.79,1.404-2.79,4.214v7.656h-3.411v-14.767Z"/><path class="cls-3" d="M363.614,110.341v15.615l4.807-4.776h4.578l-6.413,6.201,6.883,8.565h-4.427l-4.882-6.23-.546.545v5.686h-3.411v-25.605h3.411Z"/><path class="cls-3" d="M384.248,123.697l-2.819,1.501c-.445-.909-.996-1.364-1.652-1.364-.313,0-.582.104-.804.311-.223.208-.334.473-.334.796,0,.566.657,1.128,1.971,1.684,1.81.778,3.027,1.495,3.654,2.152.626.657.939,1.541.939,2.653,0,1.425-.525,2.617-1.576,3.577-1.021.91-2.254,1.365-3.699,1.365-2.477,0-4.23-1.208-5.261-3.624l2.911-1.349c.403.707.712,1.157.924,1.349.415.385.91.576,1.486.576,1.152,0,1.729-.525,1.729-1.576,0-.606-.445-1.173-1.335-1.698-.343-.172-.687-.339-1.03-.5-.344-.162-.692-.328-1.046-.501-.991-.484-1.688-.97-2.093-1.455-.516-.616-.772-1.41-.772-2.38,0-1.283.439-2.345,1.318-3.184.899-.839,1.991-1.259,3.274-1.259,1.891,0,3.295.976,4.215,2.926Z"/><path class="cls-3" d="M402.031,126.441v9.506h-3.532v-23.407h4.002c1.961,0,3.441.136,4.442.409,1.011.272,1.9.788,2.668,1.546,1.345,1.314,2.017,2.972,2.017,4.973,0,2.143-.718,3.841-2.152,5.094-1.436,1.254-3.371,1.88-5.807,1.88h-1.638ZM402.031,123.167h1.319c3.244,0,4.866-1.248,4.866-3.744,0-2.416-1.673-3.624-5.018-3.624h-1.168v7.368Z"/><path class="cls-3" d="M414.614,121.18h3.411v1.319c.627-.657,1.183-1.106,1.668-1.35.495-.252,1.081-.379,1.759-.379.899,0,1.839.294,2.819.88l-1.562,3.123c-.646-.465-1.278-.697-1.895-.697-1.86,0-2.79,1.404-2.79,4.214v7.656h-3.411v-14.767Z"/><path class="cls-3" d="M425.529,128.458c0-2.133.764-3.946,2.289-5.442,1.526-1.496,3.386-2.244,5.579-2.244s4.073.753,5.609,2.259c1.517,1.507,2.274,3.356,2.274,5.549,0,2.214-.764,4.068-2.289,5.564-1.536,1.485-3.422,2.229-5.655,2.229-2.213,0-4.068-.759-5.563-2.274-1.496-1.496-2.244-3.376-2.244-5.64ZM429.017,128.518c0,1.476.395,2.644,1.183,3.502.809.869,1.874,1.304,3.198,1.304,1.335,0,2.4-.429,3.199-1.288.798-.859,1.197-2.007,1.197-3.441s-.399-2.582-1.197-3.441c-.809-.869-1.875-1.304-3.199-1.304-1.304,0-2.359.435-3.168,1.304s-1.213,1.991-1.213,3.365Z"/><path class="cls-3" d="M455.776,110.341h3.426v25.605h-3.426v-1.546c-1.345,1.313-2.865,1.971-4.563,1.971-2.021,0-3.699-.738-5.033-2.214-1.324-1.506-1.986-3.386-1.986-5.64,0-2.203.662-4.043,1.986-5.519,1.313-1.485,2.966-2.229,4.957-2.229,1.729,0,3.275.708,4.64,2.123v-12.553ZM447.68,128.518c0,1.415.379,2.567,1.137,3.457.778.899,1.759,1.349,2.941,1.349,1.264,0,2.284-.435,3.062-1.304.778-.899,1.167-2.041,1.167-3.426s-.389-2.526-1.167-3.427c-.778-.879-1.789-1.318-3.032-1.318-1.173,0-2.152.444-2.941,1.334-.778.899-1.167,2.011-1.167,3.335Z"/><path class="cls-3" d="M466.917,121.18v8.475c0,2.446.966,3.669,2.896,3.669s2.896-1.223,2.896-3.669v-8.475h3.411v8.551c0,1.183-.147,2.203-.44,3.062-.282.769-.772,1.461-1.47,2.077-1.152,1-2.618,1.501-4.396,1.501s-3.229-.501-4.382-1.501c-.708-.616-1.208-1.309-1.501-2.077-.283-.688-.425-1.708-.425-3.062v-8.551h3.411Z"/><path class="cls-3" d="M491.918,121.817v4.533c-.778-.95-1.476-1.602-2.093-1.955-.605-.364-1.318-.546-2.137-.546-1.284,0-2.351.449-3.199,1.349-.849.9-1.273,2.026-1.273,3.381,0,1.385.409,2.522,1.228,3.411.829.89,1.885,1.334,3.169,1.334.818,0,1.541-.177,2.168-.53.606-.344,1.319-1.011,2.138-2.001v4.502c-1.385.718-2.77,1.077-4.154,1.077-2.284,0-4.194-.738-5.73-2.214-1.536-1.485-2.305-3.33-2.305-5.533s.778-4.063,2.335-5.579c1.557-1.517,3.467-2.274,5.73-2.274,1.456,0,2.83.349,4.124,1.046Z"/><path class="cls-3" d="M498.739,124.364v11.583h-3.411v-11.583h-1.455v-3.184h1.455v-5.412h3.411v5.412h2.653v3.184h-2.653Z"/></svg>